<svg width="741" height="94" viewBox="0 0 741 94" fill="none" xmlns="http://www.w3.org/2000/svg">
<rect x="0.28125" y="0.370239" width="739.871" height="93" rx="46.5" fill="black"/>
<rect x="446.547" y="11.9733" width="276.543" height="68.3027" rx="34.1513" fill="white"/>
<rect x="452.238" y="16.8707" width="141.801" height="58.268" rx="29.134" fill="#FF3000"/>
<path d="M510.488 41.2013C510.407 40.386 510.06 39.7527 509.447 39.3013C508.834 38.8499 508.002 38.6242 506.951 38.6242C506.237 38.6242 505.634 38.7252 505.142 38.9273C504.65 39.1227 504.273 39.3956 504.01 39.746C503.754 40.0963 503.626 40.4938 503.626 40.9385C503.612 41.3091 503.69 41.6325 503.858 41.9087C504.033 42.185 504.273 42.4241 504.576 42.6263C504.879 42.8216 505.229 42.9935 505.627 43.1417C506.024 43.2832 506.449 43.4044 506.9 43.5055L508.76 43.9502C509.663 44.1523 510.491 44.4218 511.246 44.7587C512.001 45.0956 512.654 45.5099 513.207 46.0018C513.759 46.4936 514.187 47.073 514.49 47.7401C514.8 48.4071 514.958 49.1718 514.965 50.0342C514.958 51.3009 514.635 52.3991 513.995 53.3289C513.362 54.2519 512.445 54.9695 511.246 55.4815C510.053 55.9868 508.615 56.2395 506.931 56.2395C505.26 56.2395 503.804 55.9835 502.565 55.4714C501.332 54.9594 500.368 54.2014 499.674 53.1975C498.987 52.1869 498.627 50.937 498.593 49.448H502.827C502.875 50.142 503.073 50.7214 503.424 51.1863C503.781 51.6445 504.256 51.9915 504.849 52.2273C505.448 52.4564 506.125 52.5709 506.88 52.5709C507.621 52.5709 508.265 52.4631 508.81 52.2475C509.363 52.0319 509.791 51.7321 510.094 51.348C510.397 50.964 510.549 50.5227 510.549 50.0241C510.549 49.5592 510.411 49.1684 510.134 48.8518C509.865 48.5351 509.467 48.2656 508.942 48.0433C508.423 47.8209 507.786 47.6188 507.032 47.4369L504.778 46.8709C503.033 46.4465 501.655 45.7828 500.644 44.88C499.634 43.9771 499.132 42.761 499.139 41.2316C499.132 39.9784 499.465 38.8835 500.139 37.947C500.82 37.0105 501.753 36.2795 502.939 35.754C504.124 35.2284 505.472 34.9657 506.981 34.9657C508.517 34.9657 509.858 35.2284 511.003 35.754C512.156 36.2795 513.052 37.0105 513.692 37.947C514.332 38.8835 514.662 39.9683 514.682 41.2013H510.488ZM517.069 55.9464V40.4231H521.374V55.9464H517.069ZM519.232 38.422C518.591 38.422 518.042 38.2098 517.584 37.7853C517.133 37.3541 516.907 36.8387 516.907 36.2391C516.907 35.6461 517.133 35.1375 517.584 34.713C518.042 34.2818 518.591 34.0662 519.232 34.0662C519.872 34.0662 520.417 34.2818 520.869 34.713C521.327 35.1375 521.556 35.6461 521.556 36.2391C521.556 36.8387 521.327 37.3541 520.869 37.7853C520.417 38.2098 519.872 38.422 519.232 38.422ZM524.064 55.9464V40.4231H528.167V43.1619H528.349C528.672 42.2523 529.211 41.5348 529.966 41.0092C530.721 40.4837 531.624 40.221 532.675 40.221C533.739 40.221 534.645 40.4871 535.393 41.0194C536.141 41.5449 536.64 42.2591 536.889 43.1619H537.051C537.367 42.2725 537.94 41.5617 538.769 41.0295C539.604 40.4905 540.591 40.221 541.73 40.221C543.178 40.221 544.354 40.6825 545.257 41.6055C546.167 42.5218 546.621 43.8222 546.621 45.5066V55.9464H542.326V46.3555C542.326 45.4931 542.097 44.8463 541.639 44.4151C541.181 43.9839 540.608 43.7683 539.921 43.7683C539.139 43.7683 538.53 44.0176 538.092 44.5161C537.654 45.008 537.435 45.6582 537.435 46.4667V55.9464H533.261V46.2645C533.261 45.5032 533.042 44.8968 532.604 44.4454C532.173 43.994 531.603 43.7683 530.896 43.7683C530.417 43.7683 529.986 43.8896 529.602 44.1321C529.225 44.3679 528.925 44.7014 528.703 45.1326C528.48 45.5571 528.369 46.0557 528.369 46.6284V55.9464H524.064Z" fill="white"/>
<path d="M641.642 35.2486V55.9464H637.863L628.858 42.9193H628.706V55.9464H624.33V35.2486H628.171L637.105 48.2656H637.287V35.2486H641.642ZM648.845 56.2395C647.854 56.2395 646.972 56.0677 646.197 55.7241C645.422 55.3737 644.809 54.8583 644.357 54.1778C643.913 53.4906 643.69 52.6349 643.69 51.6108C643.69 50.7484 643.849 50.0241 644.165 49.4379C644.482 48.8518 644.913 48.3801 645.459 48.023C646.005 47.666 646.625 47.3965 647.319 47.2145C648.019 47.0326 648.754 46.9046 649.522 46.8305C650.425 46.7362 651.152 46.6486 651.705 46.5677C652.257 46.4801 652.658 46.3521 652.907 46.1837C653.157 46.0153 653.281 45.766 653.281 45.4358V45.3752C653.281 44.7351 653.079 44.2399 652.675 43.8896C652.277 43.5392 651.712 43.364 650.977 43.364C650.202 43.364 649.586 43.5358 649.128 43.8794C648.67 44.2163 648.366 44.6408 648.218 45.1528L644.236 44.8294C644.438 43.8862 644.836 43.0709 645.429 42.3837C646.022 41.6897 646.786 41.1575 647.723 40.7869C648.666 40.4096 649.758 40.221 650.997 40.221C651.86 40.221 652.685 40.322 653.473 40.5241C654.268 40.7263 654.972 41.0396 655.586 41.464C656.205 41.8885 656.694 42.4342 657.051 43.1013C657.408 43.7615 657.587 44.5532 657.587 45.4762V55.9464H653.504V53.7938H653.382C653.133 54.2789 652.8 54.7067 652.382 55.0773C651.964 55.4411 651.462 55.7274 650.876 55.9363C650.29 56.1384 649.613 56.2395 648.845 56.2395ZM650.078 53.2682C650.711 53.2682 651.27 53.1436 651.755 52.8943C652.24 52.6383 652.621 52.2947 652.897 51.8635C653.174 51.4322 653.312 50.9438 653.312 50.398V48.7507C653.177 48.8383 652.992 48.9191 652.756 48.9933C652.527 49.0606 652.267 49.1246 651.978 49.1853C651.688 49.2392 651.398 49.2897 651.108 49.3369C650.819 49.3773 650.556 49.4143 650.32 49.448C649.815 49.5221 649.374 49.6401 648.996 49.8018C648.619 49.9635 648.326 50.1824 648.117 50.4587C647.908 50.7282 647.804 51.0651 647.804 51.4693C647.804 52.0555 648.016 52.5035 648.44 52.8134C648.872 53.1166 649.417 53.2682 650.078 53.2682ZM648.269 38.513L645.873 38.4827C645.873 37.1958 646.19 36.2087 646.823 35.5215C647.463 34.8343 648.242 34.4873 649.158 34.4806C649.63 34.4806 650.034 34.558 650.371 34.713C650.714 34.8612 651.021 35.0364 651.29 35.2385C651.567 35.4407 651.829 35.6192 652.079 35.7742C652.328 35.9224 652.597 35.9965 652.887 35.9965C653.278 35.9898 653.574 35.8449 653.777 35.5619C653.985 35.2722 654.09 34.8949 654.09 34.43L656.445 34.5008C656.431 35.7742 656.108 36.7578 655.474 37.4518C654.841 38.139 654.07 38.486 653.16 38.4928C652.655 38.4928 652.23 38.4187 651.887 38.2704C651.55 38.1155 651.253 37.9403 650.997 37.7449C650.741 37.5428 650.492 37.3642 650.249 37.2093C650.007 37.0543 649.734 36.9768 649.431 36.9768C649.08 36.9768 648.798 37.1149 648.582 37.3912C648.373 37.6674 648.269 38.0414 648.269 38.513ZM667.182 56.2496C665.612 56.2496 664.254 55.9161 663.109 55.2491C661.97 54.5753 661.091 53.6388 660.471 52.4395C659.851 51.2335 659.541 49.8354 659.541 48.2454C659.541 46.6418 659.851 45.2404 660.471 44.0411C661.091 42.8351 661.97 41.8986 663.109 41.2316C664.254 40.5578 665.612 40.221 667.182 40.221C668.752 40.221 670.106 40.5578 671.244 41.2316C672.39 41.8986 673.272 42.8351 673.892 44.0411C674.512 45.2404 674.822 46.6418 674.822 48.2454C674.822 49.8354 674.512 51.2335 673.892 52.4395C673.272 53.6388 672.39 54.5753 671.244 55.2491C670.106 55.9161 668.752 56.2496 667.182 56.2496ZM667.202 52.9145C667.916 52.9145 668.512 52.7124 668.991 52.3081C669.469 51.8971 669.83 51.3379 670.072 50.6305C670.321 49.923 670.446 49.1179 670.446 48.2151C670.446 47.3122 670.321 46.5071 670.072 45.7996C669.83 45.0922 669.469 44.533 668.991 44.122C668.512 43.711 667.916 43.5055 667.202 43.5055C666.481 43.5055 665.875 43.711 665.383 44.122C664.898 44.533 664.53 45.0922 664.281 45.7996C664.039 46.5071 663.917 47.3122 663.917 48.2151C663.917 49.1179 664.039 49.923 664.281 50.6305C664.53 51.3379 664.898 51.8971 665.383 52.3081C665.875 52.7124 666.481 52.9145 667.202 52.9145Z" fill="#888888"/>
<path d="M48.2695 58.7018V32.5001H58.6068C60.5941 32.5001 62.2872 32.8797 63.686 33.6388C65.0848 34.3893 66.1509 35.4342 66.8844 36.7733C67.6265 38.1038 67.9975 39.6391 67.9975 41.379C67.9975 43.119 67.6222 44.6542 66.8716 45.9848C66.1211 47.3153 65.0336 48.3516 63.6092 49.0937C62.1934 49.8357 60.479 50.2067 58.4661 50.2067H51.8773V45.7673H57.5706C58.6367 45.7673 59.5152 45.5839 60.2061 45.2171C60.9055 44.8419 61.4257 44.3258 61.7669 43.6691C62.1166 43.0038 62.2915 42.2405 62.2915 41.379C62.2915 40.509 62.1166 39.7499 61.7669 39.1017C61.4257 38.445 60.9055 37.9375 60.2061 37.5793C59.5067 37.2125 58.6196 37.0291 57.545 37.0291H53.8092V58.7018H48.2695ZM75.6086 59.0728C74.3548 59.0728 73.2375 58.8553 72.2566 58.4203C71.2758 57.9768 70.4996 57.3243 69.9281 56.4629C69.3652 55.5929 69.0838 54.5097 69.0838 53.2133C69.0838 52.1215 69.2842 51.2046 69.6851 50.4626C70.0859 49.7206 70.6318 49.1235 71.3227 48.6715C72.0135 48.2194 72.7982 47.8783 73.6767 47.648C74.5638 47.4177 75.4934 47.2556 76.4658 47.1618C77.6087 47.0424 78.5298 46.9315 79.2292 46.8292C79.9286 46.7183 80.4361 46.5562 80.7517 46.343C81.0673 46.1298 81.225 45.8142 81.225 45.3963V45.3195C81.225 44.5092 80.9692 43.8823 80.4574 43.4388C79.9542 42.9953 79.2377 42.7735 78.3081 42.7735C77.3272 42.7735 76.5468 42.991 75.9668 43.426C75.3868 43.8525 75.003 44.3898 74.8154 45.038L69.7746 44.6286C70.0305 43.4345 70.5337 42.4025 71.2843 41.5325C72.0348 40.654 73.0029 39.9802 74.1885 39.5111C75.3826 39.0335 76.7643 38.7947 78.3336 38.7947C79.4254 38.7947 80.4702 38.9226 81.4681 39.1785C82.4746 39.4344 83.3659 39.831 84.142 40.3683C84.9267 40.9056 85.5451 41.5965 85.9971 42.4409C86.4492 43.2768 86.6752 44.2789 86.6752 45.4474V58.7018H81.5065V55.9767H81.353C81.0374 56.5908 80.6152 57.1324 80.0864 57.6015C79.5576 58.0621 78.9222 58.4246 78.1801 58.689C77.4381 58.9449 76.5809 59.0728 75.6086 59.0728ZM77.1694 55.3114C77.9712 55.3114 78.6791 55.1536 79.2932 54.8381C79.9073 54.514 80.3892 54.079 80.7389 53.5331C81.0886 52.9872 81.2634 52.3689 81.2634 51.678V49.5926C81.0928 49.7035 80.8583 49.8058 80.5598 49.8997C80.2698 49.985 79.9414 50.066 79.5746 50.1427C79.2079 50.211 78.8411 50.275 78.4744 50.3347C78.1076 50.3858 77.775 50.4327 77.4765 50.4754C76.8368 50.5692 76.2781 50.7185 75.8005 50.9232C75.3228 51.1279 74.9518 51.4051 74.6874 51.7548C74.423 52.0959 74.2908 52.5224 74.2908 53.0341C74.2908 53.7762 74.5595 54.3434 75.0968 54.7357C75.6427 55.1195 76.3336 55.3114 77.1694 55.3114ZM98.7961 66.4804C97.0306 66.4804 95.5166 66.2373 94.2543 65.7512C93.0005 65.2735 92.0026 64.621 91.2606 63.7937C90.5185 62.9664 90.0366 62.0367 89.8149 61.0047L94.8556 60.3266C95.0091 60.7189 95.2522 61.0857 95.5849 61.4269C95.9175 61.768 96.3568 62.041 96.9026 62.2457C97.457 62.4589 98.1308 62.5655 98.924 62.5655C100.11 62.5655 101.086 62.2755 101.854 61.6955C102.63 61.1241 103.018 60.1645 103.018 58.8169V55.2219H102.788C102.549 55.7677 102.191 56.2838 101.713 56.7699C101.235 57.2561 100.621 57.6527 99.8708 57.9597C99.1202 58.2668 98.2246 58.4203 97.1841 58.4203C95.7085 58.4203 94.3652 58.0792 93.154 57.3968C91.9514 56.706 90.9919 55.6526 90.2754 54.2368C89.5675 52.8124 89.2136 51.0127 89.2136 48.8378C89.2136 46.6117 89.5761 44.7523 90.301 43.2597C91.026 41.7671 91.9898 40.6498 93.1924 39.9077C94.4036 39.1657 95.7299 38.7947 97.1713 38.7947C98.2716 38.7947 99.1927 38.9823 99.9347 39.3576C100.677 39.7244 101.274 40.1849 101.726 40.7393C102.186 41.2852 102.54 41.8225 102.788 42.3513H102.992V39.0505H108.404V58.8937C108.404 60.5654 107.995 61.9642 107.176 63.09C106.357 64.2159 105.223 65.0603 103.773 65.6232C102.331 66.1947 100.673 66.4804 98.7961 66.4804ZM98.9112 54.3263C99.7897 54.3263 100.532 54.1088 101.137 53.6738C101.751 53.2303 102.221 52.5992 102.545 51.7804C102.877 50.953 103.044 49.9636 103.044 48.8122C103.044 47.6608 102.882 46.6628 102.557 45.8185C102.233 44.9655 101.764 44.3045 101.15 43.8354C100.536 43.3663 99.7897 43.1318 98.9112 43.1318C98.0157 43.1318 97.2608 43.3748 96.6467 43.861C96.0326 44.3386 95.5678 45.0039 95.2522 45.8568C94.9366 46.7098 94.7789 47.6949 94.7789 48.8122C94.7789 49.9466 94.9366 50.9274 95.2522 51.7548C95.5763 52.5736 96.0412 53.209 96.6467 53.661C97.2608 54.1046 98.0157 54.3263 98.9112 54.3263ZM117.384 59.0728C116.13 59.0728 115.013 58.8553 114.032 58.4203C113.051 57.9768 112.275 57.3243 111.704 56.4629C111.141 55.5929 110.859 54.5097 110.859 53.2133C110.859 52.1215 111.06 51.2046 111.461 50.4626C111.862 49.7206 112.407 49.1235 113.098 48.6715C113.789 48.2194 114.574 47.8783 115.452 47.648C116.339 47.4177 117.269 47.2556 118.241 47.1618C119.384 47.0424 120.305 46.9315 121.005 46.8292C121.704 46.7183 122.212 46.5562 122.527 46.343C122.843 46.1298 123.001 45.8142 123.001 45.3963V45.3195C123.001 44.5092 122.745 43.8823 122.233 43.4388C121.73 42.9953 121.013 42.7735 120.084 42.7735C119.103 42.7735 118.322 42.991 117.742 43.426C117.162 43.8525 116.779 44.3898 116.591 45.038L111.55 44.6286C111.806 43.4345 112.309 42.4025 113.06 41.5325C113.811 40.654 114.779 39.9802 115.964 39.5111C117.158 39.0335 118.54 38.7947 120.109 38.7947C121.201 38.7947 122.246 38.9226 123.244 39.1785C124.25 39.4344 125.142 39.831 125.918 40.3683C126.702 40.9056 127.321 41.5965 127.773 42.4409C128.225 43.2768 128.451 44.2789 128.451 45.4474V58.7018H123.282V55.9767H123.129C122.813 56.5908 122.391 57.1324 121.862 57.6015C121.333 58.0621 120.698 58.4246 119.956 58.689C119.214 58.9449 118.357 59.0728 117.384 59.0728ZM118.945 55.3114C119.747 55.3114 120.455 55.1536 121.069 54.8381C121.683 54.514 122.165 54.079 122.515 53.5331C122.864 52.9872 123.039 52.3689 123.039 51.678V49.5926C122.869 49.7035 122.634 49.8058 122.335 49.8997C122.045 49.985 121.717 50.066 121.35 50.1427C120.984 50.211 120.617 50.275 120.25 50.3347C119.883 50.3858 119.551 50.4327 119.252 50.4754C118.612 50.5692 118.054 50.7185 117.576 50.9232C117.099 51.1279 116.728 51.4051 116.463 51.7548C116.199 52.0959 116.066 52.5224 116.066 53.0341C116.066 53.7762 116.335 54.3434 116.872 54.7357C117.418 55.1195 118.109 55.3114 118.945 55.3114ZM131.718 58.7018V39.0505H136.913V42.5177H137.143C137.552 41.3662 138.235 40.4579 139.19 39.7926C140.145 39.1273 141.288 38.7947 142.619 38.7947C143.966 38.7947 145.114 39.1316 146.06 39.8054C147.007 40.4707 147.638 41.3747 147.954 42.5177H148.158C148.559 41.3918 149.284 40.492 150.333 39.8182C151.391 39.1358 152.641 38.7947 154.082 38.7947C155.916 38.7947 157.404 39.3789 158.547 40.5474C159.698 41.7074 160.274 43.3535 160.274 45.4858V58.7018H154.837V46.5605C154.837 45.4688 154.547 44.65 153.967 44.1041C153.387 43.5582 152.662 43.2853 151.792 43.2853C150.803 43.2853 150.031 43.6009 149.476 44.232C148.922 44.8547 148.645 45.6777 148.645 46.7012V58.7018H143.361V46.4453C143.361 45.4816 143.084 44.7139 142.529 44.1425C141.983 43.571 141.263 43.2853 140.367 43.2853C139.762 43.2853 139.216 43.4388 138.729 43.7459C138.252 44.0444 137.872 44.4666 137.591 45.0124C137.309 45.5498 137.169 46.1809 137.169 46.9059V58.7018H131.718ZM172.574 59.0856C170.553 59.0856 168.813 58.6762 167.354 57.8574C165.904 57.0301 164.787 55.8616 164.002 54.3519C163.218 52.8337 162.825 51.0383 162.825 48.9657C162.825 46.9443 163.218 45.1702 164.002 43.6435C164.787 42.1168 165.892 40.927 167.316 40.074C168.749 39.2211 170.429 38.7947 172.357 38.7947C173.653 38.7947 174.86 39.0036 175.977 39.4216C177.103 39.831 178.084 40.4493 178.92 41.2767C179.764 42.104 180.421 43.1446 180.89 44.3983C181.359 45.6436 181.594 47.1021 181.594 48.7738V50.2707H165V46.8931H176.464C176.464 46.1084 176.293 45.4133 175.952 44.8077C175.611 44.2022 175.137 43.7288 174.532 43.3876C173.935 43.0379 173.239 42.8631 172.446 42.8631C171.619 42.8631 170.885 43.055 170.246 43.4388C169.615 43.8141 169.12 44.3216 168.762 44.9613C168.403 45.5924 168.22 46.2961 168.212 47.0722V50.2835C168.212 51.2558 168.391 52.0959 168.749 52.8039C169.116 53.5118 169.632 54.0576 170.297 54.4415C170.962 54.8253 171.751 55.0172 172.664 55.0172C173.269 55.0172 173.824 54.9319 174.327 54.7613C174.83 54.5907 175.261 54.3348 175.619 53.9937C175.977 53.6525 176.25 53.2346 176.438 52.7399L181.479 53.0725C181.223 54.2837 180.698 55.3413 179.905 56.2454C179.12 57.1409 178.105 57.8403 176.86 58.3436C175.623 58.8382 174.195 59.0856 172.574 59.0856ZM189.64 47.3409V58.7018H184.19V39.0505H189.384V42.5177H189.614C190.049 41.3747 190.779 40.4707 191.802 39.8054C192.826 39.1316 194.067 38.7947 195.525 38.7947C196.89 38.7947 198.08 39.0932 199.095 39.6902C200.109 40.2873 200.898 41.1402 201.461 42.249C202.024 43.3493 202.306 44.6627 202.306 46.1895V58.7018H196.856V47.1618C196.864 45.9592 196.557 45.021 195.934 44.3472C195.312 43.6648 194.455 43.3237 193.363 43.3237C192.629 43.3237 191.981 43.4815 191.418 43.797C190.864 44.1126 190.429 44.5732 190.113 45.1788C189.806 45.7758 189.648 46.4965 189.64 47.3409ZM216.093 39.0505V43.1446H204.259V39.0505H216.093ZM206.945 34.3424H212.396V52.6631C212.396 53.1663 212.472 53.5587 212.626 53.8401C212.779 54.1131 212.993 54.305 213.266 54.4159C213.547 54.5267 213.871 54.5822 214.238 54.5822C214.494 54.5822 214.75 54.5609 215.006 54.5182C215.261 54.467 215.458 54.4287 215.594 54.4031L216.451 58.4587C216.178 58.544 215.795 58.6421 215.3 58.753C214.805 58.8724 214.204 58.9449 213.496 58.9705C212.182 59.0216 211.031 58.8468 210.042 58.4459C209.061 58.045 208.297 57.4224 207.751 56.578C207.206 55.7336 206.937 54.6675 206.945 53.3796V34.3424ZM227.35 59.0856C225.363 59.0856 223.644 58.6634 222.194 57.819C220.753 56.9661 219.64 55.7805 218.855 54.2623C218.071 52.7356 217.678 50.9658 217.678 48.9529C217.678 46.923 218.071 45.1489 218.855 43.6307C219.64 42.104 220.753 40.9184 222.194 40.074C223.644 39.2211 225.363 38.7947 227.35 38.7947C229.338 38.7947 231.052 39.2211 232.493 40.074C233.943 40.9184 235.061 42.104 235.845 43.6307C236.63 45.1489 237.022 46.923 237.022 48.9529C237.022 50.9658 236.63 52.7356 235.845 54.2623C235.061 55.7805 233.943 56.9661 232.493 57.819C231.052 58.6634 229.338 59.0856 227.35 59.0856ZM227.376 54.8637C228.28 54.8637 229.035 54.6078 229.64 54.096C230.246 53.5757 230.702 52.8678 231.009 51.9723C231.325 51.0767 231.483 50.0575 231.483 48.9145C231.483 47.7716 231.325 46.7524 231.009 45.8568C230.702 44.9613 230.246 44.2533 229.64 43.7331C229.035 43.2128 228.28 42.9526 227.376 42.9526C226.463 42.9526 225.696 43.2128 225.073 43.7331C224.459 44.2533 223.994 44.9613 223.679 45.8568C223.371 46.7524 223.218 47.7716 223.218 48.9145C223.218 50.0575 223.371 51.0767 223.679 51.9723C223.994 52.8678 224.459 53.5757 225.073 54.096C225.696 54.6078 226.463 54.8637 227.376 54.8637ZM252.433 47.3409V58.7018H246.983V39.0505H252.177V42.5177H252.408C252.843 41.3747 253.572 40.4707 254.596 39.8054C255.619 39.1316 256.86 38.7947 258.318 38.7947C259.683 38.7947 260.873 39.0932 261.888 39.6902C262.903 40.2873 263.692 41.1402 264.255 42.249C264.818 43.3493 265.099 44.6627 265.099 46.1895V58.7018H259.649V47.1618C259.658 45.9592 259.351 45.021 258.728 44.3472C258.105 43.6648 257.248 43.3237 256.156 43.3237C255.423 43.3237 254.775 43.4815 254.212 43.797C253.657 44.1126 253.222 44.5732 252.907 45.1788C252.6 45.7758 252.442 46.4965 252.433 47.3409ZM274.038 59.0728C272.784 59.0728 271.667 58.8553 270.686 58.4203C269.705 57.9768 268.929 57.3243 268.357 56.4629C267.794 55.5929 267.513 54.5097 267.513 53.2133C267.513 52.1215 267.713 51.2046 268.114 50.4626C268.515 49.7206 269.061 49.1235 269.752 48.6715C270.443 48.2194 271.227 47.8783 272.106 47.648C272.993 47.4177 273.923 47.2556 274.895 47.1618C276.038 47.0424 276.959 46.9315 277.658 46.8292C278.358 46.7183 278.865 46.5562 279.181 46.343C279.496 46.1298 279.654 45.8142 279.654 45.3963V45.3195C279.654 44.5092 279.398 43.8823 278.886 43.4388C278.383 42.9953 277.667 42.7735 276.737 42.7735C275.756 42.7735 274.976 42.991 274.396 43.426C273.816 43.8525 273.432 44.3898 273.244 45.038L268.204 44.6286C268.46 43.4345 268.963 42.4025 269.713 41.5325C270.464 40.654 271.432 39.9802 272.618 39.5111C273.812 39.0335 275.193 38.7947 276.763 38.7947C277.854 38.7947 278.899 38.9226 279.897 39.1785C280.904 39.4344 281.795 39.831 282.571 40.3683C283.356 40.9056 283.974 41.5965 284.426 42.4409C284.878 43.2768 285.104 44.2789 285.104 45.4474V58.7018H279.936V55.9767H279.782C279.466 56.5908 279.044 57.1324 278.515 57.6015C277.987 58.0621 277.351 58.4246 276.609 58.689C275.867 58.9449 275.01 59.0728 274.038 59.0728ZM275.598 55.3114C276.4 55.3114 277.108 55.1536 277.722 54.8381C278.336 54.514 278.818 54.079 279.168 53.5331C279.518 52.9872 279.692 52.3689 279.692 51.678V49.5926C279.522 49.7035 279.287 49.8058 278.989 49.8997C278.699 49.985 278.37 50.066 278.004 50.1427C277.637 50.211 277.27 50.275 276.903 50.3347C276.537 50.3858 276.204 50.4327 275.906 50.4754C275.266 50.5692 274.707 50.7185 274.23 50.9232C273.752 51.1279 273.381 51.4051 273.116 51.7548C272.852 52.0959 272.72 52.5224 272.72 53.0341C272.72 53.7762 272.989 54.3434 273.526 54.7357C274.072 55.1195 274.763 55.3114 275.598 55.3114ZM295.852 58.7018V32.5001H306.189C308.168 32.5001 309.857 32.8541 311.256 33.562C312.663 34.2614 313.733 35.2551 314.467 36.543C315.209 37.8223 315.58 39.3277 315.58 41.0592C315.58 42.7991 315.205 44.296 314.454 45.5498C313.703 46.795 312.616 47.7503 311.192 48.4156C309.776 49.0809 308.061 49.4135 306.048 49.4135H299.127V44.9613H305.153C306.211 44.9613 307.089 44.8163 307.788 44.5263C308.488 44.2363 309.008 43.8013 309.349 43.2213C309.699 42.6413 309.874 41.9206 309.874 41.0592C309.874 40.1892 309.699 39.4557 309.349 38.8586C309.008 38.2616 308.484 37.8096 307.776 37.5025C307.076 37.1869 306.193 37.0291 305.127 37.0291H301.392V58.7018H295.852ZM310.002 46.778L316.514 58.7018H310.398L304.027 46.778H310.002ZM327.071 59.0856C325.049 59.0856 323.309 58.6762 321.851 57.8574C320.401 57.0301 319.284 55.8616 318.499 54.3519C317.714 52.8337 317.322 51.0383 317.322 48.9657C317.322 46.9443 317.714 45.1702 318.499 43.6435C319.284 42.1168 320.388 40.927 321.812 40.074C323.245 39.2211 324.926 38.7947 326.853 38.7947C328.15 38.7947 329.356 39.0036 330.474 39.4216C331.6 39.831 332.58 40.4493 333.416 41.2767C334.261 42.104 334.917 43.1446 335.387 44.3983C335.856 45.6436 336.09 47.1021 336.09 48.7738V50.2707H319.497V46.8931H330.96C330.96 46.1084 330.789 45.4133 330.448 44.8077C330.107 44.2022 329.634 43.7288 329.028 43.3876C328.431 43.0379 327.736 42.8631 326.943 42.8631C326.115 42.8631 325.382 43.055 324.742 43.4388C324.111 43.8141 323.616 44.3216 323.258 44.9613C322.9 45.5924 322.716 46.2961 322.708 47.0722V50.2835C322.708 51.2558 322.887 52.0959 323.245 52.8039C323.612 53.5118 324.128 54.0576 324.793 54.4415C325.459 54.8253 326.248 55.0172 327.16 55.0172C327.766 55.0172 328.32 54.9319 328.823 54.7613C329.327 54.5907 329.757 54.3348 330.116 53.9937C330.474 53.6525 330.747 53.2346 330.934 52.7399L335.975 53.0725C335.719 54.2837 335.195 55.3413 334.401 56.2454C333.617 57.1409 332.602 57.8403 331.357 58.3436C330.12 58.8382 328.691 59.0856 327.071 59.0856ZM349.139 39.0505V43.1446H337.304V39.0505H349.139ZM339.991 34.3424H345.441V52.6631C345.441 53.1663 345.518 53.5587 345.672 53.8401C345.825 54.1131 346.038 54.305 346.311 54.4159C346.593 54.5267 346.917 54.5822 347.284 54.5822C347.539 54.5822 347.795 54.5609 348.051 54.5182C348.307 54.467 348.503 54.4287 348.64 54.4031L349.497 58.4587C349.224 58.544 348.84 58.6421 348.346 58.753C347.851 58.8724 347.25 58.9449 346.542 58.9705C345.228 59.0216 344.077 58.8468 343.087 58.4459C342.106 58.045 341.343 57.4224 340.797 56.578C340.251 55.7336 339.983 54.6675 339.991 53.3796V34.3424ZM351.728 58.7018V39.0505H357.178V58.7018H351.728ZM354.466 36.5174C353.656 36.5174 352.961 36.2487 352.381 35.7114C351.809 35.1655 351.524 34.513 351.524 33.7539C351.524 33.0034 351.809 32.3594 352.381 31.8221C352.961 31.2762 353.656 31.0033 354.466 31.0033C355.276 31.0033 355.967 31.2762 356.539 31.8221C357.119 32.3594 357.409 33.0034 357.409 33.7539C357.409 34.513 357.119 35.1655 356.539 35.7114C355.967 36.2487 355.276 36.5174 354.466 36.5174ZM360.584 58.7018V39.0505H365.867V42.4793H366.072C366.43 41.2596 367.032 40.3385 367.876 39.7158C368.72 39.0847 369.693 38.7691 370.793 38.7691C371.066 38.7691 371.36 38.7861 371.676 38.8203C371.991 38.8544 372.269 38.9013 372.507 38.961V43.797C372.251 43.7203 371.898 43.652 371.445 43.5923C370.993 43.5326 370.58 43.5028 370.204 43.5028C369.403 43.5028 368.686 43.6776 368.055 44.0273C367.432 44.3685 366.938 44.8461 366.571 45.4602C366.213 46.0743 366.034 46.7823 366.034 47.584V58.7018H360.584ZM379.405 59.0728C378.151 59.0728 377.034 58.8553 376.053 58.4203C375.072 57.9768 374.296 57.3243 373.725 56.4629C373.162 55.5929 372.88 54.5097 372.88 53.2133C372.88 52.1215 373.081 51.2046 373.482 50.4626C373.883 49.7206 374.428 49.1235 375.119 48.6715C375.81 48.2194 376.595 47.8783 377.473 47.648C378.36 47.4177 379.29 47.2556 380.262 47.1618C381.405 47.0424 382.326 46.9315 383.026 46.8292C383.725 46.7183 384.233 46.5562 384.548 46.343C384.864 46.1298 385.022 45.8142 385.022 45.3963V45.3195C385.022 44.5092 384.766 43.8823 384.254 43.4388C383.751 42.9953 383.034 42.7735 382.105 42.7735C381.124 42.7735 380.343 42.991 379.763 43.426C379.183 43.8525 378.8 44.3898 378.612 45.038L373.571 44.6286C373.827 43.4345 374.33 42.4025 375.081 41.5325C375.831 40.654 376.8 39.9802 377.985 39.5111C379.179 39.0335 380.561 38.7947 382.13 38.7947C383.222 38.7947 384.267 38.9226 385.265 39.1785C386.271 39.4344 387.162 39.831 387.939 40.3683C388.723 40.9056 389.342 41.5965 389.794 42.4409C390.246 43.2768 390.472 44.2789 390.472 45.4474V58.7018H385.303V55.9767H385.15C384.834 56.5908 384.412 57.1324 383.883 57.6015C383.354 58.0621 382.719 58.4246 381.977 58.689C381.235 58.9449 380.378 59.0728 379.405 59.0728ZM380.966 55.3114C381.768 55.3114 382.476 55.1536 383.09 54.8381C383.704 54.514 384.186 54.079 384.536 53.5331C384.885 52.9872 385.06 52.3689 385.06 51.678V49.5926C384.889 49.7035 384.655 49.8058 384.356 49.8997C384.066 49.985 383.738 50.066 383.371 50.1427C383.005 50.211 382.638 50.275 382.271 50.3347C381.904 50.3858 381.572 50.4327 381.273 50.4754C380.633 50.5692 380.075 50.7185 379.597 50.9232C379.119 51.1279 378.748 51.4051 378.484 51.7548C378.22 52.0959 378.087 52.5224 378.087 53.0341C378.087 53.7762 378.356 54.3434 378.893 54.7357C379.439 55.1195 380.13 55.3114 380.966 55.3114ZM400.981 59.0216C399.488 59.0216 398.136 58.6378 396.925 57.8702C395.722 57.094 394.767 55.9554 394.059 54.4542C393.36 52.9446 393.01 51.0938 393.01 48.9018C393.01 46.65 393.373 44.7779 394.098 43.2853C394.823 41.7842 395.786 40.6626 396.989 39.9205C398.2 39.17 399.526 38.7947 400.968 38.7947C402.068 38.7947 402.985 38.9823 403.719 39.3576C404.461 39.7244 405.058 40.1849 405.51 40.7393C405.97 41.2852 406.32 41.8225 406.559 42.3513H406.725V32.5001H412.162V58.7018H406.789V55.5545H406.559C406.303 56.1004 405.94 56.642 405.471 57.1793C405.011 57.7081 404.409 58.1474 403.667 58.4971C402.934 58.8468 402.038 59.0216 400.981 59.0216ZM402.708 54.6845C403.586 54.6845 404.328 54.4457 404.934 53.9681C405.548 53.4819 406.017 52.8039 406.341 51.9339C406.674 51.0639 406.84 50.0447 406.84 48.8762C406.84 47.7077 406.678 46.6927 406.354 45.8312C406.03 44.9698 405.561 44.3045 404.947 43.8354C404.333 43.3663 403.586 43.1318 402.708 43.1318C401.812 43.1318 401.057 43.3748 400.443 43.861C399.829 44.3472 399.364 45.021 399.049 45.8824C398.733 46.7439 398.575 47.7418 398.575 48.8762C398.575 50.0191 398.733 51.0298 399.049 51.9083C399.373 52.7783 399.838 53.4606 400.443 53.9553C401.057 54.4415 401.812 54.6845 402.708 54.6845ZM421.286 59.0728C420.033 59.0728 418.915 58.8553 417.934 58.4203C416.954 57.9768 416.177 57.3243 415.606 56.4629C415.043 55.5929 414.762 54.5097 414.762 53.2133C414.762 52.1215 414.962 51.2046 415.363 50.4626C415.764 49.7206 416.31 49.1235 417.001 48.6715C417.691 48.2194 418.476 47.8783 419.355 47.648C420.242 47.4177 421.171 47.2556 422.144 47.1618C423.287 47.0424 424.208 46.9315 424.907 46.8292C425.606 46.7183 426.114 46.5562 426.43 46.343C426.745 46.1298 426.903 45.8142 426.903 45.3963V45.3195C426.903 44.5092 426.647 43.8823 426.135 43.4388C425.632 42.9953 424.916 42.7735 423.986 42.7735C423.005 42.7735 422.225 42.991 421.645 43.426C421.065 43.8525 420.681 44.3898 420.493 45.038L415.452 44.6286C415.708 43.4345 416.212 42.4025 416.962 41.5325C417.713 40.654 418.681 39.9802 419.866 39.5111C421.06 39.0335 422.442 38.7947 424.012 38.7947C425.103 38.7947 426.148 38.9226 427.146 39.1785C428.152 39.4344 429.044 39.831 429.82 40.3683C430.605 40.9056 431.223 41.5965 431.675 42.4409C432.127 43.2768 432.353 44.2789 432.353 45.4474V58.7018H427.184V55.9767H427.031C426.715 56.5908 426.293 57.1324 425.764 57.6015C425.235 58.0621 424.6 58.4246 423.858 58.689C423.116 58.9449 422.259 59.0728 421.286 59.0728ZM422.847 55.3114C423.649 55.3114 424.357 55.1536 424.971 54.8381C425.585 54.514 426.067 54.079 426.417 53.5331C426.766 52.9872 426.941 52.3689 426.941 51.678V49.5926C426.771 49.7035 426.536 49.8058 426.238 49.8997C425.948 49.985 425.619 50.066 425.252 50.1427C424.886 50.211 424.519 50.275 424.152 50.3347C423.785 50.3858 423.453 50.4327 423.154 50.4754C422.515 50.5692 421.956 50.7185 421.478 50.9232C421.001 51.1279 420.63 51.4051 420.365 51.7548C420.101 52.0959 419.969 52.5224 419.969 53.0341C419.969 53.7762 420.237 54.3434 420.775 54.7357C421.321 55.1195 422.011 55.3114 422.847 55.3114Z" fill="white"/>
</svg>
