<svg width="855" height="93" viewBox="0 0 855 93" fill="none" xmlns="http://www.w3.org/2000/svg">
<rect width="854.191" height="93" rx="46.5" fill="black"/>
<rect x="560.586" y="11.603" width="276.543" height="68.3027" rx="34.1513" fill="white"/>
<rect x="566.277" y="16.5005" width="141.801" height="58.268" rx="29.134" fill="#FF3000"/>
<path d="M624.527 40.831C624.446 40.0158 624.099 39.3825 623.486 38.931C622.873 38.4796 622.041 38.2539 620.99 38.2539C620.276 38.2539 619.673 38.355 619.181 38.5571C618.689 38.7525 618.312 39.0254 618.049 39.3757C617.793 39.7261 617.665 40.1236 617.665 40.5683C617.651 40.9388 617.729 41.2622 617.897 41.5385C618.072 41.8147 618.312 42.0539 618.615 42.256C618.918 42.4514 619.268 42.6232 619.666 42.7714C620.063 42.9129 620.488 43.0342 620.939 43.1353L622.799 43.58C623.702 43.7821 624.53 44.0516 625.285 44.3885C626.04 44.7253 626.693 45.1397 627.246 45.6315C627.798 46.1234 628.226 46.7028 628.529 47.3698C628.839 48.0368 628.997 48.8016 629.004 49.664C628.997 50.9306 628.674 52.0288 628.034 52.9586C627.401 53.8817 626.484 54.5992 625.285 55.1113C624.092 55.6166 622.654 55.8693 620.97 55.8693C619.299 55.8693 617.843 55.6132 616.604 55.1012C615.371 54.5891 614.407 53.8311 613.713 52.8272C613.026 51.8166 612.666 50.5668 612.632 49.0778H616.866C616.914 49.7718 617.112 50.3512 617.463 50.8161C617.82 51.2742 618.295 51.6212 618.888 51.857C619.487 52.0861 620.164 52.2007 620.919 52.2007C621.66 52.2007 622.304 52.0929 622.849 51.8773C623.402 51.6617 623.83 51.3618 624.133 50.9778C624.436 50.5937 624.588 50.1524 624.588 49.6539C624.588 49.189 624.45 48.7982 624.173 48.4815C623.904 48.1649 623.506 47.8954 622.981 47.673C622.462 47.4507 621.825 47.2486 621.071 47.0666L618.817 46.5007C617.072 46.0762 615.694 45.4126 614.683 44.5097C613.673 43.6069 613.171 42.3908 613.178 40.8613C613.171 39.6082 613.504 38.5133 614.178 37.5768C614.859 36.6403 615.792 35.9092 616.978 35.3837C618.163 34.8582 619.511 34.5954 621.02 34.5954C622.556 34.5954 623.897 34.8582 625.042 35.3837C626.195 35.9092 627.091 36.6403 627.731 37.5768C628.371 38.5133 628.701 39.5981 628.721 40.831H624.527ZM631.108 55.5762V40.0528H635.413V55.5762H631.108ZM633.271 38.0518C632.631 38.0518 632.081 37.8396 631.623 37.4151C631.172 36.9839 630.946 36.4685 630.946 35.8688C630.946 35.2759 631.172 34.7672 631.623 34.3428C632.081 33.9116 632.631 33.696 633.271 33.696C633.911 33.696 634.456 33.9116 634.908 34.3428C635.366 34.7672 635.595 35.2759 635.595 35.8688C635.595 36.4685 635.366 36.9839 634.908 37.4151C634.456 37.8396 633.911 38.0518 633.271 38.0518ZM638.103 55.5762V40.0528H642.206V42.7917H642.388C642.712 41.8821 643.251 41.1645 644.005 40.639C644.76 40.1135 645.663 39.8507 646.714 39.8507C647.778 39.8507 648.684 40.1168 649.432 40.6491C650.18 41.1746 650.679 41.8888 650.928 42.7917H651.09C651.406 41.9023 651.979 41.1915 652.808 40.6592C653.643 40.1202 654.63 39.8507 655.769 39.8507C657.217 39.8507 658.393 40.3122 659.296 41.2353C660.206 42.1516 660.66 43.4519 660.66 45.1363V55.5762H656.365V45.9853C656.365 45.1229 656.136 44.476 655.678 44.0448C655.22 43.6136 654.647 43.398 653.96 43.398C653.178 43.398 652.569 43.6473 652.131 44.1459C651.693 44.6377 651.474 45.2879 651.474 46.0964V55.5762H647.3V45.8943C647.3 45.133 647.081 44.5266 646.643 44.0752C646.212 43.6237 645.642 43.398 644.935 43.398C644.457 43.398 644.025 43.5193 643.641 43.7619C643.264 43.9977 642.964 44.3312 642.742 44.7624C642.52 45.1869 642.408 45.6854 642.408 46.2581V55.5762H638.103Z" fill="white"/>
<path d="M755.681 34.8784V55.5762H751.902L742.897 42.5491H742.745V55.5762H738.369V34.8784H742.21L751.144 47.8954H751.326V34.8784H755.681ZM762.884 55.8693C761.893 55.8693 761.011 55.6974 760.236 55.3538C759.461 55.0035 758.848 54.4881 758.397 53.8076C757.952 53.1203 757.73 52.2647 757.73 51.2406C757.73 50.3781 757.888 49.6539 758.205 49.0677C758.521 48.4815 758.952 48.0099 759.498 47.6528C760.044 47.2957 760.664 47.0262 761.358 46.8443C762.058 46.6624 762.793 46.5344 763.561 46.4603C764.464 46.3659 765.191 46.2783 765.744 46.1975C766.296 46.1099 766.697 45.9819 766.946 45.8135C767.196 45.645 767.32 45.3957 767.32 45.0656V45.0049C767.32 44.3649 767.118 43.8697 766.714 43.5193C766.317 43.169 765.751 42.9938 765.016 42.9938C764.241 42.9938 763.625 43.1656 763.167 43.5092C762.709 43.8461 762.405 44.2706 762.257 44.7826L758.275 44.4592C758.477 43.5159 758.875 42.7007 759.468 42.0135C760.061 41.3195 760.825 40.7872 761.762 40.4167C762.705 40.0394 763.797 39.8507 765.036 39.8507C765.899 39.8507 766.724 39.9518 767.512 40.1539C768.307 40.356 769.012 40.6693 769.625 41.0938C770.245 41.5183 770.733 42.064 771.09 42.731C771.447 43.3913 771.626 44.183 771.626 45.106V55.5762H767.543V53.4235H767.421C767.172 53.9086 766.839 54.3365 766.421 54.707C766.003 55.0709 765.501 55.3572 764.915 55.5661C764.329 55.7682 763.652 55.8693 762.884 55.8693ZM764.117 52.898C764.75 52.898 765.309 52.7733 765.794 52.5241C766.279 52.268 766.66 51.9244 766.936 51.4932C767.213 51.062 767.351 50.5735 767.351 50.0278V48.3805C767.216 48.468 767.031 48.5489 766.795 48.623C766.566 48.6904 766.306 48.7544 766.017 48.815C765.727 48.8689 765.437 48.9195 765.148 48.9666C764.858 49.0071 764.595 49.0441 764.359 49.0778C763.854 49.1519 763.413 49.2698 763.035 49.4315C762.658 49.5932 762.365 49.8122 762.156 50.0884C761.947 50.3579 761.843 50.6948 761.843 51.0991C761.843 51.6852 762.055 52.1333 762.479 52.4432C762.911 52.7464 763.456 52.898 764.117 52.898ZM762.308 38.1427L759.912 38.1124C759.912 36.8255 760.229 35.8385 760.862 35.1513C761.503 34.464 762.281 34.1171 763.197 34.1103C763.669 34.1103 764.073 34.1878 764.41 34.3428C764.753 34.491 765.06 34.6662 765.329 34.8683C765.606 35.0704 765.868 35.249 766.118 35.4039C766.367 35.5522 766.637 35.6263 766.926 35.6263C767.317 35.6195 767.614 35.4747 767.816 35.1917C768.024 34.902 768.129 34.5247 768.129 34.0598L770.484 34.1305C770.47 35.4039 770.147 36.3876 769.513 37.0816C768.88 37.7688 768.109 38.1158 767.199 38.1225C766.694 38.1225 766.269 38.0484 765.926 37.9002C765.589 37.7452 765.292 37.57 765.036 37.3747C764.78 37.1725 764.531 36.994 764.289 36.839C764.046 36.6841 763.773 36.6066 763.47 36.6066C763.12 36.6066 762.837 36.7447 762.621 37.0209C762.412 37.2972 762.308 37.6711 762.308 38.1427ZM781.221 55.8794C779.651 55.8794 778.293 55.5459 777.148 54.8788C776.009 54.2051 775.13 53.2686 774.51 52.0693C773.89 50.8633 773.58 49.4652 773.58 47.8751C773.58 46.2716 773.89 44.8702 774.51 43.6709C775.13 42.4649 776.009 41.5284 777.148 40.8613C778.293 40.1876 779.651 39.8507 781.221 39.8507C782.791 39.8507 784.145 40.1876 785.283 40.8613C786.429 41.5284 787.311 42.4649 787.931 43.6709C788.551 44.8702 788.861 46.2716 788.861 47.8751C788.861 49.4652 788.551 50.8633 787.931 52.0693C787.311 53.2686 786.429 54.2051 785.283 54.8788C784.145 55.5459 782.791 55.8794 781.221 55.8794ZM781.241 52.5443C781.955 52.5443 782.551 52.3421 783.03 51.9379C783.508 51.5269 783.869 50.9677 784.111 50.2602C784.36 49.5528 784.485 48.7477 784.485 47.8448C784.485 46.942 784.36 46.1369 784.111 45.4294C783.869 44.722 783.508 44.1627 783.03 43.7518C782.551 43.3408 781.955 43.1353 781.241 43.1353C780.52 43.1353 779.914 43.3408 779.422 43.7518C778.937 44.1627 778.57 44.722 778.32 45.4294C778.078 46.1369 777.956 46.942 777.956 47.8448C777.956 48.7477 778.078 49.5528 778.32 50.2602C778.57 50.9677 778.937 51.5269 779.422 51.9379C779.914 52.3421 780.52 52.5443 781.241 52.5443Z" fill="#888888"/>
<path d="M62.3817 57.5762V30.0833H73.2285C75.3137 30.0833 77.0902 30.4816 78.5579 31.2781C80.0256 32.0657 81.1443 33.162 81.914 34.567C82.6926 35.9632 83.0819 37.5741 83.0819 39.3998C83.0819 41.2255 82.6881 42.8364 81.9005 44.2325C81.113 45.6286 79.9719 46.716 78.4774 47.4946C76.9917 48.2732 75.1929 48.6625 73.0808 48.6625H66.1673V44.0043H72.1411C73.2598 44.0043 74.1816 43.8119 74.9065 43.427C75.6404 43.0333 76.1863 42.4918 76.5443 41.8027C76.9112 41.1046 77.0947 40.3037 77.0947 39.3998C77.0947 38.4869 76.9112 37.6904 76.5443 37.0102C76.1863 36.3211 75.6404 35.7886 74.9065 35.4128C74.1727 35.0279 73.2419 34.8355 72.1143 34.8355H68.1944V57.5762H62.3817ZM92.0761 57.9655C90.7605 57.9655 89.5881 57.7373 88.559 57.2808C87.5298 56.8155 86.7154 56.1308 86.1157 55.2269C85.5251 54.3141 85.2297 53.1775 85.2297 51.8172C85.2297 50.6716 85.4401 49.7096 85.8607 48.931C86.2813 48.1524 86.8541 47.5259 87.579 47.0516C88.3039 46.5772 89.1273 46.2193 90.049 45.9776C90.9798 45.736 91.9553 45.566 92.9755 45.4675C94.1748 45.3422 95.1413 45.2259 95.8752 45.1185C96.609 45.0021 97.1415 44.8321 97.4726 44.6084C97.8038 44.3846 97.9693 44.0535 97.9693 43.615V43.5344C97.9693 42.6842 97.7009 42.0264 97.1639 41.5611C96.6359 41.0957 95.8841 40.863 94.9086 40.863C93.8794 40.863 93.0606 41.0912 92.452 41.5476C91.8434 41.9951 91.4407 42.5589 91.2438 43.2391L85.9547 42.8095C86.2231 41.5566 86.7512 40.4737 87.5387 39.5608C88.3263 38.6391 89.342 37.932 90.586 37.4398C91.8389 36.9386 93.2888 36.6881 94.9355 36.6881C96.081 36.6881 97.1773 36.8223 98.2244 37.0908C99.2804 37.3593 100.216 37.7754 101.03 38.3392C101.853 38.9031 102.502 39.628 102.977 40.514C103.451 41.391 103.688 42.4426 103.688 43.6687V57.5762H98.2647V54.7168H98.1036C97.7725 55.3612 97.3295 55.9295 96.7746 56.4217C96.2197 56.905 95.553 57.2853 94.7744 57.5627C93.9958 57.8312 93.0963 57.9655 92.0761 57.9655ZM93.7139 54.0187C94.5551 54.0187 95.2979 53.8532 95.9423 53.5221C96.5866 53.182 97.0923 52.7255 97.4592 52.1528C97.8262 51.58 98.0096 50.9312 98.0096 50.2063V48.0181C97.8306 48.1345 97.5845 48.2419 97.2713 48.3403C96.967 48.4298 96.6224 48.5148 96.2376 48.5954C95.8528 48.667 95.468 48.7341 95.0831 48.7967C94.6983 48.8504 94.3493 48.8996 94.036 48.9444C93.3648 49.0428 92.7786 49.1994 92.2775 49.4142C91.7763 49.629 91.387 49.9199 91.1096 50.2868C90.8321 50.6448 90.6934 51.0923 90.6934 51.6292C90.6934 52.4078 90.9753 53.003 91.5391 53.4147C92.1119 53.8174 92.8368 54.0187 93.7139 54.0187ZM117.414 65.7381C115.562 65.7381 113.973 65.483 112.649 64.9729C111.333 64.4718 110.286 63.7871 109.507 62.919C108.729 62.0509 108.223 61.0754 107.991 59.9925L113.28 59.281C113.441 59.6927 113.696 60.0776 114.045 60.4355C114.394 60.7935 114.855 61.0799 115.428 61.2947C116.009 61.5184 116.716 61.6303 117.549 61.6303C118.793 61.6303 119.817 61.326 120.623 60.7174C121.437 60.1178 121.844 59.111 121.844 57.697V53.9248H121.603C121.352 54.4975 120.976 55.039 120.475 55.5491C119.974 56.0592 119.33 56.4754 118.542 56.7976C117.754 57.1197 116.815 57.2808 115.723 57.2808C114.175 57.2808 112.765 56.9229 111.494 56.2069C110.232 55.482 109.226 54.3767 108.474 52.8911C107.731 51.3965 107.36 49.5082 107.36 47.2261C107.36 44.8903 107.74 42.9393 108.501 41.3731C109.261 39.807 110.273 38.6346 111.535 37.856C112.805 37.0774 114.197 36.6881 115.709 36.6881C116.864 36.6881 117.831 36.885 118.609 37.2787C119.388 37.6636 120.014 38.1468 120.488 38.7285C120.972 39.3013 121.343 39.8651 121.603 40.42H121.817V36.9565H127.496V57.7775C127.496 59.5316 127.066 60.9994 126.207 62.1807C125.348 63.362 124.158 64.248 122.636 64.8387C121.124 65.4383 119.383 65.7381 117.414 65.7381ZM117.535 52.9851C118.457 52.9851 119.236 52.7569 119.871 52.3004C120.515 51.8351 121.008 51.1728 121.348 50.3137C121.697 49.4456 121.871 48.4074 121.871 47.1992C121.871 45.9911 121.701 44.944 121.361 44.058C121.021 43.163 120.529 42.4694 119.884 41.9772C119.24 41.485 118.457 41.2389 117.535 41.2389C116.595 41.2389 115.803 41.4939 115.159 42.0041C114.515 42.5052 114.027 43.2033 113.696 44.0982C113.365 44.9932 113.199 46.0269 113.199 47.1992C113.199 48.3895 113.365 49.4187 113.696 50.2868C114.036 51.146 114.524 51.8127 115.159 52.287C115.803 52.7524 116.595 52.9851 117.535 52.9851ZM137.927 57.9655C136.611 57.9655 135.439 57.7373 134.409 57.2808C133.38 56.8155 132.566 56.1308 131.966 55.2269C131.376 54.3141 131.08 53.1775 131.08 51.8172C131.08 50.6716 131.291 49.7096 131.711 48.931C132.132 48.1524 132.705 47.5259 133.429 47.0516C134.154 46.5772 134.978 46.2193 135.9 45.9776C136.83 45.736 137.806 45.566 138.826 45.4675C140.025 45.3422 140.992 45.2259 141.726 45.1185C142.459 45.0021 142.992 44.8321 143.323 44.6084C143.654 44.3846 143.82 44.0535 143.82 43.615V43.5344C143.82 42.6842 143.551 42.0264 143.014 41.5611C142.486 41.0957 141.735 40.863 140.759 40.863C139.73 40.863 138.911 41.0912 138.302 41.5476C137.694 41.9951 137.291 42.5589 137.094 43.2391L131.805 42.8095C132.074 41.5566 132.602 40.4737 133.389 39.5608C134.177 38.6391 135.193 37.932 136.436 37.4398C137.689 36.9386 139.139 36.6881 140.786 36.6881C141.931 36.6881 143.028 36.8223 144.075 37.0908C145.131 37.3593 146.066 37.7754 146.881 38.3392C147.704 38.9031 148.353 39.628 148.827 40.514C149.301 41.391 149.539 42.4426 149.539 43.6687V57.5762H144.115V54.7168H143.954C143.623 55.3612 143.18 55.9295 142.625 56.4217C142.07 56.905 141.403 57.2853 140.625 57.5627C139.846 57.8312 138.947 57.9655 137.927 57.9655ZM139.564 54.0187C140.406 54.0187 141.148 53.8532 141.793 53.5221C142.437 53.182 142.943 52.7255 143.31 52.1528C143.677 51.58 143.86 50.9312 143.86 50.2063V48.0181C143.681 48.1345 143.435 48.2419 143.122 48.3403C142.817 48.4298 142.473 48.5148 142.088 48.5954C141.703 48.667 141.318 48.7341 140.934 48.7967C140.549 48.8504 140.2 48.8996 139.887 48.9444C139.215 49.0428 138.629 49.1994 138.128 49.4142C137.627 49.629 137.237 49.9199 136.96 50.2868C136.683 50.6448 136.544 51.0923 136.544 51.6292C136.544 52.4078 136.826 53.003 137.39 53.4147C137.962 53.8174 138.687 54.0187 139.564 54.0187ZM153.975 57.5762V36.9565H159.425V40.5945H159.667C160.097 39.3863 160.813 38.4332 161.815 37.7352C162.817 37.0371 164.017 36.6881 165.413 36.6881C166.827 36.6881 168.03 37.0416 169.024 37.7486C170.017 38.4466 170.679 39.3953 171.011 40.5945H171.225C171.646 39.4132 172.407 38.469 173.508 37.762C174.617 37.046 175.928 36.6881 177.441 36.6881C179.365 36.6881 180.927 37.3011 182.126 38.5272C183.334 39.7443 183.938 41.4716 183.938 43.7089V57.5762H178.233V44.8366C178.233 43.691 177.929 42.8319 177.32 42.2591C176.711 41.6864 175.951 41.4 175.038 41.4C174 41.4 173.19 41.7311 172.608 42.3934C172.026 43.0467 171.736 43.9103 171.736 44.9842V57.5762H166.191V44.7158C166.191 43.7045 165.9 42.899 165.319 42.2994C164.746 41.6998 163.99 41.4 163.05 41.4C162.415 41.4 161.842 41.5611 161.332 41.8832C160.831 42.1965 160.432 42.6395 160.137 43.2122C159.842 43.7761 159.694 44.4383 159.694 45.199V57.5762H153.975ZM197.852 57.9789C195.731 57.9789 193.906 57.5493 192.375 56.6902C190.854 55.8221 189.681 54.596 188.858 53.0119C188.035 51.4189 187.623 49.5351 187.623 47.3603C187.623 45.2393 188.035 43.3778 188.858 41.7758C189.681 40.1739 190.84 38.9254 192.335 38.0305C193.839 37.1355 195.602 36.6881 197.624 36.6881C198.984 36.6881 200.251 36.9073 201.423 37.3459C202.605 37.7754 203.634 38.4243 204.511 39.2924C205.397 40.1605 206.086 41.2523 206.578 42.5679C207.07 43.8745 207.316 45.4049 207.316 47.159V48.7296H189.905V45.1856H201.933C201.933 44.3623 201.754 43.6329 201.396 42.9975C201.038 42.362 200.542 41.8653 199.906 41.5074C199.28 41.1404 198.55 40.957 197.718 40.957C196.85 40.957 196.08 41.1583 195.409 41.5611C194.747 41.9548 194.228 42.4873 193.852 43.1585C193.476 43.8208 193.284 44.5591 193.275 45.3735V48.743C193.275 49.7633 193.463 50.6448 193.839 51.3876C194.223 52.1304 194.765 52.7032 195.463 53.1059C196.161 53.5086 196.989 53.71 197.946 53.71C198.582 53.71 199.163 53.6205 199.691 53.4415C200.22 53.2625 200.671 52.994 201.047 52.6361C201.423 52.2781 201.71 51.8395 201.906 51.3205L207.196 51.6695C206.927 52.9403 206.377 54.0501 205.544 54.9987C204.721 55.9384 203.656 56.6723 202.349 57.2003C201.052 57.7194 199.553 57.9789 197.852 57.9789ZM216.767 45.6555V57.5762H211.048V36.9565H216.499V40.5945H216.74C217.197 39.3953 217.962 38.4466 219.036 37.7486C220.11 37.0416 221.412 36.6881 222.942 36.6881C224.374 36.6881 225.623 37.0013 226.688 37.6278C227.753 38.2542 228.58 39.1492 229.171 40.3126C229.762 41.4671 230.057 42.8453 230.057 44.4473V57.5762H224.338V45.4675C224.347 44.2056 224.025 43.2212 223.372 42.5142C222.719 41.7982 221.819 41.4402 220.674 41.4402C219.904 41.4402 219.224 41.6058 218.633 41.9369C218.051 42.2681 217.595 42.7513 217.264 43.3868C216.942 44.0132 216.776 44.7695 216.767 45.6555ZM245.532 36.9565V41.2523H233.114V36.9565H245.532ZM235.934 32.0164H241.652V51.2399C241.652 51.768 241.733 52.1796 241.894 52.475C242.055 52.7613 242.279 52.9627 242.565 53.0791C242.86 53.1954 243.201 53.2536 243.585 53.2536C243.854 53.2536 244.122 53.2312 244.391 53.1864C244.659 53.1328 244.865 53.0925 245.008 53.0656L245.908 57.3211C245.621 57.4106 245.219 57.5135 244.7 57.6299C244.181 57.7552 243.55 57.8312 242.807 57.8581C241.429 57.9118 240.22 57.7283 239.182 57.3077C238.153 56.8871 237.352 56.2337 236.779 55.3477C236.207 54.4617 235.925 53.3431 235.934 51.9917V32.0164ZM258.352 57.9789C256.267 57.9789 254.463 57.5359 252.942 56.6499C251.43 55.755 250.262 54.511 249.438 52.918C248.615 51.316 248.203 49.459 248.203 47.3469C248.203 45.2169 248.615 43.3554 249.438 41.7624C250.262 40.1605 251.43 38.9165 252.942 38.0305C254.463 37.1355 256.267 36.6881 258.352 36.6881C260.437 36.6881 262.236 37.1355 263.749 38.0305C265.27 38.9165 266.442 40.1605 267.266 41.7624C268.089 43.3554 268.501 45.2169 268.501 47.3469C268.501 49.459 268.089 51.316 267.266 52.918C266.442 54.511 265.27 55.755 263.749 56.6499C262.236 57.5359 260.437 57.9789 258.352 57.9789ZM258.379 53.5489C259.328 53.5489 260.12 53.2804 260.755 52.7434C261.39 52.1975 261.869 51.4547 262.191 50.515C262.522 49.5753 262.688 48.5059 262.688 47.3066C262.688 46.1074 262.522 45.0379 262.191 44.0982C261.869 43.1585 261.39 42.4157 260.755 41.8698C260.12 41.3239 259.328 41.0509 258.379 41.0509C257.421 41.0509 256.616 41.3239 255.963 41.8698C255.318 42.4157 254.83 43.1585 254.499 44.0982C254.177 45.0379 254.016 46.1074 254.016 47.3066C254.016 48.5059 254.177 49.5753 254.499 50.515C254.83 51.4547 255.318 52.1975 255.963 52.7434C256.616 53.2804 257.421 53.5489 258.379 53.5489ZM290.822 57.5762H281.076V30.0833H290.902C293.668 30.0833 296.048 30.6337 298.044 31.7345C300.04 32.8264 301.575 34.397 302.649 36.4464C303.732 38.4959 304.273 40.948 304.273 43.8029C304.273 46.6667 303.732 49.1279 302.649 51.1862C301.575 53.2446 300.031 54.8242 298.017 55.925C296.013 57.0258 293.614 57.5762 290.822 57.5762ZM286.889 52.5958H290.58C292.299 52.5958 293.744 52.2915 294.916 51.6829C296.098 51.0654 296.984 50.1123 297.574 48.8236C298.174 47.5259 298.474 45.8523 298.474 43.8029C298.474 41.7714 298.174 40.1112 297.574 38.8225C296.984 37.5338 296.102 36.5851 294.93 35.9766C293.757 35.368 292.312 35.0637 290.594 35.0637H286.889V52.5958ZM308.471 57.5762V36.9565H314.19V57.5762H308.471ZM311.344 34.2985C310.494 34.2985 309.765 34.0166 309.156 33.4528C308.556 32.8801 308.257 32.1954 308.257 31.3989C308.257 30.6114 308.556 29.9357 309.156 29.3719C309.765 28.7991 310.494 28.5127 311.344 28.5127C312.194 28.5127 312.919 28.7991 313.519 29.3719C314.127 29.9357 314.432 30.6114 314.432 31.3989C314.432 32.1954 314.127 32.8801 313.519 33.4528C312.919 34.0166 312.194 34.2985 311.344 34.2985ZM328.061 65.7381C326.208 65.7381 324.62 65.483 323.295 64.9729C321.98 64.4718 320.932 63.7871 320.154 62.919C319.375 62.0509 318.87 61.0754 318.637 59.9925L323.926 59.281C324.087 59.6927 324.342 60.0776 324.691 60.4355C325.04 60.7935 325.501 61.0799 326.074 61.2947C326.656 61.5184 327.363 61.6303 328.195 61.6303C329.439 61.6303 330.464 61.326 331.269 60.7174C332.083 60.1178 332.491 59.111 332.491 57.697V53.9248H332.249C331.998 54.4975 331.623 55.039 331.121 55.5491C330.62 56.0592 329.976 56.4754 329.188 56.7976C328.401 57.1197 327.461 57.2808 326.369 57.2808C324.821 57.2808 323.411 56.9229 322.141 56.2069C320.879 55.482 319.872 54.3767 319.12 52.8911C318.377 51.3965 318.006 49.5082 318.006 47.2261C318.006 44.8903 318.386 42.9393 319.147 41.3731C319.908 39.807 320.919 38.6346 322.181 37.856C323.452 37.0774 324.843 36.6881 326.356 36.6881C327.51 36.6881 328.477 36.885 329.255 37.2787C330.034 37.6636 330.661 38.1468 331.135 38.7285C331.618 39.3013 331.99 39.8651 332.249 40.42H332.464V36.9565H338.142V57.7775C338.142 59.5316 337.713 60.9994 336.854 62.1807C335.994 63.362 334.804 64.248 333.283 64.8387C331.77 65.4383 330.03 65.7381 328.061 65.7381ZM328.182 52.9851C329.103 52.9851 329.882 52.7569 330.517 52.3004C331.162 51.8351 331.654 51.1728 331.994 50.3137C332.343 49.4456 332.518 48.4074 332.518 47.1992C332.518 45.9911 332.348 44.944 332.007 44.058C331.667 43.163 331.175 42.4694 330.531 41.9772C329.886 41.485 329.103 41.2389 328.182 41.2389C327.242 41.2389 326.45 41.4939 325.805 42.0041C325.161 42.5052 324.673 43.2033 324.342 44.0982C324.011 44.9932 323.845 46.0269 323.845 47.1992C323.845 48.3895 324.011 49.4187 324.342 50.2868C324.682 51.146 325.17 51.8127 325.805 52.287C326.45 52.7524 327.242 52.9851 328.182 52.9851ZM342.693 57.5762V36.9565H348.412V57.5762H342.693ZM345.566 34.2985C344.716 34.2985 343.986 34.0166 343.378 33.4528C342.778 32.8801 342.478 32.1954 342.478 31.3989C342.478 30.6114 342.778 29.9357 343.378 29.3719C343.986 28.7991 344.716 28.5127 345.566 28.5127C346.416 28.5127 347.141 28.7991 347.741 29.3719C348.349 29.9357 348.653 30.6114 348.653 31.3989C348.653 32.1954 348.349 32.8801 347.741 33.4528C347.141 34.0166 346.416 34.2985 345.566 34.2985ZM363.96 36.9565V41.2523H351.543V36.9565H363.96ZM354.362 32.0164H360.081V51.2399C360.081 51.768 360.161 52.1796 360.323 52.475C360.484 52.7613 360.707 52.9627 360.994 53.0791C361.289 53.1954 361.629 53.2536 362.014 53.2536C362.282 53.2536 362.551 53.2312 362.819 53.1864C363.088 53.1328 363.294 53.0925 363.437 53.0656L364.336 57.3211C364.05 57.4106 363.647 57.5135 363.128 57.6299C362.609 57.7552 361.978 57.8312 361.235 57.8581C359.857 57.9118 358.649 57.7283 357.611 57.3077C356.582 56.8871 355.781 56.2337 355.208 55.3477C354.635 54.4617 354.353 53.3431 354.362 51.9917V32.0164ZM373.565 57.9655C372.25 57.9655 371.078 57.7373 370.048 57.2808C369.019 56.8155 368.205 56.1308 367.605 55.2269C367.014 54.3141 366.719 53.1775 366.719 51.8172C366.719 50.6716 366.929 49.7096 367.35 48.931C367.771 48.1524 368.343 47.5259 369.068 47.0516C369.793 46.5772 370.617 46.2193 371.538 45.9776C372.469 45.736 373.445 45.566 374.465 45.4675C375.664 45.3422 376.631 45.2259 377.365 45.1185C378.098 45.0021 378.631 44.8321 378.962 44.6084C379.293 44.3846 379.459 44.0535 379.459 43.615V43.5344C379.459 42.6842 379.19 42.0264 378.653 41.5611C378.125 41.0957 377.374 40.863 376.398 40.863C375.369 40.863 374.55 41.0912 373.941 41.5476C373.333 41.9951 372.93 42.5589 372.733 43.2391L367.444 42.8095C367.713 41.5566 368.241 40.4737 369.028 39.5608C369.816 38.6391 370.831 37.932 372.075 37.4398C373.328 36.9386 374.778 36.6881 376.425 36.6881C377.57 36.6881 378.667 36.8223 379.714 37.0908C380.77 37.3593 381.705 37.7754 382.519 38.3392C383.343 38.9031 383.992 39.628 384.466 40.514C384.94 41.391 385.177 42.4426 385.177 43.6687V57.5762H379.754V54.7168H379.593C379.262 55.3612 378.819 55.9295 378.264 56.4217C377.709 56.905 377.042 57.2853 376.264 57.5627C375.485 57.8312 374.586 57.9655 373.565 57.9655ZM375.203 54.0187C376.045 54.0187 376.787 53.8532 377.432 53.5221C378.076 53.182 378.582 52.7255 378.949 52.1528C379.316 51.58 379.499 50.9312 379.499 50.2063V48.0181C379.32 48.1345 379.074 48.2419 378.761 48.3403C378.456 48.4298 378.112 48.5148 377.727 48.5954C377.342 48.667 376.957 48.7341 376.573 48.7967C376.188 48.8504 375.839 48.8996 375.525 48.9444C374.854 49.0428 374.268 49.1994 373.767 49.4142C373.266 49.629 372.876 49.9199 372.599 50.2868C372.322 50.6448 372.183 51.0923 372.183 51.6292C372.183 52.4078 372.465 53.003 373.029 53.4147C373.601 53.8174 374.326 54.0187 375.203 54.0187ZM395.333 30.0833V57.5762H389.614V30.0833H395.333ZM414.382 45.6555V57.5762H408.663V36.9565H414.113V40.5945H414.355C414.811 39.3953 415.577 38.4466 416.651 37.7486C417.725 37.0416 419.027 36.6881 420.557 36.6881C421.989 36.6881 423.237 37.0013 424.302 37.6278C425.367 38.2542 426.195 39.1492 426.786 40.3126C427.377 41.4671 427.672 42.8453 427.672 44.4473V57.5762H421.953V45.4675C421.962 44.2056 421.64 43.2212 420.987 42.5142C420.333 41.7982 419.434 41.4402 418.288 41.4402C417.519 41.4402 416.839 41.6058 416.248 41.9369C415.666 42.2681 415.21 42.7513 414.879 43.3868C414.556 44.0132 414.391 44.7695 414.382 45.6555ZM441.495 57.9789C439.41 57.9789 437.607 57.5359 436.086 56.6499C434.573 55.755 433.405 54.511 432.582 52.918C431.758 51.316 431.347 49.459 431.347 47.3469C431.347 45.2169 431.758 43.3554 432.582 41.7624C433.405 40.1605 434.573 38.9165 436.086 38.0305C437.607 37.1355 439.41 36.6881 441.495 36.6881C443.581 36.6881 445.38 37.1355 446.892 38.0305C448.413 38.9165 449.586 40.1605 450.409 41.7624C451.233 43.3554 451.644 45.2169 451.644 47.3469C451.644 49.459 451.233 51.316 450.409 52.918C449.586 54.511 448.413 55.755 446.892 56.6499C445.38 57.5359 443.581 57.9789 441.495 57.9789ZM441.522 53.5489C442.471 53.5489 443.263 53.2804 443.898 52.7434C444.534 52.1975 445.013 51.4547 445.335 50.515C445.666 49.5753 445.832 48.5059 445.832 47.3066C445.832 46.1074 445.666 45.0379 445.335 44.0982C445.013 43.1585 444.534 42.4157 443.898 41.8698C443.263 41.3239 442.471 41.0509 441.522 41.0509C440.565 41.0509 439.759 41.3239 439.106 41.8698C438.462 42.4157 437.974 43.1585 437.643 44.0982C437.321 45.0379 437.159 46.1074 437.159 47.3066C437.159 48.5059 437.321 49.5753 437.643 50.515C437.974 51.4547 438.462 52.1975 439.106 52.7434C439.759 53.2804 440.565 53.5489 441.522 53.5489ZM468.958 57.5762H462.729L472.22 30.0833H479.711L489.188 57.5762H482.96L476.073 36.3659H475.858L468.958 57.5762ZM468.569 46.7697H483.282V51.3071H468.569V46.7697ZM492.39 65.3085V36.9565H498.028V40.42H498.283C498.534 39.8651 498.896 39.3013 499.371 38.7285C499.854 38.1468 500.48 37.6636 501.25 37.2787C502.029 36.885 502.995 36.6881 504.15 36.6881C505.653 36.6881 507.04 37.0818 508.311 37.8694C509.582 38.648 510.598 39.8249 511.359 41.4C512.119 42.9661 512.5 44.9305 512.5 47.2932C512.5 49.5932 512.128 51.5353 511.385 53.1193C510.652 54.6944 509.649 55.8892 508.378 56.7036C507.117 57.5091 505.702 57.9118 504.136 57.9118C503.027 57.9118 502.082 57.7283 501.304 57.3614C500.534 56.9945 499.903 56.5336 499.411 55.9787C498.919 55.4149 498.543 54.8466 498.283 54.2738H498.109V65.3085H492.39ZM497.988 47.2664C497.988 48.4924 498.158 49.5619 498.498 50.4748C498.838 51.3876 499.33 52.0991 499.975 52.6092C500.619 53.1104 501.402 53.361 502.324 53.361C503.255 53.361 504.042 53.1059 504.687 52.5958C505.331 52.0767 505.819 51.3608 506.15 50.4479C506.49 49.5261 506.66 48.4656 506.66 47.2664C506.66 46.0761 506.495 45.029 506.163 44.1251C505.832 43.2212 505.345 42.5142 504.7 42.0041C504.056 41.4939 503.264 41.2389 502.324 41.2389C501.393 41.2389 500.606 41.485 499.961 41.9772C499.326 42.4694 498.838 43.1675 498.498 44.0714C498.158 44.9753 497.988 46.0403 497.988 47.2664ZM516.312 65.3085V36.9565H521.95V40.42H522.205C522.456 39.8651 522.818 39.3013 523.293 38.7285C523.776 38.1468 524.402 37.6636 525.172 37.2787C525.951 36.885 526.917 36.6881 528.072 36.6881C529.575 36.6881 530.962 37.0818 532.233 37.8694C533.504 38.648 534.52 39.8249 535.281 41.4C536.041 42.9661 536.422 44.9305 536.422 47.2932C536.422 49.5932 536.05 51.5353 535.307 53.1193C534.574 54.6944 533.571 55.8892 532.3 56.7036C531.039 57.5091 529.624 57.9118 528.058 57.9118C526.949 57.9118 526.004 57.7283 525.226 57.3614C524.456 56.9945 523.825 56.5336 523.333 55.9787C522.841 55.4149 522.465 54.8466 522.205 54.2738H522.031V65.3085H516.312ZM521.91 47.2664C521.91 48.4924 522.08 49.5619 522.42 50.4748C522.76 51.3876 523.252 52.0991 523.897 52.6092C524.541 53.1104 525.324 53.361 526.246 53.361C527.177 53.361 527.964 53.1059 528.609 52.5958C529.253 52.0767 529.741 51.3608 530.072 50.4479C530.412 49.5261 530.582 48.4656 530.582 47.2664C530.582 46.0761 530.417 45.029 530.085 44.1251C529.754 43.2212 529.267 42.5142 528.622 42.0041C527.978 41.4939 527.186 41.2389 526.246 41.2389C525.315 41.2389 524.528 41.485 523.883 41.9772C523.248 42.4694 522.76 43.1675 522.42 44.0714C522.08 44.9753 521.91 46.0403 521.91 47.2664Z" fill="white"/>
</svg>
