<svg width="855" height="94" viewBox="0 0 855 94" fill="none" xmlns="http://www.w3.org/2000/svg">
<rect x="0.28125" y="0.205566" width="854.191" height="93" rx="46.5" fill="black"/>
<rect x="560.867" y="11.8086" width="276.543" height="68.3027" rx="34.1513" fill="white"/>
<rect x="686.738" y="17.5715" width="141.801" height="58.268" rx="29.134" fill="#FF3000"/>
<path d="M751.072 35.9494V56.6472H747.292L738.288 43.6201H738.136V56.6472H733.76V35.9494H737.6L746.534 48.9664H746.716V35.9494H751.072ZM758.274 56.9403C757.284 56.9403 756.401 56.7685 755.627 56.4249C754.852 56.0745 754.239 55.5591 753.787 54.8786C753.342 54.1914 753.12 53.3357 753.12 52.3116C753.12 51.4492 753.278 50.7249 753.595 50.1387C753.912 49.5526 754.343 49.0809 754.889 48.7238C755.434 48.3668 756.054 48.0973 756.748 47.9153C757.449 47.7334 758.183 47.6054 758.951 47.5313C759.854 47.437 760.582 47.3494 761.134 47.2685C761.687 47.1809 762.088 47.0529 762.337 46.8845C762.586 46.7161 762.711 46.4668 762.711 46.1366V46.076C762.711 45.4359 762.509 44.9407 762.105 44.5904C761.707 44.24 761.141 44.0648 760.407 44.0648C759.632 44.0648 759.015 44.2366 758.557 44.5803C758.099 44.9171 757.796 45.3416 757.648 45.8536L753.666 45.5302C753.868 44.587 754.266 43.7717 754.858 43.0845C755.451 42.3905 756.216 41.8583 757.153 41.4877C758.096 41.1104 759.187 40.9218 760.427 40.9218C761.289 40.9218 762.115 41.0228 762.903 41.2249C763.698 41.4271 764.402 41.7404 765.015 42.1648C765.635 42.5893 766.124 43.135 766.481 43.8021C766.838 44.4623 767.016 45.254 767.016 46.1771V56.6472H762.933V54.4946H762.812C762.563 54.9797 762.229 55.4075 761.812 55.7781C761.394 56.1419 760.892 56.4282 760.306 56.6371C759.72 56.8392 759.042 56.9403 758.274 56.9403ZM759.507 53.969C760.141 53.969 760.7 53.8444 761.185 53.5951C761.67 53.3391 762.051 52.9955 762.327 52.5643C762.603 52.1331 762.741 51.6446 762.741 51.0988V49.4515C762.607 49.5391 762.421 49.6199 762.186 49.6941C761.956 49.7614 761.697 49.8254 761.407 49.8861C761.118 49.94 760.828 49.9905 760.538 50.0377C760.248 50.0781 759.986 50.1152 759.75 50.1488C759.245 50.223 758.803 50.3409 758.426 50.5026C758.049 50.6643 757.756 50.8832 757.547 51.1595C757.338 51.429 757.233 51.7659 757.233 52.1701C757.233 52.7563 757.446 53.2043 757.87 53.5143C758.301 53.8174 758.847 53.969 759.507 53.969ZM757.698 39.2138L755.303 39.1835C755.303 37.8966 755.62 36.9095 756.253 36.2223C756.893 35.5351 757.671 35.1881 758.588 35.1814C759.059 35.1814 759.464 35.2588 759.8 35.4138C760.144 35.562 760.451 35.7372 760.72 35.9393C760.996 36.1415 761.259 36.32 761.508 36.475C761.758 36.6232 762.027 36.6973 762.317 36.6973C762.708 36.6906 763.004 36.5457 763.206 36.2627C763.415 35.973 763.52 35.5957 763.52 35.1308L765.874 35.2016C765.861 36.475 765.537 37.4587 764.904 38.1526C764.271 38.8399 763.499 39.1868 762.59 39.1936C762.084 39.1936 761.66 39.1195 761.316 38.9712C760.979 38.8163 760.683 38.6411 760.427 38.4457C760.171 38.2436 759.922 38.065 759.679 37.9101C759.437 37.7551 759.164 37.6776 758.861 37.6776C758.51 37.6776 758.227 37.8157 758.012 38.092C757.803 38.3682 757.698 38.7422 757.698 39.2138ZM776.611 56.9504C775.042 56.9504 773.684 56.6169 772.539 55.9499C771.4 55.2761 770.521 54.3396 769.901 53.1403C769.281 51.9343 768.971 50.5363 768.971 48.9462C768.971 47.3426 769.281 45.9412 769.901 44.742C770.521 43.5359 771.4 42.5994 772.539 41.9324C773.684 41.2586 775.042 40.9218 776.611 40.9218C778.181 40.9218 779.535 41.2586 780.674 41.9324C781.82 42.5994 782.702 43.5359 783.322 44.742C783.942 45.9412 784.252 47.3426 784.252 48.9462C784.252 50.5363 783.942 51.9343 783.322 53.1403C782.702 54.3396 781.82 55.2761 780.674 55.9499C779.535 56.6169 778.181 56.9504 776.611 56.9504ZM776.632 53.6153C777.346 53.6153 777.942 53.4132 778.42 53.0089C778.899 52.5979 779.259 52.0387 779.502 51.3313C779.751 50.6238 779.876 49.8187 779.876 48.9159C779.876 48.013 779.751 47.2079 779.502 46.5005C779.259 45.793 778.899 45.2338 778.42 44.8228C777.942 44.4118 777.346 44.2063 776.632 44.2063C775.911 44.2063 775.304 44.4118 774.812 44.8228C774.327 45.2338 773.96 45.793 773.711 46.5005C773.468 47.2079 773.347 48.013 773.347 48.9159C773.347 49.8187 773.468 50.6238 773.711 51.3313C773.96 52.0387 774.327 52.5979 774.812 53.0089C775.304 53.4132 775.911 53.6153 776.632 53.6153Z" fill="white"/>
<path d="M617.234 41.9021C617.153 41.0868 616.806 40.4535 616.193 40.0021C615.58 39.5507 614.748 39.325 613.697 39.325C612.983 39.325 612.38 39.426 611.888 39.6281C611.396 39.8235 611.019 40.0964 610.756 40.4468C610.5 40.7971 610.372 41.1946 610.372 41.6393C610.358 42.0099 610.436 42.3333 610.604 42.6095C610.78 42.8858 611.019 43.1249 611.322 43.3271C611.625 43.5225 611.975 43.6943 612.373 43.8425C612.77 43.984 613.195 44.1053 613.646 44.2063L615.506 44.651C616.409 44.8531 617.237 45.1226 617.992 45.4595C618.747 45.7964 619.4 46.2107 619.953 46.7026C620.505 47.1944 620.933 47.7739 621.236 48.4409C621.546 49.1079 621.704 49.8726 621.711 50.735C621.704 52.0017 621.381 53.0999 620.741 54.0297C620.108 54.9527 619.191 55.6703 617.992 56.1823C616.8 56.6876 615.361 56.9403 613.677 56.9403C612.006 56.9403 610.55 56.6843 609.311 56.1722C608.078 55.6602 607.114 54.9022 606.42 53.8983C605.733 52.8877 605.373 51.6378 605.339 50.1488H609.573C609.621 50.8428 609.819 51.4222 610.17 51.8871C610.527 52.3453 611.002 52.6923 611.595 52.9281C612.194 53.1572 612.872 53.2717 613.626 53.2717C614.367 53.2717 615.011 53.1639 615.556 52.9483C616.109 52.7327 616.537 52.4329 616.84 52.0488C617.143 51.6648 617.295 51.2235 617.295 50.7249C617.295 50.26 617.157 49.8692 616.88 49.5526C616.611 49.2359 616.213 48.9664 615.688 48.7441C615.169 48.5217 614.532 48.3196 613.778 48.1377L611.524 47.5717C609.779 47.1473 608.401 46.4836 607.391 45.5808C606.38 44.6779 605.878 43.4618 605.885 41.9324C605.878 40.6792 606.211 39.5844 606.885 38.6478C607.566 37.7113 608.499 36.9803 609.685 36.4548C610.87 35.9292 612.218 35.6665 613.727 35.6665C615.263 35.6665 616.604 35.9292 617.75 36.4548C618.902 36.9803 619.798 37.7113 620.438 38.6478C621.078 39.5844 621.408 40.6691 621.428 41.9021H617.234ZM623.815 56.6472V41.1239H628.12V56.6472H623.815ZM625.978 39.1228C625.338 39.1228 624.788 38.9106 624.33 38.4861C623.879 38.0549 623.653 37.5395 623.653 36.9399C623.653 36.347 623.879 35.8383 624.33 35.4138C624.788 34.9826 625.338 34.767 625.978 34.767C626.618 34.767 627.163 34.9826 627.615 35.4138C628.073 35.8383 628.302 36.347 628.302 36.9399C628.302 37.5395 628.073 38.0549 627.615 38.4861C627.163 38.9106 626.618 39.1228 625.978 39.1228ZM630.81 56.6472V41.1239H634.913V43.8627H635.095C635.419 42.9531 635.958 42.2356 636.712 41.7101C637.467 41.1845 638.37 40.9218 639.421 40.9218C640.485 40.9218 641.391 41.1879 642.139 41.7202C642.887 42.2457 643.386 42.9599 643.635 43.8627H643.797C644.113 42.9733 644.686 42.2625 645.515 41.7303C646.35 41.1913 647.337 40.9218 648.476 40.9218C649.925 40.9218 651.1 41.3833 652.003 42.3063C652.913 43.2226 653.367 44.523 653.367 46.2074V56.6472H649.072V47.0563C649.072 46.1939 648.843 45.5471 648.385 45.1159C647.927 44.6847 647.354 44.4691 646.667 44.4691C645.885 44.4691 645.276 44.7184 644.838 45.217C644.4 45.7088 644.181 46.359 644.181 47.1675V56.6472H640.007V46.9653C640.007 46.204 639.788 45.5976 639.35 45.1462C638.919 44.6948 638.349 44.4691 637.642 44.4691C637.164 44.4691 636.732 44.5904 636.348 44.8329C635.971 45.0687 635.671 45.4022 635.449 45.8334C635.227 46.2579 635.115 46.7565 635.115 47.3292V56.6472H630.81Z" fill="#888888"/>
<path d="M62.663 57.7817V30.2889H73.5097C75.595 30.2889 77.3714 30.6872 78.8392 31.4837C80.3069 32.2712 81.4256 33.3675 82.1952 34.7726C82.9738 36.1687 83.3631 37.7796 83.3631 39.6053C83.3631 41.431 82.9693 43.0419 82.1818 44.438C81.3942 45.8342 80.2532 46.9215 78.7586 47.7001C77.273 48.4787 75.4741 48.868 73.3621 48.868H66.4486V44.2098H72.4224C73.5411 44.2098 74.4629 44.0174 75.1878 43.6326C75.9216 43.2388 76.4675 42.6974 76.8255 42.0083C77.1924 41.3102 77.3759 40.5092 77.3759 39.6053C77.3759 38.6925 77.1924 37.896 76.8255 37.2158C76.4675 36.5267 75.9216 35.9942 75.1878 35.6183C74.4539 35.2335 73.5232 35.0411 72.3955 35.0411H68.4756V57.7817H62.663ZM92.3574 58.171C91.0418 58.171 89.8694 57.9428 88.8402 57.4864C87.811 57.021 86.9966 56.3364 86.397 55.4325C85.8063 54.5196 85.511 53.3831 85.511 52.0227C85.511 50.8772 85.7213 49.9151 86.1419 49.1365C86.5626 48.3579 87.1353 47.7315 87.8602 47.2571C88.5851 46.7828 89.4085 46.4248 90.3303 46.1832C91.261 45.9416 92.2365 45.7715 93.2568 45.6731C94.456 45.5478 95.4226 45.4314 96.1564 45.324C96.8903 45.2077 97.4228 45.0377 97.7539 44.8139C98.085 44.5902 98.2506 44.2591 98.2506 43.8205V43.74C98.2506 42.8898 97.9821 42.232 97.4451 41.7666C96.9171 41.3013 96.1654 41.0686 95.1899 41.0686C94.1607 41.0686 93.3418 41.2968 92.7332 41.7532C92.1247 42.2007 91.7219 42.7645 91.5251 43.4447L86.2359 43.0151C86.5044 41.7622 87.0324 40.6793 87.82 39.7664C88.6075 38.8446 89.6233 38.1376 90.8673 37.6454C92.1202 37.1442 93.57 36.8936 95.2167 36.8936C96.3623 36.8936 97.4586 37.0279 98.5057 37.2964C99.5617 37.5648 100.497 37.981 101.311 38.5448C102.135 39.1086 102.784 39.8335 103.258 40.7195C103.732 41.5966 103.969 42.6482 103.969 43.8742V57.7817H98.5459V54.9224H98.3848C98.0537 55.5667 97.6107 56.135 97.0558 56.6273C96.501 57.1105 95.8342 57.4909 95.0556 57.7683C94.277 58.0368 93.3776 58.171 92.3574 58.171ZM93.9951 54.2243C94.8364 54.2243 95.5792 54.0588 96.2235 53.7276C96.8679 53.3875 97.3735 52.9311 97.7405 52.3583C98.1074 51.7856 98.2909 51.1367 98.2909 50.4118V48.2237C98.1119 48.34 97.8658 48.4474 97.5525 48.5459C97.2483 48.6354 96.9037 48.7204 96.5189 48.8009C96.134 48.8725 95.7492 48.9396 95.3644 49.0023C94.9796 49.056 94.6305 49.1052 94.3173 49.15C93.6461 49.2484 93.0599 49.405 92.5587 49.6198C92.0575 49.8346 91.6682 50.1254 91.3908 50.4924C91.1134 50.8504 90.9747 51.2978 90.9747 51.8348C90.9747 52.6134 91.2566 53.2085 91.8204 53.6202C92.3932 54.023 93.1181 54.2243 93.9951 54.2243ZM117.696 65.9437C115.843 65.9437 114.255 65.6886 112.93 65.1785C111.614 64.6773 110.567 63.9927 109.789 63.1246C109.01 62.2565 108.504 61.281 108.272 60.1981L113.561 59.4866C113.722 59.8983 113.977 60.2831 114.326 60.6411C114.675 60.9991 115.136 61.2855 115.709 61.5003C116.291 61.724 116.998 61.8359 117.83 61.8359C119.074 61.8359 120.099 61.5316 120.904 60.923C121.718 60.3234 122.126 59.3166 122.126 57.9026V54.1303H121.884C121.633 54.7031 121.257 55.2446 120.756 55.7547C120.255 56.2648 119.611 56.681 118.823 57.0031C118.036 57.3253 117.096 57.4864 116.004 57.4864C114.456 57.4864 113.046 57.1284 111.776 56.4125C110.514 55.6876 109.507 54.5823 108.755 53.0967C108.012 51.6021 107.641 49.7138 107.641 47.4317C107.641 45.0958 108.021 43.1448 108.782 41.5787C109.543 40.0125 110.554 38.8401 111.816 38.0615C113.087 37.2829 114.478 36.8936 115.991 36.8936C117.145 36.8936 118.112 37.0905 118.89 37.4843C119.669 37.8691 120.295 38.3524 120.77 38.9341C121.253 39.5069 121.624 40.0707 121.884 40.6256H122.099V37.1621H127.777V57.9831C127.777 59.7372 127.348 61.2049 126.488 62.3863C125.629 63.5676 124.439 64.4536 122.918 65.0442C121.405 65.6439 119.664 65.9437 117.696 65.9437ZM117.816 53.1907C118.738 53.1907 119.517 52.9624 120.152 52.506C120.797 52.0406 121.289 51.3784 121.629 50.5192C121.978 49.6511 122.152 48.613 122.152 47.4048C122.152 46.1966 121.982 45.1495 121.642 44.2635C121.302 43.3686 120.81 42.675 120.166 42.1828C119.521 41.6906 118.738 41.4444 117.816 41.4444C116.877 41.4444 116.085 41.6995 115.44 42.2096C114.796 42.7108 114.308 43.4089 113.977 44.3038C113.646 45.1988 113.48 46.2324 113.48 47.4048C113.48 48.5951 113.646 49.6243 113.977 50.4924C114.317 51.3515 114.805 52.0183 115.44 52.4926C116.085 52.958 116.877 53.1907 117.816 53.1907ZM138.208 58.171C136.892 58.171 135.72 57.9428 134.691 57.4864C133.661 57.021 132.847 56.3364 132.247 55.4325C131.657 54.5196 131.361 53.3831 131.361 52.0227C131.361 50.8772 131.572 49.9151 131.992 49.1365C132.413 48.3579 132.986 47.7315 133.711 47.2571C134.436 46.7828 135.259 46.4248 136.181 46.1832C137.112 45.9416 138.087 45.7715 139.107 45.6731C140.306 45.5478 141.273 45.4314 142.007 45.324C142.741 45.2077 143.273 45.0377 143.604 44.8139C143.936 44.5902 144.101 44.2591 144.101 43.8205V43.74C144.101 42.8898 143.833 42.232 143.296 41.7666C142.768 41.3013 142.016 41.0686 141.04 41.0686C140.011 41.0686 139.192 41.2968 138.584 41.7532C137.975 42.2007 137.572 42.7645 137.376 43.4447L132.086 43.0151C132.355 41.7622 132.883 40.6793 133.67 39.7664C134.458 38.8446 135.474 38.1376 136.718 37.6454C137.971 37.1442 139.42 36.8936 141.067 36.8936C142.213 36.8936 143.309 37.0279 144.356 37.2964C145.412 37.5648 146.347 37.981 147.162 38.5448C147.985 39.1086 148.634 39.8335 149.108 40.7195C149.583 41.5966 149.82 42.6482 149.82 43.8742V57.7817H144.396V54.9224H144.235C143.904 55.5667 143.461 56.135 142.906 56.6273C142.351 57.1105 141.685 57.4909 140.906 57.7683C140.127 58.0368 139.228 58.171 138.208 58.171ZM139.846 54.2243C140.687 54.2243 141.43 54.0588 142.074 53.7276C142.718 53.3875 143.224 52.9311 143.591 52.3583C143.958 51.7856 144.141 51.1367 144.141 50.4118V48.2237C143.962 48.34 143.716 48.4474 143.403 48.5459C143.099 48.6354 142.754 48.7204 142.369 48.8009C141.985 48.8725 141.6 48.9396 141.215 49.0023C140.83 49.056 140.481 49.1052 140.168 49.15C139.497 49.2484 138.91 49.405 138.409 49.6198C137.908 49.8346 137.519 50.1254 137.241 50.4924C136.964 50.8504 136.825 51.2978 136.825 51.8348C136.825 52.6134 137.107 53.2085 137.671 53.6202C138.244 54.023 138.969 54.2243 139.846 54.2243ZM154.257 57.7817V37.1621H159.707V40.8001H159.948C160.378 39.5919 161.094 38.6388 162.096 37.9407C163.099 37.2427 164.298 36.8936 165.694 36.8936C167.108 36.8936 168.312 37.2471 169.305 37.9541C170.298 38.6522 170.961 39.6009 171.292 40.8001H171.507C171.927 39.6187 172.688 38.6746 173.789 37.9676C174.898 37.2516 176.21 36.8936 177.722 36.8936C179.646 36.8936 181.208 37.5067 182.407 38.7328C183.615 39.9499 184.219 41.6771 184.219 43.9145V57.7817H178.514V45.0421C178.514 43.8966 178.21 43.0375 177.601 42.4647C176.993 41.8919 176.232 41.6055 175.319 41.6055C174.281 41.6055 173.471 41.9367 172.889 42.5989C172.308 43.2522 172.017 44.1159 172.017 45.1898V57.7817H166.473V44.9213C166.473 43.91 166.182 43.1046 165.6 42.505C165.027 41.9053 164.271 41.6055 163.331 41.6055C162.696 41.6055 162.123 41.7666 161.613 42.0888C161.112 42.402 160.714 42.845 160.418 43.4178C160.123 43.9816 159.975 44.6439 159.975 45.4046V57.7817H154.257ZM198.134 58.1845C196.013 58.1845 194.187 57.7549 192.657 56.8957C191.135 56.0276 189.963 54.8016 189.139 53.2175C188.316 51.6245 187.904 49.7406 187.904 47.5659C187.904 45.4449 188.316 43.5834 189.139 41.9814C189.963 40.3795 191.122 39.131 192.616 38.2361C194.12 37.3411 195.883 36.8936 197.905 36.8936C199.266 36.8936 200.532 37.1129 201.704 37.5514C202.886 37.981 203.915 38.6298 204.792 39.4979C205.678 40.366 206.367 41.4579 206.859 42.7734C207.352 44.0801 207.598 45.6104 207.598 47.3645V48.9352H190.186V45.3912H202.215C202.215 44.5678 202.036 43.8384 201.678 43.203C201.32 42.5676 200.823 42.0709 200.188 41.7129C199.561 41.346 198.832 41.1625 197.999 41.1625C197.131 41.1625 196.362 41.3639 195.69 41.7666C195.028 42.1604 194.509 42.6929 194.133 43.3641C193.757 44.0264 193.565 44.7647 193.556 45.5791V48.9486C193.556 49.9688 193.744 50.8504 194.12 51.5932C194.505 52.336 195.046 52.9087 195.744 53.3115C196.442 53.7142 197.27 53.9156 198.228 53.9156C198.863 53.9156 199.445 53.8261 199.973 53.6471C200.501 53.4681 200.953 53.1996 201.329 52.8416C201.704 52.4836 201.991 52.0451 202.188 51.526L207.477 51.8751C207.208 53.1459 206.658 54.2556 205.826 55.2043C205.002 56.144 203.937 56.8778 202.631 57.4059C201.333 57.9249 199.834 58.1845 198.134 58.1845ZM217.048 45.861V57.7817H211.33V37.1621H216.78V40.8001H217.022C217.478 39.6009 218.243 38.6522 219.317 37.9541C220.391 37.2471 221.693 36.8936 223.224 36.8936C224.655 36.8936 225.904 37.2069 226.969 37.8333C228.034 38.4598 228.862 39.3547 229.452 40.5182C230.043 41.6727 230.338 43.0509 230.338 44.6528V57.7817H224.62V45.6731C224.629 44.4112 224.306 43.4268 223.653 42.7197C223 42.0038 222.1 41.6458 220.955 41.6458C220.185 41.6458 219.505 41.8114 218.914 42.1425C218.333 42.4736 217.876 42.9569 217.545 43.5923C217.223 44.2188 217.057 44.975 217.048 45.861ZM245.813 37.1621V41.4579H233.396V37.1621H245.813ZM236.215 32.222H241.934V51.4455C241.934 51.9735 242.014 52.3852 242.175 52.6805C242.336 52.9669 242.56 53.1683 242.846 53.2846C243.142 53.401 243.482 53.4591 243.867 53.4591C244.135 53.4591 244.404 53.4368 244.672 53.392C244.941 53.3383 245.146 53.298 245.29 53.2712L246.189 57.5267C245.903 57.6162 245.5 57.7191 244.981 57.8354C244.462 57.9607 243.831 58.0368 243.088 58.0636C241.71 58.1173 240.502 57.9339 239.463 57.5133C238.434 57.0926 237.633 56.4393 237.061 55.5533C236.488 54.6673 236.206 53.5486 236.215 52.1973V32.222ZM258.633 58.1845C256.548 58.1845 254.745 57.7415 253.223 56.8555C251.711 55.9605 250.543 54.7165 249.72 53.1235C248.896 51.5216 248.485 49.6646 248.485 47.5525C248.485 45.4225 248.896 43.561 249.72 41.968C250.543 40.366 251.711 39.1221 253.223 38.2361C254.745 37.3411 256.548 36.8936 258.633 36.8936C260.718 36.8936 262.517 37.3411 264.03 38.2361C265.551 39.1221 266.724 40.366 267.547 41.968C268.37 43.561 268.782 45.4225 268.782 47.5525C268.782 49.6646 268.37 51.5216 267.547 53.1235C266.724 54.7165 265.551 55.9605 264.03 56.8555C262.517 57.7415 260.718 58.1845 258.633 58.1845ZM258.66 53.7545C259.609 53.7545 260.401 53.486 261.036 52.949C261.672 52.4031 262.15 51.6603 262.473 50.7206C262.804 49.7809 262.969 48.7114 262.969 47.5122C262.969 46.313 262.804 45.2435 262.473 44.3038C262.15 43.3641 261.672 42.6213 261.036 42.0754C260.401 41.5295 259.609 41.2565 258.66 41.2565C257.703 41.2565 256.897 41.5295 256.244 42.0754C255.599 42.6213 255.112 43.3641 254.781 44.3038C254.458 45.2435 254.297 46.313 254.297 47.5122C254.297 48.7114 254.458 49.7809 254.781 50.7206C255.112 51.6603 255.599 52.4031 256.244 52.949C256.897 53.486 257.703 53.7545 258.66 53.7545ZM291.103 57.7817H281.357V30.2889H291.184C293.949 30.2889 296.33 30.8393 298.325 31.9401C300.321 33.0319 301.856 34.6026 302.93 36.652C304.013 38.7014 304.554 41.1536 304.554 44.0085C304.554 46.8723 304.013 49.3334 302.93 51.3918C301.856 53.4502 300.312 55.0298 298.299 56.1306C296.294 57.2313 293.895 57.7817 291.103 57.7817ZM287.17 52.8013H290.862C292.58 52.8013 294.025 52.4971 295.198 51.8885C296.379 51.271 297.265 50.3179 297.856 49.0291C298.455 47.7315 298.755 46.0579 298.755 44.0085C298.755 41.9769 298.455 40.3168 297.856 39.0281C297.265 37.7394 296.383 36.7907 295.211 36.1821C294.039 35.5736 292.593 35.2693 290.875 35.2693H287.17V52.8013ZM308.753 57.7817V37.1621H314.471V57.7817H308.753ZM311.625 34.5041C310.775 34.5041 310.046 34.2222 309.437 33.6584C308.838 33.0856 308.538 32.401 308.538 31.6045C308.538 30.8169 308.838 30.1412 309.437 29.5774C310.046 29.0047 310.775 28.7183 311.625 28.7183C312.476 28.7183 313.201 29.0047 313.8 29.5774C314.409 30.1412 314.713 30.8169 314.713 31.6045C314.713 32.401 314.409 33.0856 313.8 33.6584C313.201 34.2222 312.476 34.5041 311.625 34.5041ZM328.342 65.9437C326.489 65.9437 324.901 65.6886 323.576 65.1785C322.261 64.6773 321.214 63.9927 320.435 63.1246C319.656 62.2565 319.151 61.281 318.918 60.1981L324.207 59.4866C324.368 59.8983 324.623 60.2831 324.972 60.6411C325.322 60.9991 325.782 61.2855 326.355 61.5003C326.937 61.724 327.644 61.8359 328.476 61.8359C329.72 61.8359 330.745 61.5316 331.55 60.923C332.365 60.3234 332.772 59.3166 332.772 57.9026V54.1303H332.53C332.28 54.7031 331.904 55.2446 331.403 55.7547C330.902 56.2648 330.257 56.681 329.47 57.0031C328.682 57.3253 327.742 57.4864 326.651 57.4864C325.102 57.4864 323.693 57.1284 322.422 56.4125C321.16 55.6876 320.153 54.5823 319.401 53.0967C318.659 51.6021 318.287 49.7138 318.287 47.4317C318.287 45.0958 318.668 43.1448 319.428 41.5787C320.189 40.0125 321.2 38.8401 322.462 38.0615C323.733 37.2829 325.125 36.8936 326.637 36.8936C327.792 36.8936 328.758 37.0905 329.537 37.4843C330.315 37.8691 330.942 38.3524 331.416 38.9341C331.899 39.5069 332.271 40.0707 332.53 40.6256H332.745V37.1621H338.424V57.9831C338.424 59.7372 337.994 61.2049 337.135 62.3863C336.276 63.5676 335.085 64.4536 333.564 65.0442C332.052 65.6439 330.311 65.9437 328.342 65.9437ZM328.463 53.1907C329.385 53.1907 330.163 52.9624 330.799 52.506C331.443 52.0406 331.935 51.3784 332.275 50.5192C332.624 49.6511 332.799 48.613 332.799 47.4048C332.799 46.1966 332.629 45.1495 332.289 44.2635C331.949 43.3686 331.456 42.675 330.812 42.1828C330.168 41.6906 329.385 41.4444 328.463 41.4444C327.523 41.4444 326.731 41.6995 326.087 42.2096C325.442 42.7108 324.955 43.4089 324.623 44.3038C324.292 45.1988 324.127 46.2324 324.127 47.4048C324.127 48.5951 324.292 49.6243 324.623 50.4924C324.964 51.3515 325.451 52.0183 326.087 52.4926C326.731 52.958 327.523 53.1907 328.463 53.1907ZM342.974 57.7817V37.1621H348.693V57.7817H342.974ZM345.847 34.5041C344.997 34.5041 344.268 34.2222 343.659 33.6584C343.059 33.0856 342.76 32.401 342.76 31.6045C342.76 30.8169 343.059 30.1412 343.659 29.5774C344.268 29.0047 344.997 28.7183 345.847 28.7183C346.697 28.7183 347.422 29.0047 348.022 29.5774C348.63 30.1412 348.935 30.8169 348.935 31.6045C348.935 32.401 348.63 33.0856 348.022 33.6584C347.422 34.2222 346.697 34.5041 345.847 34.5041ZM364.242 37.1621V41.4579H351.824V37.1621H364.242ZM354.643 32.222H360.362V51.4455C360.362 51.9735 360.443 52.3852 360.604 52.6805C360.765 52.9669 360.989 53.1683 361.275 53.2846C361.57 53.401 361.91 53.4591 362.295 53.4591C362.564 53.4591 362.832 53.4368 363.101 53.392C363.369 53.3383 363.575 53.298 363.718 53.2712L364.618 57.5267C364.331 57.6162 363.928 57.7191 363.409 57.8354C362.89 57.9607 362.259 58.0368 361.517 58.0636C360.138 58.1173 358.93 57.9339 357.892 57.5133C356.863 57.0926 356.062 56.4393 355.489 55.5533C354.916 54.6673 354.634 53.5486 354.643 52.1973V32.222ZM373.847 58.171C372.531 58.171 371.359 57.9428 370.33 57.4864C369.3 57.021 368.486 56.3364 367.886 55.4325C367.296 54.5196 367 53.3831 367 52.0227C367 50.8772 367.211 49.9151 367.631 49.1365C368.052 48.3579 368.625 47.7315 369.35 47.2571C370.075 46.7828 370.898 46.4248 371.82 46.1832C372.75 45.9416 373.726 45.7715 374.746 45.6731C375.945 45.5478 376.912 45.4314 377.646 45.324C378.38 45.2077 378.912 45.0377 379.243 44.8139C379.574 44.5902 379.74 44.2591 379.74 43.8205V43.74C379.74 42.8898 379.472 42.232 378.935 41.7666C378.407 41.3013 377.655 41.0686 376.679 41.0686C375.65 41.0686 374.831 41.2968 374.223 41.7532C373.614 42.2007 373.211 42.7645 373.014 43.4447L367.725 43.0151C367.994 41.7622 368.522 40.6793 369.309 39.7664C370.097 38.8446 371.113 38.1376 372.357 37.6454C373.61 37.1442 375.059 36.8936 376.706 36.8936C377.852 36.8936 378.948 37.0279 379.995 37.2964C381.051 37.5648 381.986 37.981 382.801 38.5448C383.624 39.1086 384.273 39.8335 384.747 40.7195C385.222 41.5966 385.459 42.6482 385.459 43.8742V57.7817H380.035V54.9224H379.874C379.543 55.5667 379.1 56.135 378.545 56.6273C377.99 57.1105 377.324 57.4909 376.545 57.7683C375.766 58.0368 374.867 58.171 373.847 58.171ZM375.485 54.2243C376.326 54.2243 377.069 54.0588 377.713 53.7276C378.357 53.3875 378.863 52.9311 379.23 52.3583C379.597 51.7856 379.78 51.1367 379.78 50.4118V48.2237C379.601 48.34 379.355 48.4474 379.042 48.5459C378.738 48.6354 378.393 48.7204 378.008 48.8009C377.623 48.8725 377.239 48.9396 376.854 49.0023C376.469 49.056 376.12 49.1052 375.807 49.15C375.135 49.2484 374.549 49.405 374.048 49.6198C373.547 49.8346 373.158 50.1254 372.88 50.4924C372.603 50.8504 372.464 51.2978 372.464 51.8348C372.464 52.6134 372.746 53.2085 373.31 53.6202C373.883 54.023 374.607 54.2243 375.485 54.2243ZM395.614 30.2889V57.7817H389.895V30.2889H395.614ZM414.663 45.861V57.7817H408.944V37.1621H414.395V40.8001H414.636C415.093 39.6009 415.858 38.6522 416.932 37.9541C418.006 37.2471 419.308 36.8936 420.838 36.8936C422.27 36.8936 423.519 37.2069 424.584 37.8333C425.649 38.4598 426.476 39.3547 427.067 40.5182C427.658 41.6727 427.953 43.0509 427.953 44.6528V57.7817H422.234V45.6731C422.243 44.4112 421.921 43.4268 421.268 42.7197C420.615 42.0038 419.715 41.6458 418.57 41.6458C417.8 41.6458 417.12 41.8114 416.529 42.1425C415.947 42.4736 415.491 42.9569 415.16 43.5923C414.838 44.2188 414.672 44.975 414.663 45.861ZM441.777 58.1845C439.691 58.1845 437.888 57.7415 436.367 56.8555C434.854 55.9605 433.686 54.7165 432.863 53.1235C432.04 51.5216 431.628 49.6646 431.628 47.5525C431.628 45.4225 432.04 43.561 432.863 41.968C433.686 40.366 434.854 39.1221 436.367 38.2361C437.888 37.3411 439.691 36.8936 441.777 36.8936C443.862 36.8936 445.661 37.3411 447.173 38.2361C448.695 39.1221 449.867 40.366 450.69 41.968C451.514 43.561 451.925 45.4225 451.925 47.5525C451.925 49.6646 451.514 51.5216 450.69 53.1235C449.867 54.7165 448.695 55.9605 447.173 56.8555C445.661 57.7415 443.862 58.1845 441.777 58.1845ZM441.804 53.7545C442.752 53.7545 443.544 53.486 444.18 52.949C444.815 52.4031 445.294 51.6603 445.616 50.7206C445.947 49.7809 446.113 48.7114 446.113 47.5122C446.113 46.313 445.947 45.2435 445.616 44.3038C445.294 43.3641 444.815 42.6213 444.18 42.0754C443.544 41.5295 442.752 41.2565 441.804 41.2565C440.846 41.2565 440.041 41.5295 439.387 42.0754C438.743 42.6213 438.255 43.3641 437.924 44.3038C437.602 45.2435 437.441 46.313 437.441 47.5122C437.441 48.7114 437.602 49.7809 437.924 50.7206C438.255 51.6603 438.743 52.4031 439.387 52.949C440.041 53.486 440.846 53.7545 441.804 53.7545ZM469.239 57.7817H463.011L472.501 30.2889H479.992L489.47 57.7817H483.241L476.354 36.5714H476.139L469.239 57.7817ZM468.85 46.9752H483.563V51.5126H468.85V46.9752ZM492.671 65.5141V37.1621H498.31V40.6256H498.565C498.815 40.0707 499.178 39.5069 499.652 38.9341C500.135 38.3524 500.762 37.8691 501.531 37.4843C502.31 37.0905 503.277 36.8936 504.431 36.8936C505.935 36.8936 507.322 37.2874 508.593 38.075C509.863 38.8536 510.879 40.0304 511.64 41.6055C512.401 43.1717 512.781 45.1361 512.781 47.4988C512.781 49.7988 512.409 51.7408 511.667 53.3249C510.933 54.9 509.93 56.0948 508.66 56.9092C507.398 57.7146 505.984 58.1173 504.418 58.1173C503.308 58.1173 502.364 57.9339 501.585 57.567C500.815 57.2 500.184 56.7391 499.692 56.1843C499.2 55.6204 498.824 55.0521 498.565 54.4794H498.39V65.5141H492.671ZM498.269 47.4719C498.269 48.698 498.439 49.7675 498.779 50.6803C499.119 51.5932 499.612 52.3047 500.256 52.8148C500.9 53.3159 501.684 53.5665 502.605 53.5665C503.536 53.5665 504.324 53.3115 504.968 52.8013C505.612 52.2823 506.1 51.5663 506.431 50.6535C506.771 49.7317 506.941 48.6712 506.941 47.4719C506.941 46.2816 506.776 45.2346 506.445 44.3307C506.114 43.4268 505.626 42.7197 504.981 42.2096C504.337 41.6995 503.545 41.4444 502.605 41.4444C501.675 41.4444 500.887 41.6906 500.243 42.1828C499.607 42.675 499.119 43.3731 498.779 44.277C498.439 45.1809 498.269 46.2458 498.269 47.4719ZM516.593 65.5141V37.1621H522.232V40.6256H522.487C522.737 40.0707 523.1 39.5069 523.574 38.9341C524.057 38.3524 524.684 37.8691 525.453 37.4843C526.232 37.0905 527.199 36.8936 528.353 36.8936C529.857 36.8936 531.244 37.2874 532.515 38.075C533.785 38.8536 534.801 40.0304 535.562 41.6055C536.323 43.1717 536.703 45.1361 536.703 47.4988C536.703 49.7988 536.331 51.7408 535.589 53.3249C534.855 54.9 533.852 56.0948 532.582 56.9092C531.32 57.7146 529.906 58.1173 528.34 58.1173C527.23 58.1173 526.286 57.9339 525.507 57.567C524.737 57.2 524.106 56.7391 523.614 56.1843C523.122 55.6204 522.746 55.0521 522.487 54.4794H522.312V65.5141H516.593ZM522.191 47.4719C522.191 48.698 522.361 49.7675 522.701 50.6803C523.041 51.5932 523.534 52.3047 524.178 52.8148C524.822 53.3159 525.606 53.5665 526.527 53.5665C527.458 53.5665 528.246 53.3115 528.89 52.8013C529.534 52.2823 530.022 51.5663 530.353 50.6535C530.693 49.7317 530.863 48.6712 530.863 47.4719C530.863 46.2816 530.698 45.2346 530.367 44.3307C530.036 43.4268 529.548 42.7197 528.903 42.2096C528.259 41.6995 527.467 41.4444 526.527 41.4444C525.597 41.4444 524.809 41.6906 524.165 42.1828C523.529 42.675 523.041 43.3731 522.701 44.277C522.361 45.1809 522.191 46.2458 522.191 47.4719Z" fill="white"/>
</svg>
