<svg width="741" height="94" viewBox="0 0 741 94" fill="none" xmlns="http://www.w3.org/2000/svg">
<rect x="0.984375" y="0.0722656" width="739.871" height="93" rx="46.5" fill="black"/>
<rect x="447.25" y="11.6753" width="276.543" height="68.3027" rx="34.1513" fill="white"/>
<rect x="452.941" y="16.5728" width="141.801" height="58.268" rx="29.134" fill="#FF3000"/>
<path d="M511.191 40.9033C511.11 40.088 510.763 39.4547 510.15 39.0033C509.537 38.5519 508.705 38.3262 507.654 38.3262C506.94 38.3262 506.337 38.4272 505.845 38.6294C505.353 38.8248 504.976 39.0976 504.713 39.448C504.457 39.7983 504.329 40.1958 504.329 40.6405C504.315 41.0111 504.393 41.3345 504.561 41.6107C504.737 41.887 504.976 42.1262 505.279 42.3283C505.582 42.5237 505.932 42.6955 506.33 42.8437C506.727 42.9852 507.152 43.1065 507.603 43.2075L509.463 43.6522C510.366 43.8543 511.194 44.1238 511.949 44.4607C512.704 44.7976 513.357 45.212 513.91 45.7038C514.462 46.1956 514.89 46.7751 515.193 47.4421C515.503 48.1091 515.661 48.8738 515.668 49.7362C515.661 51.0029 515.338 52.1011 514.698 53.0309C514.065 53.9539 513.148 54.6715 511.949 55.1835C510.757 55.6889 509.318 55.9415 507.634 55.9415C505.963 55.9415 504.507 55.6855 503.268 55.1734C502.035 54.6614 501.071 53.9034 500.377 52.8995C499.69 51.8889 499.33 50.6391 499.296 49.1501H503.531C503.578 49.844 503.776 50.4235 504.127 50.8884C504.484 51.3465 504.959 51.6935 505.552 51.9293C506.151 52.1584 506.829 52.2729 507.583 52.2729C508.324 52.2729 508.968 52.1651 509.513 51.9495C510.066 51.7339 510.494 51.4341 510.797 51.0501C511.1 50.666 511.252 50.2247 511.252 49.7261C511.252 49.2612 511.114 48.8705 510.837 48.5538C510.568 48.2371 510.17 47.9676 509.645 47.7453C509.126 47.5229 508.489 47.3208 507.735 47.1389L505.481 46.5729C503.736 46.1485 502.358 45.4848 501.348 44.582C500.337 43.6792 499.835 42.463 499.842 40.9336C499.835 39.6804 500.168 38.5856 500.842 37.6491C501.523 36.7125 502.456 35.9815 503.642 35.456C504.828 34.9304 506.175 34.6677 507.684 34.6677C509.22 34.6677 510.561 34.9304 511.707 35.456C512.859 35.9815 513.755 36.7125 514.395 37.6491C515.035 38.5856 515.365 39.6703 515.385 40.9033H511.191ZM517.772 55.6484V40.1251H522.077V55.6484H517.772ZM519.935 38.1241C519.295 38.1241 518.746 37.9118 518.287 37.4874C517.836 37.0561 517.61 36.5407 517.61 35.9411C517.61 35.3482 517.836 34.8395 518.287 34.415C518.746 33.9838 519.295 33.7682 519.935 33.7682C520.575 33.7682 521.121 33.9838 521.572 34.415C522.03 34.8395 522.259 35.3482 522.259 35.9411C522.259 36.5407 522.03 37.0561 521.572 37.4874C521.121 37.9118 520.575 38.1241 519.935 38.1241ZM524.767 55.6484V40.1251H528.87V42.8639H529.052C529.376 41.9544 529.915 41.2368 530.669 40.7113C531.424 40.1857 532.327 39.923 533.378 39.923C534.442 39.923 535.348 40.1891 536.096 40.7214C536.844 41.2469 537.343 41.9611 537.592 42.8639H537.754C538.07 41.9746 538.643 41.2638 539.472 40.7315C540.307 40.1925 541.294 39.923 542.433 39.923C543.882 39.923 545.057 40.3845 545.96 41.3075C546.87 42.2239 547.324 43.5242 547.324 45.2086V55.6484H543.029V46.0575C543.029 45.1951 542.8 44.5483 542.342 44.1171C541.884 43.6859 541.311 43.4703 540.624 43.4703C539.842 43.4703 539.233 43.7196 538.795 44.2182C538.357 44.71 538.138 45.3602 538.138 46.1687V55.6484H533.964V45.9666C533.964 45.2052 533.745 44.5988 533.307 44.1474C532.876 43.696 532.306 43.4703 531.599 43.4703C531.121 43.4703 530.689 43.5916 530.305 43.8341C529.928 44.0699 529.628 44.4035 529.406 44.8347C529.184 45.2591 529.072 45.7577 529.072 46.3304V55.6484H524.767Z" fill="white"/>
<path d="M642.345 34.9507V55.6484H638.566L629.561 42.6214H629.409V55.6484H625.033V34.9507H628.874L637.808 47.9676H637.99V34.9507H642.345ZM649.548 55.9415C648.557 55.9415 647.675 55.7697 646.9 55.4261C646.125 55.0757 645.512 54.5603 645.061 53.8798C644.616 53.1926 644.394 52.3369 644.394 51.3128C644.394 50.4504 644.552 49.7261 644.869 49.14C645.185 48.5538 645.616 48.0822 646.162 47.7251C646.708 47.368 647.328 47.0985 648.022 46.9166C648.722 46.7346 649.457 46.6066 650.225 46.5325C651.128 46.4382 651.855 46.3506 652.408 46.2698C652.96 46.1822 653.361 46.0542 653.611 45.8857C653.86 45.7173 653.984 45.468 653.984 45.1378V45.0772C653.984 44.4371 653.782 43.9419 653.378 43.5916C652.981 43.2412 652.415 43.066 651.68 43.066C650.905 43.066 650.289 43.2379 649.831 43.5815C649.373 43.9184 649.069 44.3428 648.921 44.8549L644.939 44.5315C645.141 43.5882 645.539 42.773 646.132 42.0857C646.725 41.3918 647.489 40.8595 648.426 40.4889C649.369 40.1116 650.461 39.923 651.7 39.923C652.563 39.923 653.388 40.024 654.177 40.2262C654.972 40.4283 655.676 40.7416 656.289 41.1661C656.909 41.5905 657.397 42.1363 657.754 42.8033C658.111 43.4636 658.29 44.2552 658.29 45.1783V55.6484H654.207V53.4958H654.086C653.836 53.9809 653.503 54.4087 653.085 54.7793C652.667 55.1431 652.165 55.4295 651.579 55.6383C650.993 55.8405 650.316 55.9415 649.548 55.9415ZM650.781 52.9703C651.414 52.9703 651.973 52.8456 652.458 52.5963C652.944 52.3403 653.324 51.9967 653.6 51.5655C653.877 51.1343 654.015 50.6458 654.015 50.1001V48.4527C653.88 48.5403 653.695 48.6212 653.459 48.6953C653.23 48.7627 652.97 48.8267 652.681 48.8873C652.391 48.9412 652.101 48.9917 651.812 49.0389C651.522 49.0793 651.259 49.1164 651.023 49.1501C650.518 49.2242 650.077 49.3421 649.699 49.5038C649.322 49.6655 649.029 49.8845 648.82 50.1607C648.611 50.4302 648.507 50.7671 648.507 51.1713C648.507 51.7575 648.719 52.2055 649.144 52.5155C649.575 52.8187 650.12 52.9703 650.781 52.9703ZM648.972 38.215L646.577 38.1847C646.577 36.8978 646.893 35.9108 647.527 35.2235C648.167 34.5363 648.945 34.1893 649.861 34.1826C650.333 34.1826 650.737 34.2601 651.074 34.415C651.417 34.5633 651.724 34.7384 651.994 34.9406C652.27 35.1427 652.533 35.3212 652.782 35.4762C653.031 35.6244 653.301 35.6985 653.59 35.6985C653.981 35.6918 654.278 35.5469 654.48 35.264C654.689 34.9742 654.793 34.5969 654.793 34.132L657.148 34.2028C657.134 35.4762 656.811 36.4599 656.178 37.1538C655.544 37.8411 654.773 38.1881 653.863 38.1948C653.358 38.1948 652.933 38.1207 652.59 37.9725C652.253 37.8175 651.956 37.6423 651.7 37.4469C651.444 37.2448 651.195 37.0663 650.953 36.9113C650.71 36.7563 650.437 36.6788 650.134 36.6788C649.784 36.6788 649.501 36.817 649.285 37.0932C649.076 37.3694 648.972 37.7434 648.972 38.215ZM667.885 55.9516C666.315 55.9516 664.957 55.6181 663.812 54.9511C662.673 54.2773 661.794 53.3408 661.174 52.1415C660.554 50.9355 660.244 49.5375 660.244 47.9474C660.244 46.3439 660.554 44.9425 661.174 43.7432C661.794 42.5372 662.673 41.6006 663.812 40.9336C664.957 40.2599 666.315 39.923 667.885 39.923C669.455 39.923 670.809 40.2599 671.948 40.9336C673.093 41.6006 673.976 42.5372 674.595 43.7432C675.215 44.9425 675.525 46.3439 675.525 47.9474C675.525 49.5375 675.215 50.9355 674.595 52.1415C673.976 53.3408 673.093 54.2773 671.948 54.9511C670.809 55.6181 669.455 55.9516 667.885 55.9516ZM667.905 52.6165C668.619 52.6165 669.215 52.4144 669.694 52.0102C670.172 51.5992 670.533 51.0399 670.775 50.3325C671.025 49.6251 671.149 48.8199 671.149 47.9171C671.149 47.0143 671.025 46.2091 670.775 45.5017C670.533 44.7942 670.172 44.235 669.694 43.824C669.215 43.413 668.619 43.2075 667.905 43.2075C667.184 43.2075 666.578 43.413 666.086 43.824C665.601 44.235 665.234 44.7942 664.984 45.5017C664.742 46.2091 664.62 47.0143 664.62 47.9171C664.62 48.8199 664.742 49.6251 664.984 50.3325C665.234 51.0399 665.601 51.5992 666.086 52.0102C666.578 52.4144 667.184 52.6165 667.905 52.6165Z" fill="#888888"/>
<path d="M48.9726 58.4038V32.2022H59.31C61.2973 32.2022 62.9903 32.5817 64.3891 33.3408C65.7879 34.0914 66.854 35.1362 67.5875 36.4753C68.3296 37.8058 68.7006 39.3411 68.7006 41.081C68.7006 42.821 68.3253 44.3562 67.5748 45.6868C66.8242 47.0174 65.7367 48.0536 64.3123 48.7957C62.8965 49.5377 61.1821 49.9087 59.1692 49.9087H52.5804V45.4693H58.2737C59.3398 45.4693 60.2183 45.2859 60.9092 44.9192C61.6086 44.5439 62.1289 44.0279 62.47 43.3711C62.8197 42.7058 62.9946 41.9425 62.9946 41.081C62.9946 40.2111 62.8197 39.452 62.47 38.8037C62.1289 38.147 61.6086 37.6395 60.9092 37.2813C60.2098 36.9145 59.3228 36.7312 58.2481 36.7312H54.5123V58.4038H48.9726ZM76.3117 58.7748C75.0579 58.7748 73.9406 58.5573 72.9597 58.1223C71.9789 57.6788 71.2027 57.0263 70.6313 56.1649C70.0683 55.2949 69.7869 54.2117 69.7869 52.9153C69.7869 51.8235 69.9873 50.9067 70.3882 50.1646C70.7891 49.4226 71.3349 48.8255 72.0258 48.3735C72.7167 47.9214 73.5013 47.5803 74.3798 47.35C75.2669 47.1197 76.1966 46.9576 77.1689 46.8638C78.3118 46.7444 79.2329 46.6335 79.9323 46.5312C80.6317 46.4203 81.1392 46.2583 81.4548 46.045C81.7704 45.8318 81.9282 45.5162 81.9282 45.0983V45.0215C81.9282 44.2113 81.6723 43.5844 81.1605 43.1408C80.6573 42.6973 79.9409 42.4756 79.0112 42.4756C78.0303 42.4756 77.2499 42.6931 76.6699 43.128C76.0899 43.5545 75.7061 44.0918 75.5185 44.7401L70.4777 44.3307C70.7336 43.1366 71.2368 42.1045 71.9874 41.2346C72.738 40.3561 73.706 39.6823 74.8916 39.2131C76.0857 38.7355 77.4674 38.4967 79.0368 38.4967C80.1285 38.4967 81.1733 38.6246 82.1712 38.8805C83.1777 39.1364 84.069 39.533 84.8451 40.0703C85.6298 40.6077 86.2482 41.2985 86.7002 42.1429C87.1523 42.9788 87.3783 43.981 87.3783 45.1495V58.4038H82.2096V55.6787H82.0561C81.7405 56.2928 81.3183 56.8344 80.7895 57.3035C80.2607 57.7641 79.6253 58.1266 78.8832 58.391C78.1412 58.6469 77.284 58.7748 76.3117 58.7748ZM77.8725 55.0135C78.6743 55.0135 79.3822 54.8557 79.9963 54.5401C80.6104 54.216 81.0923 53.781 81.442 53.2351C81.7917 52.6893 81.9665 52.0709 81.9665 51.38V49.2946C81.796 49.4055 81.5614 49.5079 81.2629 49.6017C80.9729 49.687 80.6445 49.768 80.2778 49.8448C79.911 49.913 79.5443 49.977 79.1775 50.0367C78.8108 50.0879 78.4781 50.1348 78.1796 50.1774C77.5399 50.2712 76.9812 50.4205 76.5036 50.6252C76.026 50.8299 75.655 51.1071 75.3905 51.4568C75.1261 51.798 74.9939 52.2244 74.9939 52.7362C74.9939 53.4782 75.2626 54.0454 75.7999 54.4377C76.3458 54.8216 77.0367 55.0135 77.8725 55.0135ZM99.4992 66.1824C97.7337 66.1824 96.2198 65.9393 94.9574 65.4532C93.7036 64.9755 92.7057 64.3231 91.9637 63.4957C91.2217 62.6684 90.7398 61.7387 90.518 60.7067L95.5587 60.0286C95.7123 60.421 95.9553 60.7877 96.288 61.1289C96.6206 61.47 97.0599 61.743 97.6057 61.9477C98.1601 62.1609 98.8339 62.2675 99.6272 62.2675C100.813 62.2675 101.789 61.9775 102.557 61.3976C103.333 60.8261 103.721 59.8666 103.721 58.519V54.9239H103.491C103.252 55.4698 102.894 55.9858 102.416 56.4719C101.939 56.9581 101.324 57.3547 100.574 57.6618C99.8233 57.9688 98.9278 58.1223 97.8872 58.1223C96.4117 58.1223 95.0683 57.7812 93.8572 57.0988C92.6546 56.408 91.695 55.3546 90.9786 53.9388C90.2706 52.5144 89.9167 50.7148 89.9167 48.5398C89.9167 46.3137 90.2792 44.4543 91.0042 42.9617C91.7291 41.4691 92.6929 40.3518 93.8955 39.6098C95.1067 38.8677 96.433 38.4967 97.8744 38.4967C98.9747 38.4967 99.8958 38.6843 100.638 39.0596C101.38 39.4264 101.977 39.887 102.429 40.4414C102.89 40.9872 103.244 41.5246 103.491 42.0534H103.696V38.7526H109.107V58.5957C109.107 60.2674 108.698 61.6662 107.879 62.7921C107.06 63.9179 105.926 64.7623 104.476 65.3252C103.035 65.8967 101.376 66.1824 99.4992 66.1824ZM99.6144 54.0283C100.493 54.0283 101.235 53.8108 101.84 53.3759C102.455 52.9323 102.924 52.3012 103.248 51.4824C103.58 50.655 103.747 49.6657 103.747 48.5142C103.747 47.3628 103.585 46.3649 103.261 45.5205C102.936 44.6676 102.467 44.0065 101.853 43.5374C101.239 43.0683 100.493 42.8338 99.6144 42.8338C98.7188 42.8338 97.964 43.0769 97.3499 43.563C96.7358 44.0407 96.2709 44.7059 95.9553 45.5589C95.6398 46.4118 95.482 47.3969 95.482 48.5142C95.482 49.6486 95.6398 50.6295 95.9553 51.4568C96.2795 52.2756 96.7443 52.911 97.3499 53.3631C97.964 53.8066 98.7188 54.0283 99.6144 54.0283ZM118.087 58.7748C116.834 58.7748 115.716 58.5573 114.735 58.1223C113.755 57.6788 112.978 57.0263 112.407 56.1649C111.844 55.2949 111.563 54.2117 111.563 52.9153C111.563 51.8235 111.763 50.9067 112.164 50.1646C112.565 49.4226 113.111 48.8255 113.801 48.3735C114.492 47.9214 115.277 47.5803 116.156 47.35C117.043 47.1197 117.972 46.9576 118.945 46.8638C120.087 46.7444 121.009 46.6335 121.708 46.5312C122.407 46.4203 122.915 46.2583 123.23 46.045C123.546 45.8318 123.704 45.5162 123.704 45.0983V45.0215C123.704 44.2113 123.448 43.5844 122.936 43.1408C122.433 42.6973 121.717 42.4756 120.787 42.4756C119.806 42.4756 119.026 42.6931 118.446 43.128C117.866 43.5545 117.482 44.0918 117.294 44.7401L112.253 44.3307C112.509 43.1366 113.013 42.1045 113.763 41.2346C114.514 40.3561 115.482 39.6823 116.667 39.2131C117.861 38.7355 119.243 38.4967 120.812 38.4967C121.904 38.4967 122.949 38.6246 123.947 38.8805C124.953 39.1364 125.845 39.533 126.621 40.0703C127.406 40.6077 128.024 41.2985 128.476 42.1429C128.928 42.9788 129.154 43.981 129.154 45.1495V58.4038H123.985V55.6787H123.832C123.516 56.2928 123.094 56.8344 122.565 57.3035C122.036 57.7641 121.401 58.1266 120.659 58.391C119.917 58.6469 119.06 58.7748 118.087 58.7748ZM119.648 55.0135C120.45 55.0135 121.158 54.8557 121.772 54.5401C122.386 54.216 122.868 53.781 123.218 53.2351C123.567 52.6893 123.742 52.0709 123.742 51.38V49.2946C123.572 49.4055 123.337 49.5079 123.039 49.6017C122.749 49.687 122.42 49.768 122.053 49.8448C121.687 49.913 121.32 49.977 120.953 50.0367C120.586 50.0879 120.254 50.1348 119.955 50.1774C119.316 50.2712 118.757 50.4205 118.279 50.6252C117.802 50.8299 117.431 51.1071 117.166 51.4568C116.902 51.798 116.77 52.2244 116.77 52.7362C116.77 53.4782 117.038 54.0454 117.576 54.4377C118.121 54.8216 118.812 55.0135 119.648 55.0135ZM132.422 58.4038V38.7526H137.616V42.2197H137.846C138.256 41.0682 138.938 40.1599 139.893 39.4946C140.848 38.8293 141.991 38.4967 143.322 38.4967C144.67 38.4967 145.817 38.8336 146.763 39.5074C147.71 40.1727 148.341 41.0768 148.657 42.2197H148.862C149.262 41.0938 149.987 40.194 151.037 39.5202C152.094 38.8379 153.344 38.4967 154.785 38.4967C156.619 38.4967 158.107 39.0809 159.25 40.2494C160.402 41.4094 160.977 43.0555 160.977 45.1878V58.4038H155.54V46.2625C155.54 45.1708 155.25 44.352 154.67 43.8061C154.09 43.2602 153.365 42.9873 152.495 42.9873C151.506 42.9873 150.734 43.3029 150.179 43.9341C149.625 44.5567 149.348 45.3797 149.348 46.4032V58.4038H144.064V46.1474C144.064 45.1836 143.787 44.4159 143.232 43.8445C142.686 43.273 141.966 42.9873 141.07 42.9873C140.465 42.9873 139.919 43.1408 139.433 43.4479C138.955 43.7464 138.575 44.1686 138.294 44.7145C138.012 45.2518 137.872 45.883 137.872 46.6079V58.4038H132.422ZM173.277 58.7876C171.256 58.7876 169.516 58.3782 168.057 57.5594C166.608 56.7321 165.49 55.5636 164.705 54.0539C163.921 52.5357 163.528 50.7403 163.528 48.6677C163.528 46.6463 163.921 44.8723 164.705 43.3455C165.49 41.8188 166.595 40.629 168.019 39.7761C169.452 38.9232 171.132 38.4967 173.06 38.4967C174.356 38.4967 175.563 38.7057 176.68 39.1236C177.806 39.533 178.787 40.1514 179.623 40.9787C180.467 41.806 181.124 42.8466 181.593 44.1004C182.062 45.3456 182.297 46.8041 182.297 48.4758V49.9727H165.703V46.5952H177.167C177.167 45.8105 176.996 45.1153 176.655 44.5098C176.314 43.9042 175.84 43.4308 175.235 43.0897C174.638 42.74 173.943 42.5651 173.149 42.5651C172.322 42.5651 171.589 42.757 170.949 43.1408C170.318 43.5161 169.823 44.0236 169.465 44.6633C169.107 45.2945 168.923 45.9981 168.915 46.7743V49.9855C168.915 50.9578 169.094 51.798 169.452 52.5059C169.819 53.2138 170.335 53.7597 171 54.1435C171.665 54.5273 172.454 54.7192 173.367 54.7192C173.972 54.7192 174.527 54.6339 175.03 54.4633C175.533 54.2927 175.964 54.0369 176.322 53.6957C176.68 53.3545 176.953 52.9366 177.141 52.4419L182.182 52.7745C181.926 53.9857 181.401 55.0433 180.608 55.9474C179.823 56.843 178.809 57.5424 177.563 58.0456C176.327 58.5403 174.898 58.7876 173.277 58.7876ZM190.343 47.0429V58.4038H184.893V38.7526H190.087V42.2197H190.317C190.752 41.0768 191.482 40.1727 192.505 39.5074C193.529 38.8336 194.77 38.4967 196.228 38.4967C197.593 38.4967 198.783 38.7952 199.798 39.3923C200.813 39.9893 201.602 40.8422 202.164 41.951C202.727 43.0513 203.009 44.3648 203.009 45.8915V58.4038H197.559V46.8638C197.567 45.6612 197.26 44.723 196.638 44.0492C196.015 43.3669 195.158 43.0257 194.066 43.0257C193.333 43.0257 192.684 43.1835 192.121 43.4991C191.567 43.8146 191.132 44.2752 190.816 44.8808C190.509 45.4778 190.352 46.1985 190.343 47.0429ZM216.796 38.7526V42.8466H204.962V38.7526H216.796ZM207.649 34.0445H213.099V52.3651C213.099 52.8684 213.176 53.2607 213.329 53.5422C213.483 53.8151 213.696 54.007 213.969 54.1179C214.25 54.2288 214.574 54.2842 214.941 54.2842C215.197 54.2842 215.453 54.2629 215.709 54.2202C215.965 54.1691 216.161 54.1307 216.297 54.1051L217.154 58.1607C216.881 58.246 216.498 58.3441 216.003 58.455C215.508 58.5744 214.907 58.6469 214.199 58.6725C212.886 58.7237 211.734 58.5488 210.745 58.1479C209.764 57.7471 209 57.1244 208.455 56.28C207.909 55.4357 207.64 54.3695 207.649 53.0816V34.0445ZM228.053 58.7876C226.066 58.7876 224.348 58.3654 222.898 57.521C221.456 56.6681 220.343 55.4826 219.558 53.9644C218.774 52.4376 218.381 50.6678 218.381 48.655C218.381 46.625 218.774 44.8509 219.558 43.3327C220.343 41.806 221.456 40.6205 222.898 39.7761C224.348 38.9232 226.066 38.4967 228.053 38.4967C230.041 38.4967 231.755 38.9232 233.197 39.7761C234.647 40.6205 235.764 41.806 236.549 43.3327C237.333 44.8509 237.726 46.625 237.726 48.655C237.726 50.6678 237.333 52.4376 236.549 53.9644C235.764 55.4826 234.647 56.6681 233.197 57.521C231.755 58.3654 230.041 58.7876 228.053 58.7876ZM228.079 54.5657C228.983 54.5657 229.738 54.3098 230.344 53.7981C230.949 53.2778 231.405 52.5698 231.713 51.6743C232.028 50.7787 232.186 49.7595 232.186 48.6166C232.186 47.4737 232.028 46.4544 231.713 45.5589C231.405 44.6633 230.949 43.9554 230.344 43.4351C229.738 42.9148 228.983 42.6547 228.079 42.6547C227.166 42.6547 226.399 42.9148 225.776 43.4351C225.162 43.9554 224.697 44.6633 224.382 45.5589C224.075 46.4544 223.921 47.4737 223.921 48.6166C223.921 49.7595 224.075 50.7787 224.382 51.6743C224.697 52.5698 225.162 53.2778 225.776 53.7981C226.399 54.3098 227.166 54.5657 228.079 54.5657ZM253.136 47.0429V58.4038H247.686V38.7526H252.881V42.2197H253.111C253.546 41.0768 254.275 40.1727 255.299 39.5074C256.322 38.8336 257.563 38.4967 259.022 38.4967C260.386 38.4967 261.576 38.7952 262.591 39.3923C263.606 39.9893 264.395 40.8422 264.958 41.951C265.521 43.0513 265.802 44.3648 265.802 45.8915V58.4038H260.352V46.8638C260.361 45.6612 260.054 44.723 259.431 44.0492C258.808 43.3669 257.951 43.0257 256.859 43.0257C256.126 43.0257 255.478 43.1835 254.915 43.4991C254.36 43.8146 253.925 44.2752 253.61 44.8808C253.303 45.4778 253.145 46.1985 253.136 47.0429ZM274.741 58.7748C273.487 58.7748 272.37 58.5573 271.389 58.1223C270.408 57.6788 269.632 57.0263 269.06 56.1649C268.497 55.2949 268.216 54.2117 268.216 52.9153C268.216 51.8235 268.416 50.9067 268.817 50.1646C269.218 49.4226 269.764 48.8255 270.455 48.3735C271.146 47.9214 271.93 47.5803 272.809 47.35C273.696 47.1197 274.626 46.9576 275.598 46.8638C276.741 46.7444 277.662 46.6335 278.361 46.5312C279.061 46.4203 279.568 46.2583 279.884 46.045C280.199 45.8318 280.357 45.5162 280.357 45.0983V45.0215C280.357 44.2113 280.101 43.5844 279.59 43.1408C279.086 42.6973 278.37 42.4756 277.44 42.4756C276.459 42.4756 275.679 42.6931 275.099 43.128C274.519 43.5545 274.135 44.0918 273.948 44.7401L268.907 44.3307C269.163 43.1366 269.666 42.1045 270.416 41.2346C271.167 40.3561 272.135 39.6823 273.321 39.2131C274.515 38.7355 275.896 38.4967 277.466 38.4967C278.558 38.4967 279.602 38.6246 280.6 38.8805C281.607 39.1364 282.498 39.533 283.274 40.0703C284.059 40.6077 284.677 41.2985 285.129 42.1429C285.581 42.9788 285.807 43.981 285.807 45.1495V58.4038H280.639V55.6787H280.485C280.17 56.2928 279.747 56.8344 279.219 57.3035C278.69 57.7641 278.054 58.1266 277.312 58.391C276.57 58.6469 275.713 58.7748 274.741 58.7748ZM276.302 55.0135C277.103 55.0135 277.811 54.8557 278.425 54.5401C279.039 54.216 279.521 53.781 279.871 53.2351C280.221 52.6893 280.396 52.0709 280.396 51.38V49.2946C280.225 49.4055 279.99 49.5079 279.692 49.6017C279.402 49.687 279.074 49.768 278.707 49.8448C278.34 49.913 277.973 49.977 277.607 50.0367C277.24 50.0879 276.907 50.1348 276.609 50.1774C275.969 50.2712 275.41 50.4205 274.933 50.6252C274.455 50.8299 274.084 51.1071 273.82 51.4568C273.555 51.798 273.423 52.2244 273.423 52.7362C273.423 53.4782 273.692 54.0454 274.229 54.4377C274.775 54.8216 275.466 55.0135 276.302 55.0135ZM296.555 58.4038V32.2022H314.21V36.7695H302.095V43.0129H313.302V47.5803H302.095V53.8364H314.262V58.4038H296.555ZM323.002 47.0429V58.4038H317.552V38.7526H322.746V42.2197H322.976C323.411 41.0768 324.14 40.1727 325.164 39.5074C326.187 38.8336 327.428 38.4967 328.887 38.4967C330.252 38.4967 331.441 38.7952 332.456 39.3923C333.471 39.9893 334.26 40.8422 334.823 41.951C335.386 43.0513 335.668 44.3648 335.668 45.8915V58.4038H330.217V46.8638C330.226 45.6612 329.919 44.723 329.296 44.0492C328.674 43.3669 327.816 43.0257 326.725 43.0257C325.991 43.0257 325.343 43.1835 324.78 43.4991C324.226 43.8146 323.791 44.2752 323.475 44.8808C323.168 45.4778 323.01 46.1985 323.002 47.0429ZM349.455 38.7526V42.8466H337.621V38.7526H349.455ZM340.307 34.0445H345.757V52.3651C345.757 52.8684 345.834 53.2607 345.988 53.5422C346.141 53.8151 346.354 54.007 346.627 54.1179C346.909 54.2288 347.233 54.2842 347.6 54.2842C347.856 54.2842 348.111 54.2629 348.367 54.2202C348.623 54.1691 348.819 54.1307 348.956 54.1051L349.813 58.1607C349.54 58.246 349.156 58.3441 348.662 58.455C348.167 58.5744 347.566 58.6469 346.858 58.6725C345.544 58.7237 344.393 58.5488 343.403 58.1479C342.423 57.7471 341.659 57.1244 341.113 56.28C340.567 55.4357 340.299 54.3695 340.307 53.0816V34.0445ZM352.044 58.4038V38.7526H357.328V42.1813H357.533C357.891 40.9616 358.492 40.0405 359.337 39.4179C360.181 38.7867 361.154 38.4711 362.254 38.4711C362.527 38.4711 362.821 38.4882 363.137 38.5223C363.452 38.5564 363.729 38.6033 363.968 38.663V43.4991C363.712 43.4223 363.358 43.3541 362.906 43.2944C362.454 43.2347 362.041 43.2048 361.665 43.2048C360.864 43.2048 360.147 43.3797 359.516 43.7294C358.893 44.0705 358.399 44.5482 358.032 45.1623C357.674 45.7764 357.495 46.4843 357.495 47.286V58.4038H352.044ZM373.866 58.7876C371.845 58.7876 370.105 58.3782 368.646 57.5594C367.196 56.7321 366.079 55.5636 365.294 54.0539C364.51 52.5357 364.117 50.7403 364.117 48.6677C364.117 46.6463 364.51 44.8723 365.294 43.3455C366.079 41.8188 367.184 40.629 368.608 39.7761C370.041 38.9232 371.721 38.4967 373.649 38.4967C374.945 38.4967 376.152 38.7057 377.269 39.1236C378.395 39.533 379.376 40.1514 380.212 40.9787C381.056 41.806 381.713 42.8466 382.182 44.1004C382.651 45.3456 382.886 46.8041 382.886 48.4758V49.9727H366.292V46.5952H377.755C377.755 45.8105 377.585 45.1153 377.244 44.5098C376.903 43.9042 376.429 43.4308 375.824 43.0897C375.227 42.74 374.531 42.5651 373.738 42.5651C372.911 42.5651 372.177 42.757 371.538 43.1408C370.907 43.5161 370.412 44.0236 370.054 44.6633C369.695 45.2945 369.512 45.9981 369.503 46.7743V49.9855C369.503 50.9578 369.683 51.798 370.041 52.5059C370.408 53.2138 370.924 53.7597 371.589 54.1435C372.254 54.5273 373.043 54.7192 373.956 54.7192C374.561 54.7192 375.116 54.6339 375.619 54.4633C376.122 54.2927 376.553 54.0369 376.911 53.6957C377.269 53.3545 377.542 52.9366 377.73 52.4419L382.771 52.7745C382.515 53.9857 381.99 55.0433 381.197 55.9474C380.412 56.843 379.397 57.5424 378.152 58.0456C376.915 58.5403 375.487 58.7876 373.866 58.7876ZM394.335 66.1824C392.569 66.1824 391.056 65.9393 389.793 65.4532C388.539 64.9755 387.542 64.3231 386.799 63.4957C386.057 62.6684 385.576 61.7387 385.354 60.7067L390.395 60.0286C390.548 60.421 390.791 60.7877 391.124 61.1289C391.456 61.47 391.896 61.743 392.442 61.9477C392.996 62.1609 393.67 62.2675 394.463 62.2675C395.648 62.2675 396.625 61.9775 397.393 61.3976C398.169 60.8261 398.557 59.8666 398.557 58.519V54.9239H398.327C398.088 55.4698 397.73 55.9858 397.252 56.4719C396.774 56.9581 396.16 57.3547 395.41 57.6618C394.659 57.9688 393.764 58.1223 392.723 58.1223C391.247 58.1223 389.904 57.7812 388.693 57.0988C387.49 56.408 386.531 55.3546 385.814 53.9388C385.106 52.5144 384.752 50.7148 384.752 48.5398C384.752 46.3137 385.115 44.4543 385.84 42.9617C386.565 41.4691 387.529 40.3518 388.731 39.6098C389.942 38.8677 391.269 38.4967 392.71 38.4967C393.81 38.4967 394.732 38.6843 395.474 39.0596C396.216 39.4264 396.813 39.887 397.265 40.4414C397.725 40.9872 398.079 41.5246 398.327 42.0534H398.531V38.7526H403.943V58.5957C403.943 60.2674 403.534 61.6662 402.715 62.7921C401.896 63.9179 400.762 64.7623 399.312 65.3252C397.87 65.8967 396.211 66.1824 394.335 66.1824ZM394.45 54.0283C395.329 54.0283 396.071 53.8108 396.676 53.3759C397.29 52.9323 397.759 52.3012 398.084 51.4824C398.416 50.655 398.583 49.6657 398.583 48.5142C398.583 47.3628 398.42 46.3649 398.096 45.5205C397.772 44.6676 397.303 44.0065 396.689 43.5374C396.075 43.0683 395.329 42.8338 394.45 42.8338C393.555 42.8338 392.8 43.0769 392.186 43.563C391.572 44.0407 391.107 44.7059 390.791 45.5589C390.476 46.4118 390.318 47.3969 390.318 48.5142C390.318 49.6486 390.476 50.6295 390.791 51.4568C391.115 52.2756 391.58 52.911 392.186 53.3631C392.8 53.8066 393.555 54.0283 394.45 54.0283ZM412.923 58.7748C411.669 58.7748 410.552 58.5573 409.571 58.1223C408.59 57.6788 407.814 57.0263 407.243 56.1649C406.68 55.2949 406.398 54.2117 406.398 52.9153C406.398 51.8235 406.599 50.9067 407 50.1646C407.4 49.4226 407.946 48.8255 408.637 48.3735C409.328 47.9214 410.113 47.5803 410.991 47.35C411.878 47.1197 412.808 46.9576 413.78 46.8638C414.923 46.7444 415.844 46.6335 416.544 46.5312C417.243 46.4203 417.751 46.2583 418.066 46.045C418.382 45.8318 418.54 45.5162 418.54 45.0983V45.0215C418.54 44.2113 418.284 43.5844 417.772 43.1408C417.269 42.6973 416.552 42.4756 415.623 42.4756C414.642 42.4756 413.861 42.6931 413.281 43.128C412.701 43.5545 412.318 44.0918 412.13 44.7401L407.089 44.3307C407.345 43.1366 407.848 42.1045 408.599 41.2346C409.349 40.3561 410.317 39.6823 411.503 39.2131C412.697 38.7355 414.079 38.4967 415.648 38.4967C416.74 38.4967 417.785 38.6246 418.783 38.8805C419.789 39.1364 420.68 39.533 421.457 40.0703C422.241 40.6077 422.86 41.2985 423.312 42.1429C423.764 42.9788 423.99 43.981 423.99 45.1495V58.4038H418.821V55.6787H418.668C418.352 56.2928 417.93 56.8344 417.401 57.3035C416.872 57.7641 416.237 58.1266 415.495 58.391C414.753 58.6469 413.895 58.7748 412.923 58.7748ZM414.484 55.0135C415.286 55.0135 415.994 54.8557 416.608 54.5401C417.222 54.216 417.704 53.781 418.053 53.2351C418.403 52.6893 418.578 52.0709 418.578 51.38V49.2946C418.407 49.4055 418.173 49.5079 417.874 49.6017C417.584 49.687 417.256 49.768 416.889 49.8448C416.522 49.913 416.156 49.977 415.789 50.0367C415.422 50.0879 415.09 50.1348 414.791 50.1774C414.151 50.2712 413.593 50.4205 413.115 50.6252C412.637 50.8299 412.266 51.1071 412.002 51.4568C411.738 51.798 411.605 52.2244 411.605 52.7362C411.605 53.4782 411.874 54.0454 412.411 54.4377C412.957 54.8216 413.648 55.0135 414.484 55.0135Z" fill="white"/>
</svg>
