<svg width="741" height="94" viewBox="0 0 741 94" fill="none" xmlns="http://www.w3.org/2000/svg">
<rect x="0.28125" y="0.0722656" width="739.871" height="93" rx="46.5" fill="black"/>
<rect x="446.547" y="11.6753" width="276.543" height="68.3027" rx="34.1513" fill="white"/>
<rect x="572.711" y="16.6926" width="141.801" height="58.268" rx="29.134" fill="#FF3000"/>
<path d="M637.049 35.0705V55.7683H633.269L624.264 42.7412H624.112V55.7683H619.736V35.0705H623.577L632.511 48.0875H632.693V35.0705H637.049ZM644.251 56.0614C643.261 56.0614 642.378 55.8896 641.603 55.546C640.828 55.1956 640.215 54.6802 639.764 53.9997C639.319 53.3125 639.097 52.4568 639.097 51.4327C639.097 50.5703 639.255 49.846 639.572 49.2598C639.888 48.6737 640.32 48.202 640.865 47.8449C641.411 47.4879 642.031 47.2184 642.725 47.0364C643.426 46.8545 644.16 46.7265 644.928 46.6524C645.831 46.5581 646.559 46.4705 647.111 46.3896C647.664 46.302 648.064 46.174 648.314 46.0056C648.563 45.8372 648.688 45.5879 648.688 45.2577V45.1971C648.688 44.557 648.485 44.0618 648.081 43.7115C647.684 43.3611 647.118 43.1859 646.383 43.1859C645.609 43.1859 644.992 43.3577 644.534 43.7013C644.076 44.0382 643.773 44.4627 643.624 44.9747L639.642 44.6513C639.845 43.7081 640.242 42.8928 640.835 42.2056C641.428 41.5116 642.193 40.9794 643.129 40.6088C644.072 40.2315 645.164 40.0429 646.404 40.0429C647.266 40.0429 648.091 40.1439 648.88 40.346C649.675 40.5482 650.379 40.8615 650.992 41.2859C651.612 41.7104 652.1 42.2561 652.457 42.9232C652.814 43.5834 652.993 44.3751 652.993 45.2981V55.7683H648.91V53.6157H648.789C648.539 54.1008 648.206 54.5286 647.788 54.8992C647.37 55.263 646.868 55.5493 646.282 55.7582C645.696 55.9603 645.019 56.0614 644.251 56.0614ZM645.484 53.0901C646.117 53.0901 646.676 52.9655 647.162 52.7162C647.647 52.4602 648.027 52.1166 648.304 51.6854C648.58 51.2541 648.718 50.7657 648.718 50.2199V48.5726C648.583 48.6602 648.398 48.741 648.162 48.8152C647.933 48.8825 647.674 48.9465 647.384 49.0072C647.094 49.0611 646.804 49.1116 646.515 49.1588C646.225 49.1992 645.962 49.2362 645.726 49.2699C645.221 49.344 644.78 49.462 644.403 49.6237C644.025 49.7854 643.732 50.0043 643.523 50.2806C643.314 50.5501 643.21 50.887 643.21 51.2912C643.21 51.8774 643.422 52.3254 643.847 52.6353C644.278 52.9385 644.824 53.0901 645.484 53.0901ZM643.675 38.3349L641.28 38.3046C641.28 37.0177 641.596 36.0306 642.23 35.3434C642.87 34.6562 643.648 34.3092 644.564 34.3025C645.036 34.3025 645.44 34.3799 645.777 34.5349C646.121 34.6831 646.427 34.8583 646.697 35.0604C646.973 35.2626 647.236 35.4411 647.485 35.5961C647.734 35.7443 648.004 35.8184 648.293 35.8184C648.684 35.8117 648.981 35.6668 649.183 35.3838C649.392 35.0941 649.496 34.7168 649.496 34.2519L651.851 34.3227C651.837 35.5961 651.514 36.5797 650.881 37.2737C650.247 37.9609 649.476 38.3079 648.566 38.3147C648.061 38.3147 647.637 38.2406 647.293 38.0923C646.956 37.9374 646.66 37.7622 646.404 37.5668C646.148 37.3647 645.898 37.1861 645.656 37.0312C645.413 36.8762 645.14 36.7987 644.837 36.7987C644.487 36.7987 644.204 36.9368 643.988 37.2131C643.779 37.4893 643.675 37.8633 643.675 38.3349ZM662.588 56.0715C661.018 56.0715 659.66 55.738 658.515 55.071C657.376 54.3972 656.497 53.4607 655.877 52.2614C655.257 51.0554 654.948 49.6573 654.948 48.0673C654.948 46.4637 655.257 45.0623 655.877 43.863C656.497 42.657 657.376 41.7205 658.515 41.0535C659.66 40.3797 661.018 40.0429 662.588 40.0429C664.158 40.0429 665.512 40.3797 666.651 41.0535C667.796 41.7205 668.679 42.657 669.299 43.863C669.918 45.0623 670.228 46.4637 670.228 48.0673C670.228 49.6573 669.918 51.0554 669.299 52.2614C668.679 53.4607 667.796 54.3972 666.651 55.071C665.512 55.738 664.158 56.0715 662.588 56.0715ZM662.608 52.7364C663.322 52.7364 663.919 52.5343 664.397 52.13C664.875 51.719 665.236 51.1598 665.478 50.4524C665.728 49.7449 665.852 48.9398 665.852 48.037C665.852 47.1341 665.728 46.329 665.478 45.6215C665.236 44.9141 664.875 44.3549 664.397 43.9439C663.919 43.5329 663.322 43.3274 662.608 43.3274C661.887 43.3274 661.281 43.5329 660.789 43.9439C660.304 44.3549 659.937 44.9141 659.687 45.6215C659.445 46.329 659.324 47.1341 659.324 48.037C659.324 48.9398 659.445 49.7449 659.687 50.4524C659.937 51.1598 660.304 51.719 660.789 52.13C661.281 52.5343 661.887 52.7364 662.608 52.7364Z" fill="white"/>
<path d="M501.23 41.0232C501.149 40.2079 500.802 39.5746 500.189 39.1232C499.576 38.6718 498.744 38.446 497.693 38.446C496.979 38.446 496.376 38.5471 495.884 38.7492C495.392 38.9446 495.015 39.2175 494.752 39.5679C494.496 39.9182 494.368 40.3157 494.368 40.7604C494.355 41.131 494.432 41.4544 494.6 41.7306C494.776 42.0068 495.015 42.246 495.318 42.4482C495.621 42.6435 495.972 42.8154 496.369 42.9636C496.767 43.1051 497.191 43.2263 497.642 43.3274L499.502 43.7721C500.405 43.9742 501.234 44.2437 501.988 44.5806C502.743 44.9175 503.396 45.3318 503.949 45.8237C504.501 46.3155 504.929 46.8949 505.232 47.562C505.542 48.229 505.701 48.9937 505.707 49.8561C505.701 51.1228 505.377 52.221 504.737 53.1508C504.104 54.0738 503.187 54.7914 501.988 55.3034C500.796 55.8087 499.357 56.0614 497.673 56.0614C496.002 56.0614 494.547 55.8054 493.307 55.2933C492.074 54.7813 491.11 54.0233 490.416 53.0194C489.729 52.0088 489.369 50.7589 489.335 49.2699H493.57C493.617 49.9639 493.816 50.5433 494.166 51.0082C494.523 51.4664 494.998 51.8134 495.591 52.0492C496.19 52.2783 496.868 52.3928 497.622 52.3928C498.363 52.3928 499.007 52.285 499.553 52.0694C500.105 51.8538 500.533 51.554 500.836 51.1699C501.139 50.7859 501.291 50.3446 501.291 49.846C501.291 49.3811 501.153 48.9903 500.876 48.6737C500.607 48.357 500.209 48.0875 499.684 47.8652C499.165 47.6428 498.528 47.4407 497.774 47.2588L495.52 46.6928C493.775 46.2684 492.397 45.6047 491.387 44.7019C490.376 43.799 489.874 42.5829 489.881 41.0535C489.874 39.8003 490.208 38.7054 490.881 37.7689C491.562 36.8324 492.495 36.1014 493.681 35.5759C494.867 35.0503 496.214 34.7876 497.723 34.7876C499.259 34.7876 500.6 35.0503 501.746 35.5759C502.898 36.1014 503.794 36.8324 504.434 37.7689C505.074 38.7054 505.404 39.7902 505.424 41.0232H501.23ZM507.811 55.7683V40.245H512.116V55.7683H507.811ZM509.974 38.2439C509.334 38.2439 508.785 38.0317 508.326 37.6072C507.875 37.176 507.649 36.6606 507.649 36.061C507.649 35.468 507.875 34.9594 508.326 34.5349C508.785 34.1037 509.334 33.8881 509.974 33.8881C510.614 33.8881 511.16 34.1037 511.611 34.5349C512.069 34.9594 512.298 35.468 512.298 36.061C512.298 36.6606 512.069 37.176 511.611 37.6072C511.16 38.0317 510.614 38.2439 509.974 38.2439ZM514.806 55.7683V40.245H518.909V42.9838H519.091C519.415 42.0742 519.954 41.3567 520.708 40.8311C521.463 40.3056 522.366 40.0429 523.417 40.0429C524.481 40.0429 525.388 40.309 526.135 40.8413C526.883 41.3668 527.382 42.081 527.631 42.9838H527.793C528.109 42.0944 528.682 41.3836 529.511 40.8514C530.346 40.3124 531.333 40.0429 532.472 40.0429C533.921 40.0429 535.096 40.5044 535.999 41.4274C536.909 42.3437 537.364 43.6441 537.364 45.3285V55.7683H533.068V46.1774C533.068 45.315 532.839 44.6682 532.381 44.237C531.923 43.8058 531.35 43.5902 530.663 43.5902C529.881 43.5902 529.272 43.8395 528.834 44.338C528.396 44.8299 528.177 45.4801 528.177 46.2886V55.7683H524.003V46.0864C524.003 45.3251 523.784 44.7187 523.346 44.2673C522.915 43.8159 522.345 43.5902 521.638 43.5902C521.16 43.5902 520.728 43.7115 520.344 43.954C519.967 44.1898 519.667 44.5233 519.445 44.9545C519.223 45.379 519.111 45.8776 519.111 46.4503V55.7683H514.806Z" fill="#888888"/>
<path d="M46.2695 58.4038V32.2022H56.6068C58.5941 32.2022 60.2872 32.5817 61.686 33.3408C63.0848 34.0914 64.1509 35.1362 64.8844 36.4753C65.6265 37.8058 65.9975 39.3411 65.9975 41.081C65.9975 42.821 65.6222 44.3562 64.8716 45.6868C64.1211 47.0174 63.0336 48.0536 61.6092 48.7957C60.1934 49.5377 58.479 49.9087 56.4661 49.9087H49.8773V45.4693H55.5706C56.6367 45.4693 57.5152 45.2859 58.2061 44.9192C58.9055 44.5439 59.4257 44.0279 59.7669 43.3711C60.1166 42.7058 60.2915 41.9425 60.2915 41.081C60.2915 40.2111 60.1166 39.452 59.7669 38.8037C59.4257 38.147 58.9055 37.6395 58.2061 37.2813C57.5067 36.9145 56.6196 36.7312 55.545 36.7312H51.8092V58.4038H46.2695ZM73.6086 58.7748C72.3548 58.7748 71.2375 58.5573 70.2566 58.1223C69.2758 57.6788 68.4996 57.0263 67.9281 56.1649C67.3652 55.2949 67.0838 54.2117 67.0838 52.9153C67.0838 51.8235 67.2842 50.9067 67.6851 50.1646C68.0859 49.4226 68.6318 48.8255 69.3227 48.3735C70.0135 47.9214 70.7982 47.5803 71.6767 47.35C72.5638 47.1197 73.4934 46.9576 74.4658 46.8638C75.6087 46.7444 76.5298 46.6335 77.2292 46.5312C77.9286 46.4203 78.4361 46.2583 78.7517 46.045C79.0673 45.8318 79.225 45.5162 79.225 45.0983V45.0215C79.225 44.2113 78.9692 43.5844 78.4574 43.1408C77.9542 42.6973 77.2377 42.4756 76.3081 42.4756C75.3272 42.4756 74.5468 42.6931 73.9668 43.128C73.3868 43.5545 73.003 44.0918 72.8154 44.7401L67.7746 44.3307C68.0305 43.1366 68.5337 42.1045 69.2843 41.2346C70.0348 40.3561 71.0029 39.6823 72.1885 39.2131C73.3826 38.7355 74.7643 38.4967 76.3336 38.4967C77.4254 38.4967 78.4702 38.6246 79.4681 38.8805C80.4746 39.1364 81.3659 39.533 82.142 40.0703C82.9267 40.6077 83.5451 41.2985 83.9971 42.1429C84.4492 42.9788 84.6752 43.981 84.6752 45.1495V58.4038H79.5065V55.6787H79.353C79.0374 56.2928 78.6152 56.8344 78.0864 57.3035C77.5576 57.7641 76.9222 58.1266 76.1801 58.391C75.4381 58.6469 74.5809 58.7748 73.6086 58.7748ZM75.1694 55.0135C75.9712 55.0135 76.6791 54.8557 77.2932 54.5401C77.9073 54.216 78.3892 53.781 78.7389 53.2351C79.0886 52.6893 79.2634 52.0709 79.2634 51.38V49.2946C79.0928 49.4055 78.8583 49.5079 78.5598 49.6017C78.2698 49.687 77.9414 49.768 77.5746 49.8448C77.2079 49.913 76.8411 49.977 76.4744 50.0367C76.1076 50.0879 75.775 50.1348 75.4765 50.1774C74.8368 50.2712 74.2781 50.4205 73.8005 50.6252C73.3228 50.8299 72.9518 51.1071 72.6874 51.4568C72.423 51.798 72.2908 52.2244 72.2908 52.7362C72.2908 53.4782 72.5595 54.0454 73.0968 54.4377C73.6427 54.8216 74.3336 55.0135 75.1694 55.0135ZM96.7961 66.1824C95.0306 66.1824 93.5166 65.9393 92.2543 65.4532C91.0005 64.9755 90.0026 64.3231 89.2606 63.4957C88.5185 62.6684 88.0366 61.7387 87.8149 60.7067L92.8556 60.0286C93.0091 60.421 93.2522 60.7877 93.5849 61.1289C93.9175 61.47 94.3568 61.743 94.9026 61.9477C95.457 62.1609 96.1308 62.2675 96.924 62.2675C98.1096 62.2675 99.0862 61.9775 99.8538 61.3976C100.63 60.8261 101.018 59.8666 101.018 58.519V54.9239H100.788C100.549 55.4698 100.191 55.9858 99.7131 56.4719C99.2354 56.9581 98.6213 57.3547 97.8708 57.6618C97.1202 57.9688 96.2246 58.1223 95.1841 58.1223C93.7085 58.1223 92.3652 57.7812 91.154 57.0988C89.9514 56.408 88.9919 55.3546 88.2754 53.9388C87.5675 52.5144 87.2136 50.7148 87.2136 48.5398C87.2136 46.3137 87.5761 44.4543 88.301 42.9617C89.026 41.4691 89.9898 40.3518 91.1924 39.6098C92.4036 38.8677 93.7299 38.4967 95.1713 38.4967C96.2716 38.4967 97.1927 38.6843 97.9347 39.0596C98.6768 39.4264 99.2738 39.887 99.7259 40.4414C100.186 40.9872 100.54 41.5246 100.788 42.0534H100.992V38.7526H106.404V58.5957C106.404 60.2674 105.995 61.6662 105.176 62.7921C104.357 63.9179 103.223 64.7623 101.773 65.3252C100.331 65.8967 98.6725 66.1824 96.7961 66.1824ZM96.9112 54.0283C97.7897 54.0283 98.5318 53.8108 99.1374 53.3759C99.7515 52.9323 100.221 52.3012 100.545 51.4824C100.877 50.655 101.044 49.6657 101.044 48.5142C101.044 47.3628 100.882 46.3649 100.557 45.5205C100.233 44.6676 99.7643 44.0065 99.1502 43.5374C98.536 43.0683 97.7897 42.8338 96.9112 42.8338C96.0157 42.8338 95.2608 43.0769 94.6467 43.563C94.0326 44.0407 93.5678 44.7059 93.2522 45.5589C92.9366 46.4118 92.7789 47.3969 92.7789 48.5142C92.7789 49.6486 92.9366 50.6295 93.2522 51.4568C93.5763 52.2756 94.0412 52.911 94.6467 53.3631C95.2608 53.8066 96.0157 54.0283 96.9112 54.0283ZM115.384 58.7748C114.13 58.7748 113.013 58.5573 112.032 58.1223C111.051 57.6788 110.275 57.0263 109.704 56.1649C109.141 55.2949 108.859 54.2117 108.859 52.9153C108.859 51.8235 109.06 50.9067 109.461 50.1646C109.862 49.4226 110.407 48.8255 111.098 48.3735C111.789 47.9214 112.574 47.5803 113.452 47.35C114.339 47.1197 115.269 46.9576 116.241 46.8638C117.384 46.7444 118.305 46.6335 119.005 46.5312C119.704 46.4203 120.212 46.2583 120.527 46.045C120.843 45.8318 121.001 45.5162 121.001 45.0983V45.0215C121.001 44.2113 120.745 43.5844 120.233 43.1408C119.73 42.6973 119.013 42.4756 118.084 42.4756C117.103 42.4756 116.322 42.6931 115.742 43.128C115.162 43.5545 114.779 44.0918 114.591 44.7401L109.55 44.3307C109.806 43.1366 110.309 42.1045 111.06 41.2346C111.811 40.3561 112.779 39.6823 113.964 39.2131C115.158 38.7355 116.54 38.4967 118.109 38.4967C119.201 38.4967 120.246 38.6246 121.244 38.8805C122.25 39.1364 123.142 39.533 123.918 40.0703C124.702 40.6077 125.321 41.2985 125.773 42.1429C126.225 42.9788 126.451 43.981 126.451 45.1495V58.4038H121.282V55.6787H121.129C120.813 56.2928 120.391 56.8344 119.862 57.3035C119.333 57.7641 118.698 58.1266 117.956 58.391C117.214 58.6469 116.357 58.7748 115.384 58.7748ZM116.945 55.0135C117.747 55.0135 118.455 54.8557 119.069 54.5401C119.683 54.216 120.165 53.781 120.515 53.2351C120.864 52.6893 121.039 52.0709 121.039 51.38V49.2946C120.869 49.4055 120.634 49.5079 120.335 49.6017C120.045 49.687 119.717 49.768 119.35 49.8448C118.984 49.913 118.617 49.977 118.25 50.0367C117.883 50.0879 117.551 50.1348 117.252 50.1774C116.612 50.2712 116.054 50.4205 115.576 50.6252C115.099 50.8299 114.728 51.1071 114.463 51.4568C114.199 51.798 114.066 52.2244 114.066 52.7362C114.066 53.4782 114.335 54.0454 114.872 54.4377C115.418 54.8216 116.109 55.0135 116.945 55.0135ZM129.718 58.4038V38.7526H134.913V42.2197H135.143C135.552 41.0682 136.235 40.1599 137.19 39.4946C138.145 38.8293 139.288 38.4967 140.619 38.4967C141.966 38.4967 143.114 38.8336 144.06 39.5074C145.007 40.1727 145.638 41.0768 145.954 42.2197H146.158C146.559 41.0938 147.284 40.194 148.333 39.5202C149.391 38.8379 150.641 38.4967 152.082 38.4967C153.916 38.4967 155.404 39.0809 156.547 40.2494C157.698 41.4094 158.274 43.0555 158.274 45.1878V58.4038H152.837V46.2625C152.837 45.1708 152.547 44.352 151.967 43.8061C151.387 43.2602 150.662 42.9873 149.792 42.9873C148.803 42.9873 148.031 43.3029 147.476 43.9341C146.922 44.5567 146.645 45.3797 146.645 46.4032V58.4038H141.361V46.1474C141.361 45.1836 141.084 44.4159 140.529 43.8445C139.983 43.273 139.263 42.9873 138.367 42.9873C137.762 42.9873 137.216 43.1408 136.729 43.4479C136.252 43.7464 135.872 44.1686 135.591 44.7145C135.309 45.2518 135.169 45.883 135.169 46.6079V58.4038H129.718ZM170.574 58.7876C168.553 58.7876 166.813 58.3782 165.354 57.5594C163.904 56.7321 162.787 55.5636 162.002 54.0539C161.218 52.5357 160.825 50.7403 160.825 48.6677C160.825 46.6463 161.218 44.8723 162.002 43.3455C162.787 41.8188 163.892 40.629 165.316 39.7761C166.749 38.9232 168.429 38.4967 170.357 38.4967C171.653 38.4967 172.86 38.7057 173.977 39.1236C175.103 39.533 176.084 40.1514 176.92 40.9787C177.764 41.806 178.421 42.8466 178.89 44.1004C179.359 45.3456 179.594 46.8041 179.594 48.4758V49.9727H163V46.5952H174.464C174.464 45.8105 174.293 45.1153 173.952 44.5098C173.611 43.9042 173.137 43.4308 172.532 43.0897C171.935 42.74 171.239 42.5651 170.446 42.5651C169.619 42.5651 168.885 42.757 168.246 43.1408C167.615 43.5161 167.12 44.0236 166.762 44.6633C166.403 45.2945 166.22 45.9981 166.212 46.7743V49.9855C166.212 50.9578 166.391 51.798 166.749 52.5059C167.116 53.2138 167.632 53.7597 168.297 54.1435C168.962 54.5273 169.751 54.7192 170.664 54.7192C171.269 54.7192 171.824 54.6339 172.327 54.4633C172.83 54.2927 173.261 54.0369 173.619 53.6957C173.977 53.3545 174.25 52.9366 174.438 52.4419L179.479 52.7745C179.223 53.9857 178.698 55.0433 177.905 55.9474C177.12 56.843 176.105 57.5424 174.86 58.0456C173.623 58.5403 172.195 58.7876 170.574 58.7876ZM187.64 47.0429V58.4038H182.19V38.7526H187.384V42.2197H187.614C188.049 41.0768 188.779 40.1727 189.802 39.5074C190.826 38.8336 192.067 38.4967 193.525 38.4967C194.89 38.4967 196.08 38.7952 197.095 39.3923C198.109 39.9893 198.898 40.8422 199.461 41.951C200.024 43.0513 200.306 44.3648 200.306 45.8915V58.4038H194.856V46.8638C194.864 45.6612 194.557 44.723 193.934 44.0492C193.312 43.3669 192.455 43.0257 191.363 43.0257C190.629 43.0257 189.981 43.1835 189.418 43.4991C188.864 43.8146 188.429 44.2752 188.113 44.8808C187.806 45.4778 187.648 46.1985 187.64 47.0429ZM214.093 38.7526V42.8466H202.259V38.7526H214.093ZM204.945 34.0445H210.396V52.3651C210.396 52.8684 210.472 53.2607 210.626 53.5422C210.779 53.8151 210.993 54.007 211.266 54.1179C211.547 54.2288 211.871 54.2842 212.238 54.2842C212.494 54.2842 212.75 54.2629 213.006 54.2202C213.261 54.1691 213.458 54.1307 213.594 54.1051L214.451 58.1607C214.178 58.246 213.795 58.3441 213.3 58.455C212.805 58.5744 212.204 58.6469 211.496 58.6725C210.182 58.7237 209.031 58.5488 208.042 58.1479C207.061 57.7471 206.297 57.1244 205.751 56.28C205.206 55.4357 204.937 54.3695 204.945 53.0816V34.0445ZM225.35 58.7876C223.363 58.7876 221.644 58.3654 220.194 57.521C218.753 56.6681 217.64 55.4826 216.855 53.9644C216.071 52.4376 215.678 50.6678 215.678 48.655C215.678 46.625 216.071 44.8509 216.855 43.3327C217.64 41.806 218.753 40.6205 220.194 39.7761C221.644 38.9232 223.363 38.4967 225.35 38.4967C227.338 38.4967 229.052 38.9232 230.493 39.7761C231.943 40.6205 233.061 41.806 233.845 43.3327C234.63 44.8509 235.022 46.625 235.022 48.655C235.022 50.6678 234.63 52.4376 233.845 53.9644C233.061 55.4826 231.943 56.6681 230.493 57.521C229.052 58.3654 227.338 58.7876 225.35 58.7876ZM225.376 54.5657C226.28 54.5657 227.035 54.3098 227.64 53.7981C228.246 53.2778 228.702 52.5698 229.009 51.6743C229.325 50.7787 229.483 49.7595 229.483 48.6166C229.483 47.4737 229.325 46.4544 229.009 45.5589C228.702 44.6633 228.246 43.9554 227.64 43.4351C227.035 42.9148 226.28 42.6547 225.376 42.6547C224.463 42.6547 223.696 42.9148 223.073 43.4351C222.459 43.9554 221.994 44.6633 221.679 45.5589C221.371 46.4544 221.218 47.4737 221.218 48.6166C221.218 49.7595 221.371 50.7787 221.679 51.6743C221.994 52.5698 222.459 53.2778 223.073 53.7981C223.696 54.3098 224.463 54.5657 225.376 54.5657ZM250.433 47.0429V58.4038H244.983V38.7526H250.177V42.2197H250.408C250.843 41.0768 251.572 40.1727 252.596 39.5074C253.619 38.8336 254.86 38.4967 256.318 38.4967C257.683 38.4967 258.873 38.7952 259.888 39.3923C260.903 39.9893 261.692 40.8422 262.255 41.951C262.818 43.0513 263.099 44.3648 263.099 45.8915V58.4038H257.649V46.8638C257.658 45.6612 257.351 44.723 256.728 44.0492C256.105 43.3669 255.248 43.0257 254.156 43.0257C253.423 43.0257 252.775 43.1835 252.212 43.4991C251.657 43.8146 251.222 44.2752 250.907 44.8808C250.6 45.4778 250.442 46.1985 250.433 47.0429ZM272.038 58.7748C270.784 58.7748 269.667 58.5573 268.686 58.1223C267.705 57.6788 266.929 57.0263 266.357 56.1649C265.794 55.2949 265.513 54.2117 265.513 52.9153C265.513 51.8235 265.713 50.9067 266.114 50.1646C266.515 49.4226 267.061 48.8255 267.752 48.3735C268.443 47.9214 269.227 47.5803 270.106 47.35C270.993 47.1197 271.923 46.9576 272.895 46.8638C274.038 46.7444 274.959 46.6335 275.658 46.5312C276.358 46.4203 276.865 46.2583 277.181 46.045C277.496 45.8318 277.654 45.5162 277.654 45.0983V45.0215C277.654 44.2113 277.398 43.5844 276.886 43.1408C276.383 42.6973 275.667 42.4756 274.737 42.4756C273.756 42.4756 272.976 42.6931 272.396 43.128C271.816 43.5545 271.432 44.0918 271.244 44.7401L266.204 44.3307C266.46 43.1366 266.963 42.1045 267.713 41.2346C268.464 40.3561 269.432 39.6823 270.618 39.2131C271.812 38.7355 273.193 38.4967 274.763 38.4967C275.854 38.4967 276.899 38.6246 277.897 38.8805C278.904 39.1364 279.795 39.533 280.571 40.0703C281.356 40.6077 281.974 41.2985 282.426 42.1429C282.878 42.9788 283.104 43.981 283.104 45.1495V58.4038H277.936V55.6787H277.782C277.466 56.2928 277.044 56.8344 276.515 57.3035C275.987 57.7641 275.351 58.1266 274.609 58.391C273.867 58.6469 273.01 58.7748 272.038 58.7748ZM273.598 55.0135C274.4 55.0135 275.108 54.8557 275.722 54.5401C276.336 54.216 276.818 53.781 277.168 53.2351C277.518 52.6893 277.692 52.0709 277.692 51.38V49.2946C277.522 49.4055 277.287 49.5079 276.989 49.6017C276.699 49.687 276.37 49.768 276.004 49.8448C275.637 49.913 275.27 49.977 274.903 50.0367C274.537 50.0879 274.204 50.1348 273.906 50.1774C273.266 50.2712 272.707 50.4205 272.23 50.6252C271.752 50.8299 271.381 51.1071 271.116 51.4568C270.852 51.798 270.72 52.2244 270.72 52.7362C270.72 53.4782 270.989 54.0454 271.526 54.4377C272.072 54.8216 272.763 55.0135 273.598 55.0135ZM293.852 58.4038V32.2022H304.189C306.168 32.2022 307.857 32.5561 309.256 33.264C310.663 33.9634 311.733 34.9571 312.467 36.245C313.209 37.5244 313.58 39.0298 313.58 40.7612C313.58 42.5011 313.205 43.998 312.454 45.2518C311.703 46.4971 310.616 47.4523 309.192 48.1176C307.776 48.7829 306.061 49.1155 304.048 49.1155H297.127V44.6633H303.153C304.211 44.6633 305.089 44.5183 305.788 44.2283C306.488 43.9383 307.008 43.5033 307.349 42.9233C307.699 42.3434 307.874 41.6226 307.874 40.7612C307.874 39.8912 307.699 39.1577 307.349 38.5607C307.008 37.9636 306.484 37.5116 305.776 37.2045C305.076 36.8889 304.193 36.7312 303.127 36.7312H299.392V58.4038H293.852ZM308.002 46.48L314.514 58.4038H308.398L302.027 46.48H308.002ZM325.071 58.7876C323.049 58.7876 321.309 58.3782 319.851 57.5594C318.401 56.7321 317.284 55.5636 316.499 54.0539C315.714 52.5357 315.322 50.7403 315.322 48.6677C315.322 46.6463 315.714 44.8723 316.499 43.3455C317.284 41.8188 318.388 40.629 319.812 39.7761C321.245 38.9232 322.926 38.4967 324.853 38.4967C326.15 38.4967 327.356 38.7057 328.474 39.1236C329.6 39.533 330.58 40.1514 331.416 40.9787C332.261 41.806 332.917 42.8466 333.387 44.1004C333.856 45.3456 334.09 46.8041 334.09 48.4758V49.9727H317.497V46.5952H328.96C328.96 45.8105 328.789 45.1153 328.448 44.5098C328.107 43.9042 327.634 43.4308 327.028 43.0897C326.431 42.74 325.736 42.5651 324.943 42.5651C324.115 42.5651 323.382 42.757 322.742 43.1408C322.111 43.5161 321.616 44.0236 321.258 44.6633C320.9 45.2945 320.716 45.9981 320.708 46.7743V49.9855C320.708 50.9578 320.887 51.798 321.245 52.5059C321.612 53.2138 322.128 53.7597 322.793 54.1435C323.459 54.5273 324.248 54.7192 325.16 54.7192C325.766 54.7192 326.32 54.6339 326.823 54.4633C327.327 54.2927 327.757 54.0369 328.116 53.6957C328.474 53.3545 328.747 52.9366 328.934 52.4419L333.975 52.7745C333.719 53.9857 333.195 55.0433 332.401 55.9474C331.617 56.843 330.602 57.5424 329.357 58.0456C328.12 58.5403 326.691 58.7876 325.071 58.7876ZM347.139 38.7526V42.8466H335.304V38.7526H347.139ZM337.991 34.0445H343.441V52.3651C343.441 52.8684 343.518 53.2607 343.672 53.5422C343.825 53.8151 344.038 54.007 344.311 54.1179C344.593 54.2288 344.917 54.2842 345.284 54.2842C345.539 54.2842 345.795 54.2629 346.051 54.2202C346.307 54.1691 346.503 54.1307 346.64 54.1051L347.497 58.1607C347.224 58.246 346.84 58.3441 346.346 58.455C345.851 58.5744 345.25 58.6469 344.542 58.6725C343.228 58.7237 342.077 58.5488 341.087 58.1479C340.106 57.7471 339.343 57.1244 338.797 56.28C338.251 55.4357 337.983 54.3695 337.991 53.0816V34.0445ZM349.728 58.4038V38.7526H355.178V58.4038H349.728ZM352.466 36.2194C351.656 36.2194 350.961 35.9507 350.381 35.4134C349.809 34.8675 349.524 34.215 349.524 33.456C349.524 32.7054 349.809 32.0614 350.381 31.5241C350.961 30.9782 351.656 30.7053 352.466 30.7053C353.276 30.7053 353.967 30.9782 354.539 31.5241C355.119 32.0614 355.409 32.7054 355.409 33.456C355.409 34.215 355.119 34.8675 354.539 35.4134C353.967 35.9507 353.276 36.2194 352.466 36.2194ZM358.584 58.4038V38.7526H363.867V42.1813H364.072C364.43 40.9616 365.032 40.0405 365.876 39.4179C366.72 38.7867 367.693 38.4711 368.793 38.4711C369.066 38.4711 369.36 38.4882 369.676 38.5223C369.991 38.5564 370.269 38.6033 370.507 38.663V43.4991C370.251 43.4223 369.898 43.3541 369.445 43.2944C368.993 43.2347 368.58 43.2048 368.204 43.2048C367.403 43.2048 366.686 43.3797 366.055 43.7294C365.432 44.0705 364.938 44.5482 364.571 45.1623C364.213 45.7764 364.034 46.4843 364.034 47.286V58.4038H358.584ZM377.405 58.7748C376.151 58.7748 375.034 58.5573 374.053 58.1223C373.072 57.6788 372.296 57.0263 371.725 56.1649C371.162 55.2949 370.88 54.2117 370.88 52.9153C370.88 51.8235 371.081 50.9067 371.482 50.1646C371.883 49.4226 372.428 48.8255 373.119 48.3735C373.81 47.9214 374.595 47.5803 375.473 47.35C376.36 47.1197 377.29 46.9576 378.262 46.8638C379.405 46.7444 380.326 46.6335 381.026 46.5312C381.725 46.4203 382.233 46.2583 382.548 46.045C382.864 45.8318 383.022 45.5162 383.022 45.0983V45.0215C383.022 44.2113 382.766 43.5844 382.254 43.1408C381.751 42.6973 381.034 42.4756 380.105 42.4756C379.124 42.4756 378.343 42.6931 377.763 43.128C377.183 43.5545 376.8 44.0918 376.612 44.7401L371.571 44.3307C371.827 43.1366 372.33 42.1045 373.081 41.2346C373.831 40.3561 374.8 39.6823 375.985 39.2131C377.179 38.7355 378.561 38.4967 380.13 38.4967C381.222 38.4967 382.267 38.6246 383.265 38.8805C384.271 39.1364 385.162 39.533 385.939 40.0703C386.723 40.6077 387.342 41.2985 387.794 42.1429C388.246 42.9788 388.472 43.981 388.472 45.1495V58.4038H383.303V55.6787H383.15C382.834 56.2928 382.412 56.8344 381.883 57.3035C381.354 57.7641 380.719 58.1266 379.977 58.391C379.235 58.6469 378.378 58.7748 377.405 58.7748ZM378.966 55.0135C379.768 55.0135 380.476 54.8557 381.09 54.5401C381.704 54.216 382.186 53.781 382.536 53.2351C382.885 52.6893 383.06 52.0709 383.06 51.38V49.2946C382.889 49.4055 382.655 49.5079 382.356 49.6017C382.066 49.687 381.738 49.768 381.371 49.8448C381.005 49.913 380.638 49.977 380.271 50.0367C379.904 50.0879 379.572 50.1348 379.273 50.1774C378.633 50.2712 378.075 50.4205 377.597 50.6252C377.119 50.8299 376.748 51.1071 376.484 51.4568C376.22 51.798 376.087 52.2244 376.087 52.7362C376.087 53.4782 376.356 54.0454 376.893 54.4377C377.439 54.8216 378.13 55.0135 378.966 55.0135ZM398.981 58.7237C397.488 58.7237 396.136 58.3398 394.925 57.5722C393.722 56.7961 392.767 55.6574 392.059 54.1563C391.36 52.6466 391.01 50.7958 391.01 48.6038C391.01 46.3521 391.373 44.4799 392.098 42.9873C392.823 41.4862 393.786 40.3646 394.989 39.6226C396.2 38.872 397.526 38.4967 398.968 38.4967C400.068 38.4967 400.985 38.6843 401.719 39.0596C402.461 39.4264 403.058 39.887 403.51 40.4414C403.97 40.9872 404.32 41.5246 404.559 42.0534H404.725V32.2022H410.162V58.4038H404.789V55.2565H404.559C404.303 55.8024 403.94 56.344 403.471 56.8813C403.011 57.4102 402.409 57.8494 401.667 58.1991C400.934 58.5488 400.038 58.7237 398.981 58.7237ZM400.708 54.3866C401.586 54.3866 402.328 54.1477 402.934 53.6701C403.548 53.1839 404.017 52.5059 404.341 51.6359C404.674 50.7659 404.84 49.7467 404.84 48.5782C404.84 47.4097 404.678 46.3947 404.354 45.5333C404.03 44.6718 403.561 44.0065 402.947 43.5374C402.333 43.0683 401.586 42.8338 400.708 42.8338C399.812 42.8338 399.057 43.0769 398.443 43.563C397.829 44.0492 397.364 44.723 397.049 45.5844C396.733 46.4459 396.575 47.4438 396.575 48.5782C396.575 49.7211 396.733 50.7318 397.049 51.6103C397.373 52.4803 397.838 53.1626 398.443 53.6573C399.057 54.1435 399.812 54.3866 400.708 54.3866ZM419.286 58.7748C418.033 58.7748 416.915 58.5573 415.934 58.1223C414.954 57.6788 414.177 57.0263 413.606 56.1649C413.043 55.2949 412.762 54.2117 412.762 52.9153C412.762 51.8235 412.962 50.9067 413.363 50.1646C413.764 49.4226 414.31 48.8255 415.001 48.3735C415.691 47.9214 416.476 47.5803 417.355 47.35C418.242 47.1197 419.171 46.9576 420.144 46.8638C421.287 46.7444 422.208 46.6335 422.907 46.5312C423.606 46.4203 424.114 46.2583 424.43 46.045C424.745 45.8318 424.903 45.5162 424.903 45.0983V45.0215C424.903 44.2113 424.647 43.5844 424.135 43.1408C423.632 42.6973 422.916 42.4756 421.986 42.4756C421.005 42.4756 420.225 42.6931 419.645 43.128C419.065 43.5545 418.681 44.0918 418.493 44.7401L413.452 44.3307C413.708 43.1366 414.212 42.1045 414.962 41.2346C415.713 40.3561 416.681 39.6823 417.866 39.2131C419.06 38.7355 420.442 38.4967 422.012 38.4967C423.103 38.4967 424.148 38.6246 425.146 38.8805C426.152 39.1364 427.044 39.533 427.82 40.0703C428.605 40.6077 429.223 41.2985 429.675 42.1429C430.127 42.9788 430.353 43.981 430.353 45.1495V58.4038H425.184V55.6787H425.031C424.715 56.2928 424.293 56.8344 423.764 57.3035C423.235 57.7641 422.6 58.1266 421.858 58.391C421.116 58.6469 420.259 58.7748 419.286 58.7748ZM420.847 55.0135C421.649 55.0135 422.357 54.8557 422.971 54.5401C423.585 54.216 424.067 53.781 424.417 53.2351C424.766 52.6893 424.941 52.0709 424.941 51.38V49.2946C424.771 49.4055 424.536 49.5079 424.238 49.6017C423.948 49.687 423.619 49.768 423.252 49.8448C422.886 49.913 422.519 49.977 422.152 50.0367C421.785 50.0879 421.453 50.1348 421.154 50.1774C420.515 50.2712 419.956 50.4205 419.478 50.6252C419.001 50.8299 418.63 51.1071 418.365 51.4568C418.101 51.798 417.969 52.2244 417.969 52.7362C417.969 53.4782 418.237 54.0454 418.775 54.4377C419.321 54.8216 420.011 55.0135 420.847 55.0135Z" fill="white"/>
</svg>
