<svg width="37" height="25" viewBox="0 0 37 25" fill="none" xmlns="http://www.w3.org/2000/svg">
<path d="M32.6638 0H3.4383C1.53938 0 0 1.53938 0 3.4383V21.4894C0 23.3883 1.53938 24.9277 3.4383 24.9277H32.6638C34.5628 24.9277 36.1021 23.3883 36.1021 21.4894V3.4383C36.1021 1.53938 34.5628 0 32.6638 0Z" fill="#2A2A6C"/>
<path d="M19.1446 15.3554C18.4564 15.3558 17.7741 15.2273 17.1332 14.9763L17.4659 13.4291C18.0301 13.7332 18.6609 13.8927 19.3019 13.8932H19.3509C19.901 13.8855 20.4555 13.6646 20.4555 13.1901C20.4632 12.8875 20.2036 12.6469 19.497 12.3013C18.7905 11.9558 17.8819 11.3945 17.8819 10.3638C17.8819 8.97218 19.1515 8 20.9721 8C21.5631 8.00169 22.1492 8.10911 22.7024 8.31718L22.3783 9.86442C21.9144 9.64541 21.4078 9.53153 20.8947 9.5309C20.7812 9.5309 20.6669 9.53692 20.5509 9.54809C20.0171 9.61858 19.7773 9.89794 19.7773 10.1429C19.7773 10.4421 20.1598 10.6423 20.6446 10.8968C21.4139 11.299 22.3706 11.8002 22.3637 12.9787L22.4024 12.9168C22.3947 14.3995 21.1294 15.358 19.1807 15.358L19.1446 15.3554ZM24.2642 15.2935H22.3165L25.0903 8.67477C25.1525 8.52024 25.2593 8.38771 25.3971 8.29404C25.5348 8.20036 25.6973 8.14977 25.8639 8.14871H27.4112L28.9094 15.2944H27.192L26.9685 14.2285H24.6416L24.2634 15.2944L24.2642 15.2935ZM26.1029 10.0785L25.129 12.7586H26.6659L26.1029 10.0785ZM15.8112 15.2703H13.9571L15.5043 8.12378H17.3584L15.8112 15.2694V15.2703ZM11.7592 15.2462H9.73915L8.26412 9.53692C8.25122 9.40332 8.20378 9.27538 8.12647 9.16567C8.04915 9.05595 7.94463 8.96824 7.82316 8.91115C7.24311 8.63463 6.63058 8.43219 6 8.30859L6.04642 8.09971H9.19074C9.39741 8.09722 9.59805 8.16927 9.75591 8.30266C9.91378 8.43606 10.0183 8.62187 10.0503 8.82605L10.8239 12.9589L12.7442 8.09971H14.7531L11.7592 15.2462Z" fill="white"/>
</svg>
