<svg width="35" height="25" viewBox="0 0 35 25" fill="none" xmlns="http://www.w3.org/2000/svg">
<path d="M30.9447 0H3.4383C1.53938 0 0 1.53938 0 3.4383V20.6298C0 22.5287 1.53938 24.0681 3.4383 24.0681H30.9447C32.8436 24.0681 34.383 22.5287 34.383 20.6298V3.4383C34.383 1.53938 32.8436 0 30.9447 0Z" fill="#9A1915"/>
<path fill-rule="evenodd" clip-rule="evenodd" d="M9.43813 5.00344H5.87175C4.30131 5.0808 3.01367 5.71173 2.63975 7.02086C2.44635 7.70336 2.3389 8.45463 2.18933 9.1698C1.41572 12.7663 0.734077 16.4659 0 19.9858H27.7436C29.8926 19.9858 31.3539 19.5311 31.757 17.8369C31.9418 17.0469 32.1215 16.1504 32.2977 15.2582C32.9853 11.8714 33.673 8.48128 34.3839 5L9.43813 5.00344Z" fill="#9A1915"/>
<path fill-rule="evenodd" clip-rule="evenodd" d="M9.15823 10.3258C9.30866 10.2227 9.4969 9.75504 9.27857 9.55734C9.17404 9.50335 9.05483 9.48465 8.93879 9.50401C8.82274 9.52338 8.71608 9.57978 8.63474 9.66478C8.54019 9.79372 8.45424 10.1805 8.60036 10.3258C8.68488 10.3756 8.78119 10.4019 8.87929 10.4019C8.9774 10.4019 9.07372 10.3756 9.15823 10.3258ZM7.03765 9.57453C6.9302 10.2699 6.80987 10.9499 6.69383 11.6263C5.92021 11.6263 5.12681 11.665 4.3807 11.6263C4.52253 10.9653 4.62568 10.2613 4.76235 9.59172H3.92943C3.62858 11.3109 3.35867 13.0257 3.02344 14.6692H3.88301C4.01625 13.8097 4.14088 12.9501 4.3128 12.1498C5.0775 12.1068 5.84402 12.1068 6.60873 12.1498C6.4626 13.0094 6.29154 13.8019 6.15401 14.652H7.01358C7.28435 12.9329 7.57575 11.218 7.91529 9.57453H7.03765ZM19.0855 11.0358C18.8151 10.9397 18.5185 10.9481 18.254 11.0595C17.9895 11.1708 17.7762 11.377 17.656 11.6375C17.7118 11.4527 17.7376 11.2077 17.7806 11.0358H17.1196C16.9563 12.2891 16.7208 13.4607 16.493 14.646H17.2614C17.3258 13.8603 17.4534 13.081 17.6431 12.3157C17.6767 12.1717 17.7403 12.0365 17.83 11.9189C17.9196 11.8013 18.0331 11.704 18.163 11.6334C18.2929 11.5628 18.4363 11.5206 18.5838 11.5094C18.7312 11.4983 18.8793 11.5185 19.0184 11.5687C19.0249 11.3826 19.0479 11.1973 19.0872 11.0152L19.0855 11.0358ZM19.5152 13.8002C19.4478 13.575 19.4245 13.3389 19.4465 13.1048C19.4644 12.6001 19.6399 12.1138 19.9485 11.714C20.2105 11.5472 20.5107 11.4498 20.8208 11.431C21.1309 11.4122 21.4406 11.4726 21.7209 11.6066C21.7363 11.4089 21.765 11.2124 21.8069 11.0186C21.3874 10.9001 20.9462 10.8807 20.5179 10.9618C20.0896 11.043 19.6861 11.2225 19.339 11.4862C19.0646 11.8285 18.8695 12.2274 18.7678 12.6541C18.6662 13.0808 18.6604 13.5248 18.7511 13.9541C19.0175 14.8136 20.2235 14.8815 21.2017 14.5463C21.2447 14.3744 21.2662 14.1733 21.3049 13.9885C20.7599 14.2463 19.7379 14.3916 19.4998 13.7821L19.5152 13.8002ZM27.9107 11.0496C27.6468 10.9492 27.355 10.9503 27.0918 11.0525C26.8285 11.1547 26.6125 11.3509 26.4855 11.6031C26.5457 11.4355 26.55 11.2043 26.6059 11.0324H25.932C25.7543 12.2742 25.5411 13.4776 25.2924 14.6426H26.0566C26.0806 14.209 26.1381 13.7779 26.2285 13.3532C26.3875 12.3535 26.6231 11.2498 27.7947 11.5808C27.8334 11.3788 27.8505 11.1862 27.8978 11.0272L27.9107 11.0496ZM8.40782 11.0496C8.38633 11.0496 8.38633 11.0753 8.40782 11.1011C8.2402 12.3329 8.01757 13.5079 7.78119 14.6632H8.52816C8.70867 13.4228 8.9141 12.2083 9.17198 11.053L8.40782 11.0496ZM14.9793 10.9808C14.4862 10.9839 14.0131 11.1758 13.6572 11.5172C13.1696 12.1367 12.9445 12.9228 13.0306 13.7065C13.1638 14.9099 14.6638 14.8695 15.8672 14.5661C15.8856 14.3659 15.9215 14.1677 15.9747 13.9738C15.3941 14.2578 14.7252 14.3025 14.112 14.0985C13.7303 13.8535 13.726 13.2389 13.8541 12.7077C14.6612 12.6819 15.4976 12.6862 16.309 12.7077C16.4191 12.3286 16.4426 11.9297 16.3778 11.5404C16.193 11.0246 15.5878 10.8966 14.9741 10.9481L14.9793 10.9808ZM15.6919 12.2985H13.9366C13.9764 12.0625 14.0971 11.8477 14.2779 11.6909C14.4587 11.534 14.6884 11.445 14.9277 11.4389C15.4512 11.3745 15.838 11.5937 15.679 12.2633L15.6919 12.2985ZM12.147 11.0496C11.8529 10.962 11.5424 10.9447 11.2405 10.9992C10.9386 11.0537 10.6537 11.1785 10.4089 11.3633C10.4089 11.2473 10.4519 11.1656 10.4605 11.0496H9.81666C9.54589 12.8306 9.2287 14.5644 8.89347 16.2818H9.64044C9.75219 15.6122 9.82096 14.9065 9.97052 14.2816C10.1424 14.9383 11.2599 14.8136 11.7258 14.5609C12.6825 14.0031 13.4338 11.5051 12.1332 11.016L12.147 11.0496ZM11.553 13.9927C11.1542 14.4225 10.1708 14.4225 10.0917 13.6962C10.0939 13.3739 10.1401 13.0535 10.2292 12.7438C10.2851 12.418 10.3281 12.1043 10.384 11.8206C10.7785 11.3401 11.9381 11.2799 12.0533 12.0785C12.1251 12.7464 11.9407 13.4167 11.5375 13.9541L11.553 13.9927ZM30.6906 9.49029C30.6261 10.0525 30.5402 10.5931 30.4327 11.108C28.6001 10.5287 27.4758 11.8765 27.4973 13.5415C27.4775 13.8496 27.569 14.1546 27.7551 14.401C28.013 14.6044 28.3248 14.7278 28.6519 14.756C28.9791 14.7843 29.3074 14.7162 29.5963 14.5601C29.6943 14.4871 29.7812 14.4002 29.8542 14.3022C29.9015 14.242 29.9789 14.083 29.9917 14.1303C29.957 14.3073 29.934 14.4865 29.923 14.6666H30.6012C30.7762 12.9171 31.05 11.1788 31.4212 9.46021L30.6906 9.49029ZM29.0213 14.2712C28.5193 14.2712 28.27 13.9704 28.2571 13.4555C28.2356 12.5495 28.6345 11.5455 29.4373 11.4553C29.7517 11.4253 30.0686 11.4725 30.3605 11.5928C30.094 12.5796 30.1886 14.2111 29.0084 14.2369L29.0213 14.2712ZM22.5831 11.0564C22.5444 11.2627 22.4885 11.4467 22.4412 11.6444C22.871 11.5369 24.2567 11.2146 24.3899 11.7862C24.4112 11.9751 24.3815 12.1663 24.3039 12.3398C23.0593 12.2237 22.0467 12.4257 21.7802 13.3137C21.6821 13.5487 21.6683 13.8103 21.741 14.0544C21.8136 14.2984 21.9684 14.5099 22.1791 14.6529C22.5157 14.7847 22.886 14.8036 23.2343 14.7069C23.5826 14.6102 23.8901 14.403 24.1105 14.1165C24.0722 14.2985 24.0549 14.4842 24.059 14.6701H24.7028C24.7178 14.1093 24.7811 13.5508 24.8919 13.0008C25.0102 12.5575 25.0808 12.1027 25.1025 11.6444C25.0251 10.6576 23.4461 10.9963 22.5616 11.0221L22.5831 11.0564ZM23.7976 13.979C23.4117 14.3563 22.3295 14.4638 22.4412 13.5492C22.5358 12.8022 23.3515 12.6389 24.2309 12.7507C24.2012 13.1847 24.0429 13.6001 23.7762 13.9438L23.7976 13.979Z" fill="white"/>
</svg>
