<svg width="40" height="23" viewBox="0 0 40 23" fill="none" xmlns="http://www.w3.org/2000/svg">
<path fill-rule="evenodd" clip-rule="evenodd" d="M2.53919 16.2717H37.9124L37.5488 20.3977C37.489 20.9356 37.235 21.4332 36.8345 21.7972C36.434 22.1612 35.9144 22.3665 35.3732 22.3747H0L0.363604 18.2487C0.423042 17.7107 0.676922 17.2129 1.07754 16.8488C1.47815 16.4848 1.99793 16.2796 2.53919 16.2717Z" fill="#FFCC00"/>
<path fill-rule="evenodd" clip-rule="evenodd" d="M4.93165 0.000865661H39.2536L38.1654 13.0019C38.1018 13.6728 37.7892 14.2955 37.2893 14.7473C36.7894 15.1992 36.1384 15.4474 35.4646 15.4431H0.597656L1.61368 3.29649C1.86124 0.351585 3.83054 0 4.93165 0V0.000865661Z" fill="#00468E"/>
<path fill-rule="evenodd" clip-rule="evenodd" d="M8.18882 9.61081C8.27879 8.88304 8.36849 8.15499 8.45789 7.42664H12.2168C11.9916 9.30281 11.767 11.1792 11.5429 13.056C10.4333 13.3464 9.29408 13.5082 8.14756 13.5382C5.04363 13.5915 2.59557 12.2024 3.07607 8.20456C3.19436 6.88029 3.78365 5.64236 4.73693 4.71558C5.69022 3.78879 6.94427 3.23461 8.27135 3.15369C9.5841 3.055 10.9042 3.1418 12.1927 3.41155C12.1641 4.17829 12.1354 4.94505 12.1068 5.71179C9.67762 4.927 6.69574 4.88486 5.93587 8.37646C5.50609 10.3707 6.82554 11.5844 9.04926 11.097C9.12777 10.599 9.20571 10.1013 9.28307 9.60394C8.91918 9.60394 8.55531 9.60708 8.19142 9.61338L8.18882 9.61081ZM16.6677 5.37998C18.7436 5.39803 20.357 6.2662 20.1361 9.41053C20.1125 9.97236 19.978 10.524 19.7406 11.0337C19.5031 11.5434 19.1672 12.0012 18.7522 12.3807C18.3373 12.7602 17.8514 13.0539 17.3225 13.2451C16.7937 13.4362 16.2323 13.5209 15.6706 13.4944C12.9406 13.4944 12.2323 11.7408 12.3561 9.49562C12.3664 8.94151 12.4864 8.39495 12.7092 7.88749C12.932 7.38002 13.2531 6.92172 13.6539 6.53905C14.0548 6.15638 14.5276 5.85693 15.0449 5.65799C15.5621 5.45905 16.1137 5.36456 16.6677 5.37998ZM16.5602 7.48852C17.2118 7.55643 17.6777 8.02319 17.474 9.53862C17.3261 10.6208 16.7287 11.464 15.8898 11.3884C15.0302 11.3102 14.8849 10.4429 15.0233 9.35809C15.1737 8.17445 15.8236 7.41116 16.5602 7.48766V7.48852ZM24.6944 5.37998C26.7702 5.39803 28.3837 6.2662 28.1628 9.41053C28.1392 9.97236 28.0047 10.524 27.7673 11.0337C27.5298 11.5434 27.1939 12.0012 26.7789 12.3807C26.364 12.7602 25.8781 13.0539 25.3493 13.2451C24.8204 13.4362 24.259 13.5209 23.6973 13.4944C20.9673 13.4944 20.259 11.7408 20.3828 9.49562C20.3931 8.94151 20.5131 8.39495 20.7359 7.88749C20.9587 7.38002 21.2798 6.92172 21.6807 6.53905C22.0816 6.15638 22.5543 5.85693 23.0715 5.65799C23.5888 5.45905 24.1404 5.36456 24.6944 5.37998ZM24.5869 7.48852C25.2385 7.55643 25.7044 8.02319 25.5007 9.53862C25.3528 10.6208 24.7554 11.464 23.9165 11.3884C23.0569 11.3102 22.9116 10.4429 23.05 9.35809C23.2004 8.17445 23.8503 7.41116 24.5869 7.48766V7.48852ZM33.3804 10.0269C33.1294 10.8434 32.6283 11.4022 31.963 11.3411C31.1481 11.2629 31.0398 10.3956 31.2108 9.31082C31.3235 8.75406 31.5752 8.23486 31.9423 7.80142C32.1643 7.56187 32.4542 7.39598 32.7732 7.32607C33.0922 7.25615 33.425 7.28555 33.7268 7.4103L33.383 10.0269H33.3804ZM34.2726 3.28175H36.9098L35.458 13.2528H32.9532L33.0194 12.7543H33.0151C32.426 13.2588 31.6608 13.5092 30.8874 13.4505C30.114 13.3919 29.3954 13.029 28.8891 12.4414C28.351 11.5578 28.1783 10.4993 28.4077 9.49048C28.5131 8.35488 29.0426 7.3007 29.8906 6.53808C30.7387 5.77547 31.8429 5.36042 32.9833 5.37568C33.3192 5.37513 33.6545 5.40621 33.9847 5.46852L34.2718 3.27575L34.2726 3.28175Z" fill="white"/>
<path fill-rule="evenodd" clip-rule="evenodd" d="M33.8729 20.1227C33.7577 20.4536 33.5291 20.6797 33.2274 20.6539C32.8561 20.6221 32.7855 20.2413 32.862 19.8038C32.9154 19.5739 33.0304 19.3629 33.1947 19.1935C33.31 19.1001 33.448 19.039 33.5946 19.0163C33.7413 18.9937 33.8913 19.0103 34.0294 19.0646L33.8729 20.1227ZM34.2795 17.3961H35.4829L34.8219 21.4293H33.6821L33.7113 21.2281C33.4433 21.4382 33.1083 21.5441 32.7682 21.5263C32.4281 21.5084 32.106 21.368 31.8615 21.131C31.7451 20.9524 31.6674 20.7515 31.6334 20.5412C31.5993 20.3308 31.6097 20.1157 31.6638 19.9095C31.7322 19.4279 31.979 18.9895 32.3554 18.6813C32.7317 18.3731 33.2102 18.2175 33.6958 18.2454C33.8487 18.2454 34.0014 18.2578 34.1523 18.2824L34.2847 17.3961H34.2795ZM25.8445 20.4296L25.6227 21.4258C25.2592 21.5181 24.8843 21.5572 24.5096 21.5419C23.2288 21.5634 22.2024 21.0321 22.3993 19.3818C22.4485 18.8345 22.6925 18.323 23.0868 17.9404C23.4812 17.5577 23.9997 17.3292 24.5482 17.2964C25.09 17.2556 25.6349 17.2912 26.1668 17.4022C26.1548 17.7185 26.1433 18.0337 26.1324 18.3477C25.1285 18.0245 24.0256 17.9884 23.7127 19.4299C23.5339 20.2533 24.1279 20.6445 25.0614 20.5809C25.3304 20.574 25.5962 20.522 25.8479 20.427L25.8445 20.4296ZM27.7132 21.4258H28.89C28.89 21.4258 29.0946 19.6035 29.1711 19.0568C29.2476 18.5102 29.0266 18.2145 28.0476 18.1766C27.6039 18.1144 27.1516 18.1775 26.7419 18.3589L26.5519 19.2545C26.8638 19.1018 27.2007 19.0066 27.5465 18.9735C27.9651 18.9735 28.0321 19.0594 28.0321 19.1789C28.0321 19.2984 27.8499 19.429 27.402 19.5288C26.9542 19.6285 26.043 19.7411 25.9519 20.6075C25.8608 21.474 26.5596 21.5109 26.8785 21.5109C27.1653 21.4879 27.4482 21.4302 27.721 21.339L27.7141 21.425L27.7132 21.4258ZM27.8954 20.0668L27.8043 20.7356C27.8043 20.7356 26.9086 21.1146 26.931 20.5688C26.9533 20.2155 27.6823 20.237 27.8954 20.0668ZM30.3882 21.4258H29.2123L29.6567 18.2832H30.714L30.6555 18.6769C30.6555 18.6769 30.8893 18.1612 31.8512 18.1955L31.6913 19.172C31.6913 19.172 30.7655 18.9313 30.5833 20.1347C30.4011 21.3381 30.3925 21.4241 30.3925 21.4241L30.3882 21.4258Z" fill="#00468E"/>
</svg>
