<svg width="37" height="25" viewBox="0 0 37 25" fill="none" xmlns="http://www.w3.org/2000/svg">
<path d="M32.6773 0.0263672H3.88752C1.9886 0.0263672 0.449219 1.56575 0.449219 3.46467V20.3656C0.449219 22.2645 1.9886 23.8039 3.88752 23.8039H32.6773C34.5762 23.8039 36.1156 22.2645 36.1156 20.3656V3.46467C36.1156 1.56575 34.5762 0.0263672 32.6773 0.0263672Z" fill="white"/>
<path d="M6.74852 13.6029V19.8039H13.0234L13.6767 18.8764L14.3154 19.8039H18.1534V18.4062H18.5831C18.9694 18.4097 19.3539 18.3535 19.7229 18.2395V19.8047H22.3292V18.695L23.2085 19.8039H35.0784C35.5663 19.8124 36.0464 19.6805 36.4614 19.4239V22.0379C36.2924 22.6925 35.91 23.2721 35.3746 23.685C34.8392 24.0979 34.1815 24.3204 33.5054 24.3175H3.03946C2.23349 24.3175 1.46052 23.9974 0.89054 23.4276C0.320556 22.8578 0.000227931 22.0849 0 21.2789L0 11.7032H1.7329L2.09049 10.7758H2.94147L3.29131 11.7032H17.2276V10.5935L18.1095 11.7032H21.7644V11.1411C22.3003 11.5225 22.9455 11.7197 23.6031 11.7032H25.7872L26.1371 10.7758H26.9881L27.3603 11.7032H31.0839V10.4998L31.8438 11.7032H34.4122V5.50141H31.6822V6.76413L30.8691 5.50141H28.4829V7.0985L27.7222 5.50141H23.6641C22.9776 5.48156 22.3058 5.70197 21.7644 6.12461V5.50141H8.35937L7.90379 6.83891L7.44822 5.47133H4.4079V7.06756L3.69617 5.47219H1.2163L0 8.3595V3.03959C0 2.23348 0.320228 1.46038 0.890236 0.890371C1.46025 0.320362 2.23334 0.00013441 3.03946 0.00013441H33.5054C34.1841 -0.00624664 34.8454 0.21474 35.384 0.627875C35.9225 1.04101 36.3073 1.62252 36.4769 2.27973V13.6029H14.3326L13.6793 14.5149L13.0406 13.6029H6.74852Z" fill="#296DB6"/>
<path d="M31.2644 18.8815C31.2283 18.8815 31.1913 18.8815 31.1552 18.8772H28.9366V17.9652H31.1552C31.2115 17.9766 31.2696 17.9754 31.3254 17.9616C31.3812 17.9478 31.4332 17.9218 31.4776 17.8854C31.5221 17.8491 31.558 17.8033 31.5826 17.7514C31.6072 17.6995 31.6199 17.6427 31.6199 17.5853C31.6199 17.5278 31.6072 17.4711 31.5826 17.4192C31.558 17.3673 31.5221 17.3215 31.4776 17.2852C31.4332 17.2488 31.3812 17.2228 31.3254 17.209C31.2696 17.1952 31.2115 17.1939 31.1552 17.2054H30.1529C29.9786 17.227 29.8017 17.2099 29.6348 17.1552C29.4678 17.1006 29.315 17.0097 29.1873 16.8892C29.0595 16.7686 28.9599 16.6214 28.8956 16.4579C28.8314 16.2944 28.804 16.1188 28.8154 15.9435C28.8123 15.7551 28.8493 15.5683 28.9242 15.3954C28.9991 15.2225 29.11 15.0676 29.2496 14.941C29.3891 14.8145 29.5541 14.7192 29.7335 14.6616C29.9129 14.6039 30.1025 14.5853 30.2896 14.6069H32.5159L32.105 15.5189H30.2552C30.1985 15.5061 30.1397 15.5063 30.083 15.5193C30.0263 15.5324 29.9734 15.5581 29.928 15.5944C29.8826 15.6307 29.8459 15.6768 29.8207 15.7292C29.7955 15.7816 29.7825 15.839 29.7825 15.8971C29.7825 15.9552 29.7955 16.0126 29.8207 16.065C29.8459 16.1174 29.8826 16.1635 29.928 16.1998C29.9734 16.2361 30.0263 16.2618 30.083 16.2748C30.1397 16.2879 30.1985 16.2881 30.2552 16.2753H31.2515V16.2478C31.4238 16.2235 31.5993 16.2377 31.7654 16.2894C31.9316 16.3411 32.0842 16.4289 32.2124 16.5466C32.3405 16.6643 32.441 16.809 32.5065 16.9701C32.5721 17.1313 32.6011 17.305 32.5916 17.4787C32.6015 17.6592 32.5745 17.8398 32.5123 18.0094C32.4501 18.1791 32.354 18.3344 32.2298 18.4657C32.1056 18.5969 31.9559 18.7015 31.7899 18.773C31.6239 18.8445 31.4451 18.8815 31.2644 18.8815ZM35.2107 18.8686C35.166 18.8686 35.1247 18.8686 35.0766 18.8618H32.8958V17.9506H35.0921C35.1484 17.962 35.2065 17.9608 35.2623 17.947C35.318 17.9332 35.37 17.9072 35.4145 17.8708C35.459 17.8345 35.4948 17.7887 35.5194 17.7368C35.544 17.6849 35.5568 17.6281 35.5568 17.5707C35.5568 17.5132 35.544 17.4565 35.5194 17.4046C35.4948 17.3527 35.459 17.3069 35.4145 17.2705C35.37 17.2342 35.318 17.2082 35.2623 17.1944C35.2065 17.1806 35.1484 17.1793 35.0921 17.1907H34.1121C33.9381 17.2122 33.7615 17.195 33.5948 17.1404C33.4281 17.0859 33.2755 16.9952 33.1478 16.875C33.0202 16.7548 32.9205 16.6079 32.856 16.4449C32.7915 16.2818 32.7637 16.1065 32.7747 15.9315C32.7707 15.7427 32.8072 15.5553 32.8817 15.3819C32.9563 15.2085 33.0671 15.053 33.2068 14.926C33.3465 14.799 33.5118 14.7035 33.6916 14.6457C33.8713 14.588 34.0613 14.5695 34.2488 14.5914H36.4751L36.0651 15.5189H34.2179L34.1955 15.4888C34.1392 15.4774 34.0811 15.4786 34.0253 15.4924C33.9696 15.5062 33.9176 15.5322 33.8731 15.5686C33.8286 15.6049 33.7928 15.6507 33.7682 15.7026C33.7436 15.7546 33.7308 15.8113 33.7308 15.8687C33.7308 15.9262 33.7436 15.9829 33.7682 16.0348C33.7928 16.0867 33.8286 16.1325 33.8731 16.1689C33.9176 16.2052 33.9696 16.2312 34.0253 16.245C34.0811 16.2588 34.1392 16.2601 34.1955 16.2487H35.227C35.4834 16.2222 35.7416 16.277 35.9652 16.4051C36.1888 16.5333 36.3666 16.7284 36.4734 16.963V17.9807C36.3792 18.2402 36.2076 18.4645 35.9818 18.6233C35.7559 18.7822 35.4868 18.8678 35.2107 18.8686ZM16.0172 18.8626H14.7107L13.6775 17.4787L12.646 18.8463H11.3979L13.0689 16.7197L11.3291 14.5613H12.6185L13.6775 15.9134L14.7408 14.5914H16.0026L14.2835 16.7188L16.0164 18.8609L16.0172 18.8626ZM21.6406 18.848H20.6091V14.6069H22.9342C22.9879 14.6006 23.0418 14.5974 23.0958 14.5974C23.4442 14.596 23.7798 14.7282 24.0337 14.9667C24.2876 15.2052 24.4403 15.532 24.4606 15.8798C24.4809 16.2275 24.3671 16.5698 24.1426 16.8362C23.9182 17.1026 23.6002 17.2729 23.254 17.312L24.6895 18.8463H23.3915L22.1125 17.3274H21.6414V18.8472L21.6406 18.848ZM21.6406 15.4725V16.461H22.844V16.4154C22.911 16.4255 22.9794 16.4208 23.0444 16.4015C23.1093 16.3823 23.1693 16.3491 23.22 16.3042C23.2708 16.2592 23.311 16.2038 23.338 16.1416C23.365 16.0794 23.3779 16.0121 23.3761 15.9444C23.3763 15.8771 23.3623 15.8106 23.3348 15.7492C23.3073 15.6878 23.267 15.633 23.2167 15.5884C23.1663 15.5438 23.107 15.5105 23.0427 15.4906C22.9785 15.4708 22.9107 15.4649 22.844 15.4733L21.6406 15.4725ZM28.3891 18.8472H24.9319V14.6069H28.39V15.5189L25.9831 15.4888V16.2487H28.3315V17.1753H25.9806V17.9351H28.3874V18.8463L28.3891 18.8472ZM17.2404 18.8472H16.2003V14.5914H18.565V14.5613C18.608 14.5613 18.645 14.5562 18.6802 14.5562C18.8658 14.556 19.0496 14.5934 19.2204 14.6661C19.3912 14.7389 19.5455 14.8454 19.674 14.9794C19.8025 15.1134 19.9025 15.272 19.9681 15.4456C20.0337 15.6193 20.0634 15.8045 20.0555 15.9899C20.0601 16.1784 20.0269 16.3658 19.958 16.5413C19.889 16.7167 19.7857 16.8766 19.654 17.0115C19.5223 17.1464 19.365 17.2535 19.1912 17.3267C19.0175 17.3998 18.8309 17.4375 18.6424 17.4374C18.6071 17.4374 18.571 17.4374 18.5358 17.4374H17.2464V18.8463L17.2404 18.8472ZM17.2404 15.4725V16.5521H18.4713V16.522C18.6105 16.522 18.744 16.4667 18.8424 16.3683C18.9408 16.2699 18.9961 16.1364 18.9961 15.9972C18.9961 15.8581 18.9408 15.7246 18.8424 15.6262C18.744 15.5277 18.6105 15.4725 18.4713 15.4725H17.2404ZM11.1727 18.8472H7.73438V14.5613H11.1727V15.4725L8.76586 15.4879V16.2478H11.1297V17.1753H8.76586V17.9351H11.1727V18.8472Z" fill="#296DB6"/>
<path d="M30.3215 10.7765H29.3029V6.49061H30.5725L32.0922 8.76934L32.381 9.25672V6.45967H33.4375V10.7464H32.1833L30.5948 8.32924L30.3215 7.8582V10.7765ZM29.1061 10.7765H27.9362L27.5717 9.87992H25.5414L25.177 10.7464H24.0681L25.9067 6.45967H27.2743L29.1052 10.7747L29.1061 10.7765ZM26.5445 7.33815L26.2712 8.00604L25.8732 9.01346H27.2107L26.8007 8.01034L26.5428 7.34245L26.5445 7.33815ZM5.05516 10.7765H3.88356L3.51824 9.87992H1.51973L1.12432 10.7464H0L1.86184 6.45967H3.21481L5.05344 10.7747L5.05516 10.7765ZM2.50222 7.33815L2.22888 8.00604L1.80511 9.01346H3.18043L2.77385 8.01034L2.5005 7.34245L2.50222 7.33815ZM23.3933 10.7464C23.1254 10.7468 22.8604 10.6905 22.6157 10.5812C22.3711 10.472 22.1523 10.3122 21.9737 10.1125C21.7951 9.91272 21.6608 9.67746 21.5796 9.42213C21.4983 9.1668 21.472 8.89718 21.5023 8.63095V8.57078C21.4776 8.30237 21.5093 8.03177 21.5952 7.77629C21.6811 7.5208 21.8193 7.28605 22.0011 7.08704C22.1829 6.88802 22.4042 6.72913 22.6509 6.62051C22.8976 6.51189 23.1642 6.45594 23.4337 6.45623C23.475 6.45623 23.5197 6.45623 23.5575 6.45623H24.7609V7.38715H23.5824C23.4321 7.38667 23.2834 7.41801 23.1461 7.47911C23.0088 7.54021 22.886 7.62968 22.7857 7.74164C22.6854 7.8536 22.61 7.98552 22.5643 8.12872C22.5187 8.27192 22.5039 8.42316 22.5209 8.5725V8.63267C22.501 8.78285 22.5135 8.93553 22.5574 9.0805C22.6014 9.22548 22.6757 9.3594 22.7756 9.47332C22.8754 9.58724 22.9984 9.67853 23.1364 9.74109C23.2744 9.80365 23.4241 9.83603 23.5756 9.83608H23.6306H23.9744L23.5575 10.7464H23.4973C23.4664 10.7464 23.4277 10.7464 23.3933 10.7464ZM16.5589 10.7464H15.5033V6.45967H17.8241C18.0153 6.43515 18.2094 6.45197 18.3935 6.509C18.5775 6.56603 18.7472 6.66193 18.891 6.79022C19.0347 6.91851 19.1493 7.07619 19.2268 7.25258C19.3044 7.42897 19.3431 7.61997 19.3404 7.81264C19.3494 8.14336 19.2343 8.46546 19.0178 8.71565C18.8013 8.96584 18.4991 9.12604 18.1706 9.16475L19.5983 10.7464H18.3089L17.0299 9.22578H16.5589V10.7464ZM16.5589 7.37168V8.31721H17.7623C17.7847 8.32057 17.8074 8.32229 17.8302 8.32237C17.8921 8.32239 17.9534 8.30999 18.0105 8.28591C18.0676 8.26182 18.1192 8.22654 18.1624 8.18214C18.2056 8.13774 18.2395 8.08513 18.262 8.02742C18.2845 7.96972 18.2952 7.90808 18.2935 7.84616C18.2929 7.77923 18.2783 7.71316 18.2506 7.65223C18.2229 7.5913 18.1827 7.53687 18.1327 7.49247C18.0826 7.44806 18.0237 7.41467 17.9599 7.39445C17.8961 7.37424 17.8288 7.36765 17.7623 7.37511L16.5589 7.37168ZM6.262 10.7464H5.25114V6.45967H6.93075L7.78173 8.94126L7.9184 9.41231L8.05508 8.94126L8.89144 6.45967H10.5556V10.7464H9.55246V7.28056L9.35475 7.93384L8.35937 10.7464H7.44736L6.47518 7.93384L6.262 7.28056V10.7464ZM20.8825 10.7464H19.8416V6.45967H20.8825V10.7464ZM14.8191 10.7464H11.3997V6.45967H14.8191V7.37168L12.4123 7.38715V8.14701H14.7606V9.07449H12.4097V9.83436H14.8165V10.7464H14.8191Z" fill="#296DB6"/>
</svg>
