<svg width="35" height="25" viewBox="0 0 35 25" fill="none" xmlns="http://www.w3.org/2000/svg">
<path d="M30.9447 0H3.4383C1.53938 0 0 1.53938 0 3.4383V20.6298C0 22.5287 1.53938 24.0681 3.4383 24.0681H30.9447C32.8436 24.0681 34.383 22.5287 34.383 20.6298V3.4383C34.383 1.53938 32.8436 0 30.9447 0Z" fill="#00538A"/>
<path d="M0 6H34.0104V15.9767C34.0197 16.4706 33.7485 17.0311 33.2511 17.3537C32.6716 17.7294 32.4015 17.6528 31.1028 17.6555H0V6Z" fill="#00538A"/>
<mask id="mask0_667_121" style="mask-type:luminance" maskUnits="userSpaceOnUse" x="6" y="7" width="5" height="9">
<path d="M6.49219 9.85391L8.16093 11.5038C8.29835 11.6394 8.29835 11.8613 8.16093 11.996L6.49488 13.6423L6.49398 15.5903L10.0434 12.1047C10.241 11.9098 10.241 11.5909 10.0425 11.396L6.49219 7.90945V9.85391Z" fill="white"/>
</mask>
<g mask="url(#mask0_667_121)">
<path d="M4.09375 17.9861H12.5865V5.51184H4.09375V17.9861Z" fill="white"/>
</g>
<mask id="mask1_667_121" style="mask-type:luminance" maskUnits="userSpaceOnUse" x="2" y="7" width="4" height="9">
<path d="M2.28491 11.396C2.08732 11.5909 2.08732 11.9098 2.28491 12.1047L5.83435 15.5903L5.83346 13.6423L4.16651 11.996C4.0291 11.8613 4.0291 11.6394 4.16651 11.5038L5.83525 9.85391V7.90945L2.28491 11.396Z" fill="white"/>
</mask>
<g mask="url(#mask1_667_121)">
<path d="M-0.261719 17.9861H8.23018V5.51184H-0.261719V17.9861Z" fill="white"/>
</g>
<mask id="mask2_667_121" style="mask-type:luminance" maskUnits="userSpaceOnUse" x="14" y="9" width="6" height="6">
<path d="M16.878 9.48152C16.652 9.48152 16.4565 9.6232 16.383 9.83661L14.9375 14.1121H15.9221L16.2431 13.1526H18.0867L18.3987 14.1121H19.3833L17.8159 9.48152H16.878ZM17.1613 10.2043L17.8536 12.394H16.4798L17.1613 10.2043Z" fill="white"/>
</mask>
<g mask="url(#mask2_667_121)">
<path d="M10.1523 18.8984H24.1713V4.69656H10.1523V18.8984Z" fill="white"/>
</g>
<mask id="mask3_667_121" style="mask-type:luminance" maskUnits="userSpaceOnUse" x="19" y="9" width="5" height="6">
<path d="M19.7812 9.48152V14.1121H21.8705C22.7726 14.1121 23.2281 13.7014 23.2281 13.0486V12.5536C23.2281 12.1017 22.9609 11.7896 22.5036 11.6982C22.8838 11.5457 23.0578 11.3305 23.0578 10.9485V10.4697C23.0578 9.84198 22.6758 9.48152 21.736 9.48152H19.7812ZM20.7192 10.2043H21.6231C21.9674 10.2043 22.118 10.3244 22.118 10.5791V10.9898C22.118 11.2624 21.9835 11.422 21.6177 11.422H20.7192V10.2043ZM20.7192 12.1232H21.7665C22.1395 12.1232 22.2884 12.2756 22.2884 12.5895V12.9374C22.2884 13.2781 22.1073 13.3893 21.684 13.3893H20.7192V12.1232Z" fill="white"/>
</mask>
<g mask="url(#mask3_667_121)">
<path d="M14.9961 18.8984H28.0161V4.69656H14.9961V18.8984Z" fill="white"/>
</g>
<mask id="mask4_667_121" style="mask-type:luminance" maskUnits="userSpaceOnUse" x="11" y="9" width="4" height="6">
<path d="M13.2231 9.33909C12.0162 9.35165 11.4961 9.84125 11.4961 10.6806V12.7663C11.4961 13.6038 12.0162 14.0952 13.2231 14.1077V14.1113H14.5233V13.7742C14.5233 13.5231 14.3171 13.3151 14.066 13.3151H13.2231V13.3114C12.6331 13.2971 12.4376 13.0873 12.4376 12.6138V10.833C12.4376 10.3595 12.6331 10.1497 13.2231 10.1336H14.5754V9.7982C14.5754 9.54533 14.3709 9.33909 14.1162 9.33909H13.2231Z" fill="white"/>
</mask>
<g mask="url(#mask4_667_121)">
<path d="M6.71094 18.8958H19.3615V4.55221H6.71094V18.8958Z" fill="white"/>
</g>
<mask id="mask5_667_121" style="mask-type:luminance" maskUnits="userSpaceOnUse" x="28" y="9" width="4" height="6">
<path d="M28.7388 9.41338C28.4501 9.41338 28.2188 9.64651 28.2188 9.93345V10.2078V14.1121H31.203V13.3409H29.1585V10.2078V9.41338H28.7388Z" fill="white"/>
</mask>
<g mask="url(#mask5_667_121)">
<path d="M23.4336 18.8984H35.9891V4.62661H23.4336V18.8984Z" fill="white"/>
</g>
<mask id="mask6_667_121" style="mask-type:luminance" maskUnits="userSpaceOnUse" x="23" y="9" width="5" height="6">
<path d="M25.5121 9.48152C25.2073 9.48152 24.9365 9.67701 24.836 9.96575L23.4336 14.1121H24.42L24.741 13.1526H26.5846L26.8984 14.1121H27.883L26.3156 9.48152H25.5121ZM25.6592 10.2043L26.3514 12.394H24.9795L25.6592 10.2043Z" fill="white"/>
</mask>
<g mask="url(#mask6_667_121)">
<path d="M18.6484 18.8984H32.6692V4.69656H18.6484V18.8984Z" fill="white"/>
</g>
</svg>
