<svg width="37" height="23" viewBox="0 0 37 23" fill="none" xmlns="http://www.w3.org/2000/svg">
<path d="M1.92545 1.92059e-07H34.1767C34.4296 -0.000112779 34.68 0.0496133 34.9137 0.146336C35.1473 0.243059 35.3596 0.384882 35.5384 0.563699C35.7173 0.742516 35.8591 0.95482 35.9558 1.18848C36.0525 1.42213 36.1023 1.67256 36.1021 1.92545V20.7501C36.1023 21.003 36.0525 21.2535 35.9558 21.4871C35.8591 21.7208 35.7173 21.9331 35.5384 22.1119C35.3596 22.2907 35.1473 22.4325 34.9137 22.5293C34.68 22.626 34.4296 22.6757 34.1767 22.6756H1.92545C1.67228 22.6757 1.42157 22.6259 1.18769 22.5289C0.953805 22.432 0.741347 22.2899 0.562485 22.1107C0.383623 21.9315 0.241872 21.7188 0.145352 21.4847C0.0488316 21.2507 -0.000560601 20.9999 4.79975e-06 20.7467V1.92545C-0.000108171 1.67256 0.0496179 1.42213 0.146341 1.18848C0.243063 0.95482 0.384887 0.742516 0.563703 0.563699C0.74252 0.384882 0.954825 0.243059 1.18848 0.146336C1.42214 0.0496133 1.67257 -0.000112779 1.92545 1.92059e-07Z" fill="black"/>
<path d="M7.25189 8.21231C7.5883 8.09838 7.9411 8.0403 8.29627 8.04039C9.05741 8.04036 9.79518 8.30337 10.3846 8.7849C10.9741 9.26643 11.379 9.93689 11.5309 10.6827L13.7933 10.2203C13.635 9.44212 13.3132 8.70645 12.8494 8.06191C12.3855 7.41738 11.7901 6.87866 11.1026 6.48141C10.415 6.08415 9.65089 5.8374 8.86083 5.75749C8.07077 5.67757 7.27274 5.7663 6.51953 6.01781L7.25189 8.21231Z" fill="#FFF100"/>
<path d="M4.57959 15.548L6.11049 13.8151C5.76092 13.5052 5.48107 13.1246 5.28942 12.6985C5.09776 12.2724 4.99867 11.8106 4.99867 11.3434C4.99867 10.8762 5.09776 10.4143 5.28942 9.98826C5.48107 9.56219 5.76092 9.18162 6.11049 8.87167L4.57959 7.14307C3.98475 7.66974 3.50851 8.31671 3.18233 9.04116C2.85616 9.76561 2.6875 10.551 2.6875 11.3455C2.6875 12.14 2.85616 12.9255 3.18233 13.6499C3.50851 14.3744 3.98475 15.0213 4.57959 15.548Z" fill="#00A3DF"/>
<path d="M11.5313 12.0046C11.4364 12.462 11.2459 12.894 10.9722 13.2725C10.6985 13.6509 10.3478 13.9672 9.94314 14.2004C9.53851 14.4336 9.0891 14.5786 8.62444 14.6258C8.15978 14.673 7.6904 14.6213 7.24713 14.4742L6.51562 16.6644C7.26876 16.9157 8.06662 17.0044 8.85656 16.9247C9.64649 16.845 10.4105 16.5987 11.0983 16.202C11.7861 15.8054 12.3819 15.2674 12.8465 14.6236C13.3111 13.9798 13.6339 13.2448 13.7937 12.4671L11.5313 12.0046Z" fill="#EE4023"/>
<path d="M21.3334 13.5555C21.144 13.7426 20.9192 13.8901 20.6721 13.9892C20.425 14.0884 20.1607 14.1373 19.8944 14.1331C19.5252 14.129 19.1646 14.0205 18.8544 13.8202L18.1031 15.0133C18.7543 15.4224 19.5242 15.6008 20.289 15.5197C21.0538 15.4386 21.7692 15.1029 22.3202 14.5663L21.3334 13.5555ZM19.9761 8.68855C19.3554 8.67905 18.7437 8.83851 18.2066 9.14987C17.6695 9.46123 17.2272 9.91278 16.9269 10.4562C16.6267 10.9996 16.4799 11.6144 16.5022 12.2348C16.5245 12.8552 16.7151 13.4579 17.0536 13.9784L23.2537 11.3266C23.0782 10.5852 22.6607 9.92332 22.0672 9.4456C21.4737 8.96788 20.7379 8.70151 19.9761 8.68855ZM17.9209 12.328C17.9111 12.2481 17.9062 12.1678 17.9063 12.0873C17.9148 11.5531 18.1351 11.0442 18.5187 10.6724C18.9023 10.3006 19.4179 10.0962 19.952 10.1043C20.2401 10.1078 20.524 10.1737 20.7841 10.2975C21.0442 10.4212 21.2744 10.5999 21.4589 10.8212L17.9209 12.328ZM25.2032 7.14819V13.7575L26.349 14.2337L25.8049 15.5385L24.672 15.0666C24.4434 14.9676 24.2491 14.8035 24.1132 14.5947C23.961 14.3494 23.8839 14.0649 23.8915 13.7764V7.14819H25.2032Z" fill="white"/>
<path d="M29.3376 10.205C29.6084 10.116 29.8949 10.0852 30.1784 10.1146C30.4619 10.144 30.736 10.2329 30.9828 10.3756C31.2295 10.5182 31.4434 10.7114 31.6103 10.9424C31.7773 11.1734 31.8936 11.4371 31.9516 11.7161L33.3329 11.4325C33.1751 10.6597 32.7553 9.9651 32.1445 9.46611C31.5336 8.96713 30.7693 8.69433 29.9806 8.69385C29.6127 8.69345 29.2471 8.75147 28.8975 8.86577L29.3376 10.205ZM27.7044 14.6748L28.6379 13.6209C28.4245 13.4317 28.2536 13.1994 28.1366 12.9393C28.0196 12.6792 27.9591 12.3972 27.9591 12.112C27.9591 11.8267 28.0196 11.5447 28.1366 11.2846C28.2536 11.0245 28.4245 10.7922 28.6379 10.603L27.7061 9.55342C27.343 9.87445 27.0521 10.269 26.853 10.7109C26.6538 11.1528 26.5508 11.632 26.5508 12.1167C26.5508 12.6014 26.6538 13.0806 26.853 13.5225C27.0521 13.9644 27.343 14.3589 27.7061 14.6799L27.7044 14.6748ZM31.9498 12.5181C31.8935 12.7979 31.7781 13.0626 31.6115 13.2943C31.4448 13.5261 31.2307 13.7197 30.9834 13.8623C30.7361 14.0049 30.4613 14.0931 30.1772 14.1211C29.8931 14.1492 29.6063 14.1164 29.3359 14.0249L28.888 15.3633C29.3477 15.5178 29.8349 15.5728 30.3174 15.5247C30.7999 15.4766 31.2667 15.3265 31.6868 15.0844C32.1069 14.8423 32.4707 14.5137 32.7542 14.1203C33.0377 13.7269 33.2344 13.2778 33.3312 12.8026L31.9498 12.5181Z" fill="white"/>
</svg>
