<svg width="35" height="26" viewBox="0 0 35 26" fill="none" xmlns="http://www.w3.org/2000/svg">
<path fill-rule="evenodd" clip-rule="evenodd" d="M4.24733 25.6299H30.0715C31.2138 25.6272 32.3085 25.1724 33.1164 24.365C33.9243 23.5576 34.3798 22.4631 34.3832 21.3209V4.30905C34.3798 3.16682 33.9243 2.07238 33.1164 1.26494C32.3085 0.457501 31.2138 0.00272103 30.0715 0H4.24733C3.68529 0.00325845 3.12941 0.117391 2.61156 0.335857C2.0937 0.554323 1.62405 0.872828 1.2295 1.27312C0.834957 1.67342 0.523279 2.14763 0.312327 2.66859C0.101375 3.18955 -0.00470432 3.74702 0.00016794 4.30905V21.3209C-0.00481816 21.8832 0.101268 22.4409 0.312341 22.9621C0.523413 23.4833 0.835317 23.9576 1.23016 24.358C1.625 24.7583 2.095 25.0768 2.61321 25.2951C3.13141 25.5133 3.68761 25.6271 4.24991 25.6299H4.24733Z" fill="#08558C"/>
<path d="M4.23092 21.2383C4.23092 21.5013 4.34514 21.6102 4.60216 21.6102H5.57023C6.29227 21.6102 6.91016 21.2607 6.91016 20.4837C6.92068 20.2842 6.86537 20.087 6.75277 19.9221C6.64017 19.7571 6.47666 19.6332 6.2871 19.5704V19.5595C6.43516 19.4785 6.55762 19.358 6.64071 19.2111C6.72379 19.0642 6.76408 18.897 6.75718 18.7284C6.75718 18.0889 6.25441 17.727 5.55386 17.727H3.875V18.3347H4.23092V21.2383ZM4.94695 19.3135V18.3347H5.54861C5.61321 18.3292 5.67827 18.3377 5.73916 18.3599C5.80005 18.3822 5.85533 18.4173 5.90117 18.4632C5.94701 18.509 5.98238 18.5643 6.00463 18.6252C6.02688 18.6861 6.03551 18.7511 6.03002 18.8157C6.03563 18.8801 6.02758 18.9452 6.00631 19.0063C5.98504 19.0673 5.95104 19.1238 5.90663 19.1708C5.86221 19.2178 5.80838 19.2544 5.7486 19.2791C5.68883 19.3038 5.62438 19.3154 5.55973 19.3135H4.94695ZM4.94695 20.8824V19.8826H5.62521C5.76582 19.8937 5.89713 19.9579 5.99288 20.0614C6.08863 20.165 6.14167 20.3006 6.14167 20.4417C6.14167 20.5827 6.08863 20.7184 5.99288 20.822C5.89713 20.9255 5.76582 20.9889 5.62521 20.9999H5.0672C5.05123 21.0015 5.03511 21.0002 5.01998 20.9949C5.00485 20.9895 4.99115 20.9809 4.97969 20.9697C4.96822 20.9585 4.95933 20.9444 4.95367 20.9294C4.94801 20.9144 4.94575 20.8984 4.94695 20.8824ZM7.58842 21.6102H8.27612V20.5063C8.27562 20.3533 8.29592 20.2006 8.33635 20.053C8.38046 19.8852 8.47881 19.7367 8.6163 19.6308C8.75379 19.5249 8.92248 19.4678 9.09604 19.468C9.1535 19.4677 9.21109 19.4709 9.26812 19.478V18.7947C9.2266 18.7881 9.18467 18.7838 9.14262 18.783C8.93782 18.7921 8.74114 18.8665 8.58168 18.9954C8.42221 19.1242 8.30832 19.3007 8.2564 19.499H8.24507C8.2527 19.442 8.2566 19.3853 8.2564 19.3278V19.1641C8.2564 18.9294 8.13081 18.8199 7.88411 18.8199H7.24971V19.4117H7.46901C7.48535 19.4094 7.50185 19.4107 7.51749 19.4159C7.53313 19.4211 7.54738 19.4303 7.55904 19.4419C7.57071 19.4536 7.57962 19.4674 7.58485 19.4831C7.59009 19.4987 7.59155 19.5154 7.58926 19.5318L7.58842 21.6102ZM9.4039 20.806C9.40505 20.927 9.431 21.0464 9.48028 21.1569C9.52957 21.2674 9.6011 21.3665 9.69035 21.4482C9.7796 21.5298 9.88464 21.5918 9.99905 21.6312C10.1135 21.6705 10.2348 21.686 10.3554 21.6765C10.5282 21.6829 10.6993 21.6405 10.8486 21.5531C10.9978 21.4657 11.1189 21.3368 11.1978 21.1829H11.2089C11.2048 21.2232 11.2029 21.2641 11.203 21.3046C11.203 21.4679 11.3017 21.6102 11.5587 21.6102H12.182V21.0251H11.9637C11.9474 21.0269 11.9307 21.0247 11.9153 21.0192C11.8998 21.0137 11.8859 21.0048 11.8743 20.9932C11.8628 20.9815 11.8539 20.9676 11.8485 20.9521C11.8432 20.9366 11.8414 20.9205 11.8433 20.9042V19.8658C11.8433 19.2418 11.57 18.7553 10.64 18.7553C10.3503 18.7553 9.61711 18.8103 9.61711 19.3294V19.6249H10.2626V19.4772C10.2626 19.3242 10.5084 19.2917 10.6339 19.2917C10.9897 19.2917 11.1497 19.4384 11.1497 19.839V19.8608H11.0637C10.6064 19.8608 9.4039 19.931 9.4039 20.806ZM10.1036 20.7733C10.1036 20.3856 10.6777 20.3359 11.0387 20.3359H11.1591V20.4022C11.1644 20.5816 11.102 20.756 10.9845 20.8916C10.8671 21.0273 10.703 21.1138 10.5247 21.1342C10.4728 21.1413 10.4198 21.1373 10.3694 21.1225C10.3191 21.1076 10.2726 21.082 10.2328 21.0478C10.193 21.0136 10.1609 20.9719 10.1386 20.9244C10.1163 20.8769 10.1044 20.8257 10.1036 20.7733ZM12.4244 21.1779C12.571 21.3388 12.7503 21.4671 12.9503 21.5531C13.1503 21.6391 13.3664 21.6808 13.584 21.6765C14.1909 21.6765 14.6558 21.3471 14.6558 20.8228C14.6558 19.8936 13.174 19.9819 13.174 19.5443C13.174 19.3802 13.3458 19.2925 13.5891 19.2925C13.7421 19.2925 13.9389 19.3574 13.9389 19.4889V19.6249H14.5519V19.3353C14.5519 18.8815 13.9501 18.7553 13.5727 18.7553C12.9934 18.7553 12.4896 19.0125 12.4896 19.5695C12.4896 20.4721 13.9614 20.4669 13.9614 20.8589C13.9614 21.0454 13.7972 21.1325 13.584 21.1325C13.2646 21.1075 12.967 20.9611 12.7528 20.7229L12.4244 21.1779ZM15.3554 18.3675H15.9573V17.727H15.3554V18.3675ZM15.3229 21.2383C15.3229 21.5013 15.4321 21.6102 15.6891 21.6102H16.351V21.0251H16.1325C16.1163 21.0267 16.0999 21.0247 16.0845 21.0192C16.0691 21.0137 16.0551 21.0048 16.0436 20.9932C16.032 20.9816 16.0232 20.9675 16.0178 20.9521C16.0123 20.9366 16.0106 20.9205 16.0123 20.9042V19.1935C16.0123 18.9356 15.9031 18.8199 15.6461 18.8199H14.9842V19.4117H15.2025C15.2188 19.4094 15.2355 19.4107 15.2511 19.4159C15.2668 19.4211 15.281 19.4303 15.2927 19.4419C15.3044 19.4536 15.3131 19.4674 15.3183 19.4831C15.3235 19.4987 15.3252 19.5154 15.3229 19.5318V21.2383ZM16.9191 21.2383C16.9191 21.5013 17.0283 21.6102 17.2914 21.6102H17.9472V21.0251H17.734C17.7177 21.0269 17.7012 21.0247 17.6857 21.0192C17.6702 21.0137 17.6561 21.0048 17.6446 20.9932C17.633 20.9815 17.6243 20.9676 17.619 20.9521C17.6136 20.9366 17.6118 20.9205 17.6137 20.9042V18.0988C17.6137 17.841 17.4984 17.7261 17.2414 17.7261H16.5795V18.3171H16.798C16.8143 18.3148 16.8308 18.3169 16.8465 18.3221C16.8621 18.3274 16.8764 18.3357 16.888 18.3473C16.8997 18.359 16.9086 18.3736 16.9138 18.3893C16.9191 18.4049 16.9205 18.4216 16.9183 18.438L16.9191 21.2383ZM18.2945 19.6358C18.2827 19.9032 18.3257 20.1707 18.4212 20.4207C18.5168 20.6707 18.6627 20.8976 18.8498 21.0889C19.0369 21.2802 19.2614 21.4311 19.5091 21.5321C19.7569 21.6332 20.0229 21.6824 20.2904 21.6765C20.5829 21.6775 20.8724 21.6193 21.1414 21.5044C21.4104 21.3896 21.6531 21.2211 21.8547 21.0091L21.4774 20.4929C21.3256 20.6528 21.1433 20.7812 20.9414 20.8698C20.7395 20.9584 20.522 21.0058 20.3016 21.0091C20.1281 21.0025 19.9576 20.9611 19.8 20.8883C19.6424 20.8154 19.5007 20.7123 19.3832 20.5844C19.2658 20.4565 19.1747 20.3069 19.1155 20.1437C19.0562 19.9805 19.0299 19.8068 19.038 19.6333C19.0256 19.4641 19.0487 19.2945 19.1058 19.1347C19.1629 18.9749 19.2527 18.8288 19.3696 18.7058C19.4864 18.5827 19.6279 18.4856 19.7845 18.4203C19.9411 18.3551 20.1095 18.3235 20.2791 18.3272C20.6186 18.3272 21.0829 18.4565 21.0829 18.741V18.9601H21.7336V18.5303C21.7336 17.8693 20.7598 17.6607 20.263 17.6607C20.002 17.6547 19.7426 17.702 19.5003 17.7992C19.2581 17.8963 19.038 18.0418 18.8536 18.2264C18.6691 18.4111 18.5242 18.6313 18.4273 18.8736C18.3305 19.116 18.2837 19.3749 18.2901 19.6358H18.2945ZM22.1884 20.806C22.1895 20.927 22.2155 21.0464 22.2648 21.1569C22.3141 21.2674 22.3856 21.3665 22.4748 21.4482C22.5641 21.5298 22.6691 21.5918 22.7835 21.6312C22.898 21.6705 23.0193 21.686 23.1399 21.6765C23.3127 21.6829 23.4836 21.6405 23.6328 21.5531C23.7821 21.4657 23.9034 21.3368 23.9823 21.1829H23.9934C23.9893 21.2232 23.9872 21.2641 23.9873 21.3046C23.9873 21.4679 24.0862 21.6102 24.3432 21.6102H24.9665V21.0251H24.748C24.7317 21.0269 24.7152 21.0247 24.6998 21.0192C24.6843 21.0137 24.6704 21.0048 24.6588 20.9932C24.6473 20.9815 24.6384 20.9676 24.633 20.9521C24.6277 20.9366 24.6259 20.9205 24.6278 20.9042V19.8658C24.6278 19.2418 24.3545 18.7553 23.4245 18.7553C23.1348 18.7553 22.4014 18.8103 22.4014 19.3294V19.6249H23.0469V19.4772C23.0469 19.3242 23.2928 19.2917 23.4192 19.2917C23.7751 19.2917 23.935 19.4384 23.935 19.839V19.8608H23.849C23.3865 19.8608 22.1831 19.931 22.1831 20.806H22.1884ZM22.8881 20.7733C22.8881 20.3856 23.4622 20.3359 23.8232 20.3359H23.9436V20.4022C23.9489 20.5816 23.8865 20.756 23.769 20.8916C23.6516 21.0273 23.4875 21.1138 23.3092 21.1342C23.2569 21.1418 23.2037 21.1379 23.1529 21.1233C23.1021 21.1087 23.0549 21.0837 23.0146 21.0494C22.9744 21.0152 22.9419 20.973 22.9193 20.9252C22.8967 20.8774 22.8846 20.8253 22.8837 20.7724L22.8881 20.7733ZM25.5234 21.6102H26.2111V20.5063C26.2105 20.3533 26.2308 20.2006 26.2714 20.053C26.3153 19.8851 26.4138 19.7367 26.5513 19.6308C26.6888 19.5249 26.8575 19.4676 27.0311 19.468C27.0885 19.4677 27.1461 19.4709 27.2031 19.478V18.7947C27.1616 18.788 27.1197 18.7837 27.0776 18.783C26.8728 18.7921 26.6762 18.8665 26.5167 18.9954C26.3572 19.1242 26.2433 19.3007 26.1914 19.499H26.1809C26.1882 19.442 26.1918 19.3852 26.1914 19.3278V19.1641C26.1914 18.9294 26.0658 18.8199 25.82 18.8199H25.1856V19.4117H25.4049C25.4212 19.4094 25.4379 19.4107 25.4536 19.4159C25.4692 19.4211 25.4832 19.4303 25.4949 19.4419C25.5066 19.4536 25.5155 19.4674 25.5207 19.4831C25.526 19.4987 25.5274 19.5154 25.5251 19.5318L25.5234 21.6102ZM27.3939 20.2159C27.3697 20.3951 27.3836 20.5779 27.4344 20.7514C27.4852 20.925 27.5719 21.0854 27.689 21.2232C27.806 21.361 27.9507 21.4732 28.1137 21.5514C28.2767 21.6297 28.4545 21.6722 28.6352 21.6773C28.8075 21.6869 28.9792 21.6498 29.1321 21.5699C29.2851 21.49 29.4136 21.3709 29.5042 21.224H29.5153V21.3281C29.5153 21.4906 29.6081 21.611 29.8591 21.611H30.4987V21.0259H30.2855C30.2692 21.0277 30.2527 21.0255 30.2373 21.0201C30.2218 21.0146 30.2077 21.0057 30.1961 20.994C30.1846 20.9824 30.1757 20.9684 30.1703 20.9529C30.165 20.9374 30.1632 20.9214 30.1651 20.9051V18.0997C30.1651 17.8418 30.05 17.727 29.793 17.727H29.1311V18.3179H29.3494C29.3657 18.3156 29.3824 18.3177 29.398 18.323C29.4137 18.3282 29.4279 18.3365 29.4396 18.3482C29.4513 18.3598 29.46 18.3745 29.4652 18.3901C29.4704 18.4058 29.4721 18.4225 29.4698 18.4388V18.9299C29.4698 19.0236 29.4748 19.0936 29.4748 19.0936H29.4637C29.3698 18.9732 29.2468 18.8785 29.1061 18.8191C28.9655 18.7597 28.8118 18.7378 28.66 18.7544C28.4775 18.758 28.2979 18.7997 28.1326 18.877C27.9673 18.9543 27.82 19.0658 27.7003 19.2035C27.5806 19.3413 27.4911 19.5025 27.4376 19.677C27.384 19.8515 27.3676 20.0347 27.3895 20.2159H27.3939ZM28.789 21.0922C28.3782 21.0922 28.1013 20.748 28.1013 20.2159C28.1013 19.6632 28.4185 19.3563 28.801 19.3563C29.266 19.3563 29.4887 19.7861 29.4887 20.2159C29.4844 20.827 29.1448 21.0914 28.7846 21.0914L28.789 21.0922Z" fill="#FEFEFE"/>
<path fill-rule="evenodd" clip-rule="evenodd" d="M22.7661 14.2702C21.8596 15.2719 20.6709 15.9756 19.3567 16.2885C18.0425 16.6014 16.6645 16.5089 15.4039 16.0232C14.1433 15.5374 13.0591 14.6813 12.2946 13.5674C11.5302 12.4536 11.121 11.1342 11.1211 9.78327C11.1243 8.32249 11.6059 6.90293 12.4915 5.74121C13.3771 4.5795 14.6181 3.73947 16.0259 3.34937L16.7826 4.67745C15.602 4.91422 14.5396 5.55187 13.7754 6.48243C13.0112 7.41298 12.5919 8.57915 12.5893 9.78327C12.5893 11.1671 13.139 12.4943 14.1174 13.473C15.0959 14.4516 16.4233 15.0016 17.8071 15.0018H18.1509H18.1757H18.229H18.2453H18.2558H18.2739H18.2823H18.3003H18.3083L18.3607 14.9966H18.3822H18.4052H18.4296H18.4535H18.4791H18.5043H18.5291L18.5756 14.9897H18.5824H18.6038H18.6092H18.6298H18.6348H18.6545H18.6617H18.6797H18.6873H18.7053L18.7561 14.9803L18.8564 14.9606H18.8711H18.8825L19.031 14.927L19.0524 14.9218L19.0776 14.9159L19.0999 14.9098L19.1481 14.8969L19.1721 14.8909L19.1943 14.8849L19.2157 14.8788L19.2367 14.8728L19.2564 14.8668L19.2753 14.8617H19.2803H19.2871L19.3051 14.8565H19.3122L19.3294 14.8513L19.4008 14.829V14.823C20.2974 14.53 21.0973 13.9983 21.7147 13.2852C21.7671 13.2267 21.8168 13.1657 21.8649 13.1047L22.9998 14.0502C23.0033 13.9978 22.852 14.1757 22.7661 14.2702Z" fill="url(#paint0_linear_667_131)"/>
<path fill-rule="evenodd" clip-rule="evenodd" d="M22.7653 14.2705C21.8852 15.2435 20.7385 15.9359 19.4676 16.2617C18.1968 16.5875 16.8581 16.5325 15.6184 16.103C14.3788 15.6735 13.293 14.8888 12.4962 13.8466C11.6993 12.8044 11.2263 11.5506 11.1367 10.2417H12.6095C12.724 11.5413 13.3212 12.751 14.2833 13.6322C15.2454 14.5133 16.5026 15.002 17.8072 15.0021H18.151H18.1762H18.2542H18.2723H18.2807H18.2996H18.3067L18.3592 14.9971H18.3806H18.4028H18.4272H18.4519H18.4775H18.5035H18.5283L18.5749 14.9899H18.5816H18.603H18.6085H18.6282H18.6341H18.653H18.6601H18.6781H18.6857H18.7037L18.7545 14.9815L18.8548 14.9618H18.8695H18.88L19.0294 14.9282L19.0509 14.9232L19.076 14.9169L19.0991 14.911L19.1482 14.8988L19.1721 14.8921L19.1944 14.8863L19.2171 14.88L19.2376 14.8741H19.2418L19.2615 14.8682L19.2796 14.8619H19.2859H19.2918L19.3098 14.8569H19.3165L19.3337 14.8518L19.4043 14.8283V14.8225C20.3009 14.5296 21.1008 13.9979 21.7181 13.2846C21.7706 13.227 21.8207 13.1652 21.8688 13.1042L23.0033 14.0498C23.0024 13.9991 22.8521 14.1768 22.7653 14.2705Z" fill="#FFDD21"/>
<path fill-rule="evenodd" clip-rule="evenodd" d="M17.8672 7.35073L18.2726 8.82141L21.4876 6.04584V4.2312L17.8672 7.35073Z" fill="url(#paint1_linear_667_131)"/>
<path fill-rule="evenodd" clip-rule="evenodd" d="M17.4844 3.11074C18.9046 3.02862 20.3127 3.41283 21.4943 4.20493L21.4876 6.05126L21.4809 6.04444C20.9578 5.52764 20.3312 5.12713 19.6425 4.86924C18.9539 4.61134 18.2183 4.5019 17.4844 4.54795V3.11074Z" fill="url(#paint2_linear_667_131)"/>
<path fill-rule="evenodd" clip-rule="evenodd" d="M22.6057 7.93433L16.0195 13.4976L17.4869 14.149L23.0321 9.47552L22.6057 7.93433Z" fill="url(#paint3_linear_667_131)"/>
<path fill-rule="evenodd" clip-rule="evenodd" d="M23.0339 9.47553C21.5301 8.85142 19.8906 8.62659 18.2743 8.82246L17.8672 7.35052C19.4409 7.20057 21.0289 7.33116 22.5571 7.73582L23.0339 9.47553Z" fill="#76C04E"/>
<path fill-rule="evenodd" clip-rule="evenodd" d="M16.0195 13.4995L17.4869 14.1511V4.55142L16.0254 3.34106L16.0195 13.4995Z" fill="url(#paint4_linear_667_131)"/>
<defs>
<linearGradient id="paint0_linear_667_131" x1="11.4537" y1="7.69241" x2="23.9146" y2="7.72468" gradientUnits="userSpaceOnUse">
<stop stop-color="#FFDD21"/>
<stop offset="0.008" stop-color="#FFDD21"/>
<stop offset="0.012" stop-color="#FFDD21"/>
<stop offset="0.02" stop-color="#FFDD21"/>
<stop offset="0.031" stop-color="#FFDD21"/>
<stop offset="0.039" stop-color="#FFDD21"/>
<stop offset="0.051" stop-color="#FFDD21"/>
<stop offset="0.059" stop-color="#FFDD21"/>
<stop offset="0.071" stop-color="#FFDD21"/>
<stop offset="0.078" stop-color="#FFDD21"/>
<stop offset="0.09" stop-color="#FFDD21"/>
<stop offset="0.102" stop-color="#FFDD21"/>
<stop offset="0.11" stop-color="#FFDD21"/>
<stop offset="0.122" stop-color="#FFDD21"/>
<stop offset="0.129" stop-color="#FFDD21"/>
<stop offset="0.141" stop-color="#FFDD21"/>
<stop offset="0.149" stop-color="#FFDD21"/>
<stop offset="0.161" stop-color="#FFDD21"/>
<stop offset="0.169" stop-color="#FFDD21"/>
<stop offset="0.18" stop-color="#FFDD21"/>
<stop offset="0.188" stop-color="#FFDD21"/>
<stop offset="0.2" stop-color="#FFDD21"/>
<stop offset="0.212" stop-color="#FFDD21"/>
<stop offset="0.22" stop-color="#FFDD21"/>
<stop offset="0.231" stop-color="#FFDD21"/>
<stop offset="0.239" stop-color="#FFDD21"/>
<stop offset="0.251" stop-color="#FFDD21"/>
<stop offset="0.259" stop-color="#FFDD21"/>
<stop offset="0.271" stop-color="#FED823"/>
<stop offset="0.278" stop-color="#FBD225"/>
<stop offset="0.29" stop-color="#FACD27"/>
<stop offset="0.302" stop-color="#F8C828"/>
<stop offset="0.31" stop-color="#F7C429"/>
<stop offset="0.322" stop-color="#F5C02A"/>
<stop offset="0.329" stop-color="#F3BA2C"/>
<stop offset="0.341" stop-color="#F2B62D"/>
<stop offset="0.349" stop-color="#EFB12D"/>
<stop offset="0.361" stop-color="#EDAA2E"/>
<stop offset="0.369" stop-color="#E9A12F"/>
<stop offset="0.38" stop-color="#E69930"/>
<stop offset="0.388" stop-color="#E39231"/>
<stop offset="0.4" stop-color="#E08A31"/>
<stop offset="0.412" stop-color="#E08A31"/>
<stop offset="0.42" stop-color="#E08A31"/>
<stop offset="0.431" stop-color="#E08A31"/>
<stop offset="0.439" stop-color="#E08A31"/>
<stop offset="0.451" stop-color="#E08A31"/>
<stop offset="0.459" stop-color="#E08A31"/>
<stop offset="0.471" stop-color="#E08A31"/>
<stop offset="0.478" stop-color="#E08A31"/>
<stop offset="0.49" stop-color="#E08A31"/>
<stop offset="0.502" stop-color="#E08A31"/>
<stop offset="0.51" stop-color="#E08A31"/>
<stop offset="0.522" stop-color="#E08A31"/>
<stop offset="0.529" stop-color="#E08A31"/>
<stop offset="0.541" stop-color="#E08A31"/>
<stop offset="0.549" stop-color="#E08A31"/>
<stop offset="0.561" stop-color="#E08A31"/>
<stop offset="0.569" stop-color="#E08A31"/>
<stop offset="0.58" stop-color="#E08A31"/>
<stop offset="0.588" stop-color="#E08A31"/>
<stop offset="0.6" stop-color="#E08A31"/>
<stop offset="0.612" stop-color="#E08A31"/>
<stop offset="0.62" stop-color="#E08A31"/>
<stop offset="0.631" stop-color="#E08A31"/>
<stop offset="0.639" stop-color="#E08A31"/>
<stop offset="0.651" stop-color="#E08A31"/>
<stop offset="0.659" stop-color="#E08A31"/>
<stop offset="0.671" stop-color="#E08A31"/>
<stop offset="0.678" stop-color="#E08A31"/>
<stop offset="0.69" stop-color="#E08A31"/>
<stop offset="0.702" stop-color="#E08A31"/>
<stop offset="0.71" stop-color="#E08A31"/>
<stop offset="0.722" stop-color="#E08A31"/>
<stop offset="0.729" stop-color="#E08A31"/>
<stop offset="0.741" stop-color="#E08A31"/>
<stop offset="0.749" stop-color="#E08A31"/>
<stop offset="0.761" stop-color="#E08A31"/>
<stop offset="0.769" stop-color="#E08A31"/>
<stop offset="0.78" stop-color="#E08A31"/>
<stop offset="0.788" stop-color="#E08A31"/>
<stop offset="0.8" stop-color="#E08A31"/>
<stop offset="0.812" stop-color="#E08A31"/>
<stop offset="0.82" stop-color="#E08A31"/>
<stop offset="0.831" stop-color="#E08A31"/>
<stop offset="0.839" stop-color="#E08A31"/>
<stop offset="0.851" stop-color="#E08A31"/>
<stop offset="0.859" stop-color="#E08A31"/>
<stop offset="0.871" stop-color="#E08A31"/>
<stop offset="0.878" stop-color="#E08A31"/>
<stop offset="0.89" stop-color="#E08A31"/>
<stop offset="0.902" stop-color="#E08A31"/>
<stop offset="0.91" stop-color="#E08A31"/>
<stop offset="0.922" stop-color="#E08A31"/>
<stop offset="0.929" stop-color="#E08A31"/>
<stop offset="0.941" stop-color="#E08A31"/>
<stop offset="0.949" stop-color="#E08A31"/>
<stop offset="0.961" stop-color="#E08A31"/>
<stop offset="0.969" stop-color="#E08A31"/>
<stop offset="0.98" stop-color="#E08A31"/>
<stop offset="0.988" stop-color="#E08A31"/>
<stop offset="1" stop-color="#E08A31"/>
</linearGradient>
<linearGradient id="paint1_linear_667_131" x1="17.9686" y1="7.68304" x2="21.1845" y2="5.82421" gradientUnits="userSpaceOnUse">
<stop stop-color="#006038"/>
<stop offset="0.004" stop-color="#006038"/>
<stop offset="0.012" stop-color="#006138"/>
<stop offset="0.02" stop-color="#006238"/>
<stop offset="0.031" stop-color="#006239"/>
<stop offset="0.039" stop-color="#006339"/>
<stop offset="0.051" stop-color="#006439"/>
<stop offset="0.059" stop-color="#006539"/>
<stop offset="0.071" stop-color="#026639"/>
<stop offset="0.078" stop-color="#066739"/>
<stop offset="0.09" stop-color="#096839"/>
<stop offset="0.102" stop-color="#0C6939"/>
<stop offset="0.11" stop-color="#0F6A39"/>
<stop offset="0.122" stop-color="#136B3A"/>
<stop offset="0.129" stop-color="#166B3A"/>
<stop offset="0.141" stop-color="#196C3A"/>
<stop offset="0.149" stop-color="#1D6D3A"/>
<stop offset="0.161" stop-color="#206E39"/>
<stop offset="0.169" stop-color="#246F3A"/>
<stop offset="0.18" stop-color="#27703A"/>
<stop offset="0.188" stop-color="#2A713A"/>
<stop offset="0.2" stop-color="#2C723A"/>
<stop offset="0.212" stop-color="#2F753B"/>
<stop offset="0.22" stop-color="#32793C"/>
<stop offset="0.231" stop-color="#347C3D"/>
<stop offset="0.239" stop-color="#377F3E"/>
<stop offset="0.251" stop-color="#3B833F"/>
<stop offset="0.259" stop-color="#3E8640"/>
<stop offset="0.271" stop-color="#428A41"/>
<stop offset="0.278" stop-color="#448D42"/>
<stop offset="0.29" stop-color="#489143"/>
<stop offset="0.302" stop-color="#4C9544"/>
<stop offset="0.31" stop-color="#4F9845"/>
<stop offset="0.322" stop-color="#529B46"/>
<stop offset="0.329" stop-color="#559E46"/>
<stop offset="0.341" stop-color="#58A247"/>
<stop offset="0.349" stop-color="#5CA548"/>
<stop offset="0.361" stop-color="#5EA849"/>
<stop offset="0.369" stop-color="#62AB49"/>
<stop offset="0.38" stop-color="#65AE4A"/>
<stop offset="0.388" stop-color="#68B14B"/>
<stop offset="0.4" stop-color="#6CB54C"/>
<stop offset="0.412" stop-color="#6FB84C"/>
<stop offset="0.42" stop-color="#72BB4D"/>
<stop offset="0.431" stop-color="#76C04E"/>
<stop offset="0.439" stop-color="#76C04E"/>
<stop offset="0.451" stop-color="#76C04E"/>
<stop offset="0.459" stop-color="#76C04E"/>
<stop offset="0.471" stop-color="#76C04E"/>
<stop offset="0.478" stop-color="#76C04E"/>
<stop offset="0.49" stop-color="#76C04E"/>
<stop offset="0.502" stop-color="#76C04E"/>
<stop offset="0.51" stop-color="#76C04E"/>
<stop offset="0.522" stop-color="#76C04E"/>
<stop offset="0.529" stop-color="#76C04E"/>
<stop offset="0.541" stop-color="#76C04E"/>
<stop offset="0.549" stop-color="#76C04E"/>
<stop offset="0.561" stop-color="#76C04E"/>
<stop offset="0.569" stop-color="#76C04E"/>
<stop offset="0.58" stop-color="#76C04E"/>
<stop offset="0.588" stop-color="#76C04E"/>
<stop offset="0.6" stop-color="#76C04E"/>
<stop offset="0.612" stop-color="#76C04E"/>
<stop offset="0.62" stop-color="#76C04E"/>
<stop offset="0.631" stop-color="#76C04E"/>
<stop offset="0.639" stop-color="#76C04E"/>
<stop offset="0.651" stop-color="#76C04E"/>
<stop offset="0.659" stop-color="#76C04E"/>
<stop offset="0.671" stop-color="#76C04E"/>
<stop offset="0.678" stop-color="#76C04E"/>
<stop offset="0.69" stop-color="#76C04E"/>
<stop offset="0.702" stop-color="#70BB4D"/>
<stop offset="0.71" stop-color="#6AB64D"/>
<stop offset="0.722" stop-color="#65B34C"/>
<stop offset="0.729" stop-color="#60AF4C"/>
<stop offset="0.741" stop-color="#5AAB4B"/>
<stop offset="0.749" stop-color="#55A84B"/>
<stop offset="0.761" stop-color="#4FA44A"/>
<stop offset="0.769" stop-color="#49A04A"/>
<stop offset="0.78" stop-color="#449D49"/>
<stop offset="0.788" stop-color="#3E9948"/>
<stop offset="0.8" stop-color="#3A9648"/>
<stop offset="0.812" stop-color="#339347"/>
<stop offset="0.82" stop-color="#2C8F46"/>
<stop offset="0.831" stop-color="#258C46"/>
<stop offset="0.839" stop-color="#208945"/>
<stop offset="0.851" stop-color="#1B8644"/>
<stop offset="0.859" stop-color="#168343"/>
<stop offset="0.871" stop-color="#128043"/>
<stop offset="0.878" stop-color="#0F7E42"/>
<stop offset="0.89" stop-color="#0C7B41"/>
<stop offset="0.902" stop-color="#087841"/>
<stop offset="0.91" stop-color="#057640"/>
<stop offset="0.922" stop-color="#02733F"/>
<stop offset="0.929" stop-color="#00713E"/>
<stop offset="0.941" stop-color="#006E3D"/>
<stop offset="0.949" stop-color="#006C3C"/>
<stop offset="0.961" stop-color="#00693B"/>
<stop offset="0.969" stop-color="#00673B"/>
<stop offset="0.98" stop-color="#00643A"/>
<stop offset="0.988" stop-color="#006239"/>
<stop offset="1" stop-color="#006038"/>
</linearGradient>
<linearGradient id="paint2_linear_667_131" x1="17.3079" y1="4.58441" x2="21.5538" y2="4.66612" gradientUnits="userSpaceOnUse">
<stop stop-color="#A8CF45"/>
<stop offset="0.004" stop-color="#A8CF45"/>
<stop offset="0.012" stop-color="#A7CF45"/>
<stop offset="0.02" stop-color="#A6CE45"/>
<stop offset="0.031" stop-color="#A5CE46"/>
<stop offset="0.039" stop-color="#A4CE46"/>
<stop offset="0.051" stop-color="#A3CD46"/>
<stop offset="0.059" stop-color="#A2CD46"/>
<stop offset="0.071" stop-color="#A1CD47"/>
<stop offset="0.078" stop-color="#A0CD47"/>
<stop offset="0.09" stop-color="#9FCC47"/>
<stop offset="0.102" stop-color="#9FCC47"/>
<stop offset="0.11" stop-color="#9FCC47"/>
<stop offset="0.122" stop-color="#9ECC47"/>
<stop offset="0.129" stop-color="#9DCB47"/>
<stop offset="0.141" stop-color="#9CCB48"/>
<stop offset="0.149" stop-color="#9BCB48"/>
<stop offset="0.161" stop-color="#9ACA48"/>
<stop offset="0.169" stop-color="#99CA48"/>
<stop offset="0.18" stop-color="#98CA48"/>
<stop offset="0.188" stop-color="#97CA49"/>
<stop offset="0.2" stop-color="#96C949"/>
<stop offset="0.212" stop-color="#95C949"/>
<stop offset="0.22" stop-color="#94C949"/>
<stop offset="0.231" stop-color="#93C849"/>
<stop offset="0.239" stop-color="#92C84A"/>
<stop offset="0.251" stop-color="#91C84A"/>
<stop offset="0.259" stop-color="#90C74A"/>
<stop offset="0.271" stop-color="#8FC74A"/>
<stop offset="0.278" stop-color="#8FC74A"/>
<stop offset="0.29" stop-color="#8EC74A"/>
<stop offset="0.302" stop-color="#8DC74A"/>
<stop offset="0.31" stop-color="#8CC64B"/>
<stop offset="0.322" stop-color="#8BC64B"/>
<stop offset="0.329" stop-color="#8AC64B"/>
<stop offset="0.341" stop-color="#8AC54B"/>
<stop offset="0.349" stop-color="#89C54B"/>
<stop offset="0.361" stop-color="#89C54B"/>
<stop offset="0.369" stop-color="#88C54C"/>
<stop offset="0.38" stop-color="#87C54C"/>
<stop offset="0.388" stop-color="#86C44C"/>
<stop offset="0.4" stop-color="#85C44C"/>
<stop offset="0.412" stop-color="#84C44C"/>
<stop offset="0.42" stop-color="#83C44C"/>
<stop offset="0.431" stop-color="#82C34C"/>
<stop offset="0.439" stop-color="#82C34C"/>
<stop offset="0.451" stop-color="#81C34D"/>
<stop offset="0.459" stop-color="#7FC34D"/>
<stop offset="0.471" stop-color="#7EC24D"/>
<stop offset="0.478" stop-color="#7DC24D"/>
<stop offset="0.49" stop-color="#7CC24D"/>
<stop offset="0.502" stop-color="#7BC24D"/>
<stop offset="0.51" stop-color="#7AC14E"/>
<stop offset="0.522" stop-color="#7AC14E"/>
<stop offset="0.529" stop-color="#79C14E"/>
<stop offset="0.541" stop-color="#78C14E"/>
<stop offset="0.549" stop-color="#77C14E"/>
<stop offset="0.561" stop-color="#76C04E"/>
<stop offset="0.569" stop-color="#76C04E"/>
<stop offset="0.58" stop-color="#76C04E"/>
<stop offset="0.588" stop-color="#76C04E"/>
<stop offset="0.6" stop-color="#76C04E"/>
<stop offset="0.612" stop-color="#76C04E"/>
<stop offset="0.62" stop-color="#76C04E"/>
<stop offset="0.631" stop-color="#76C04E"/>
<stop offset="0.639" stop-color="#76C04E"/>
<stop offset="0.651" stop-color="#76C04E"/>
<stop offset="0.659" stop-color="#76C04E"/>
<stop offset="0.671" stop-color="#76C04E"/>
<stop offset="0.678" stop-color="#76C04E"/>
<stop offset="0.69" stop-color="#76C04E"/>
<stop offset="0.702" stop-color="#76C04E"/>
<stop offset="0.71" stop-color="#76C04E"/>
<stop offset="0.722" stop-color="#76C04E"/>
<stop offset="0.729" stop-color="#76C04E"/>
<stop offset="0.741" stop-color="#76C04E"/>
<stop offset="0.749" stop-color="#76C04E"/>
<stop offset="0.761" stop-color="#76C04E"/>
<stop offset="0.769" stop-color="#76C04E"/>
<stop offset="0.78" stop-color="#76C04E"/>
<stop offset="0.788" stop-color="#76C04E"/>
<stop offset="0.8" stop-color="#76C04E"/>
<stop offset="0.812" stop-color="#76C04E"/>
<stop offset="0.82" stop-color="#76C04E"/>
<stop offset="0.831" stop-color="#76C04E"/>
<stop offset="0.839" stop-color="#76C04E"/>
<stop offset="0.851" stop-color="#76C04E"/>
<stop offset="0.859" stop-color="#76C04E"/>
<stop offset="0.871" stop-color="#76C04E"/>
<stop offset="0.878" stop-color="#76C04E"/>
<stop offset="0.89" stop-color="#76C04E"/>
<stop offset="0.902" stop-color="#76C04E"/>
<stop offset="0.91" stop-color="#76C04E"/>
<stop offset="0.922" stop-color="#76C04E"/>
<stop offset="0.929" stop-color="#76C04E"/>
<stop offset="0.941" stop-color="#76C04E"/>
<stop offset="0.949" stop-color="#76C04E"/>
<stop offset="0.961" stop-color="#76C04E"/>
<stop offset="0.969" stop-color="#76C04E"/>
<stop offset="0.98" stop-color="#76C04E"/>
<stop offset="0.988" stop-color="#76C04E"/>
<stop offset="1" stop-color="#76C04E"/>
</linearGradient>
<linearGradient id="paint3_linear_667_131" x1="16.5315" y1="12.931" x2="21.3143" y2="7.82844" gradientUnits="userSpaceOnUse">
<stop stop-color="#006038"/>
<stop offset="0.004" stop-color="#006138"/>
<stop offset="0.012" stop-color="#006239"/>
<stop offset="0.02" stop-color="#006539"/>
<stop offset="0.031" stop-color="#086839"/>
<stop offset="0.039" stop-color="#126A39"/>
<stop offset="0.051" stop-color="#1B6C39"/>
<stop offset="0.059" stop-color="#256F3A"/>
<stop offset="0.071" stop-color="#2C723A"/>
<stop offset="0.078" stop-color="#30763B"/>
<stop offset="0.09" stop-color="#347A3C"/>
<stop offset="0.102" stop-color="#377F3E"/>
<stop offset="0.11" stop-color="#3B833F"/>
<stop offset="0.122" stop-color="#3F8841"/>
<stop offset="0.129" stop-color="#448C42"/>
<stop offset="0.141" stop-color="#489143"/>
<stop offset="0.149" stop-color="#4C9644"/>
<stop offset="0.161" stop-color="#509A45"/>
<stop offset="0.169" stop-color="#549E46"/>
<stop offset="0.18" stop-color="#58A247"/>
<stop offset="0.188" stop-color="#5CA648"/>
<stop offset="0.2" stop-color="#60AA49"/>
<stop offset="0.212" stop-color="#65AE4A"/>
<stop offset="0.22" stop-color="#69B24B"/>
<stop offset="0.231" stop-color="#6DB64C"/>
<stop offset="0.239" stop-color="#71BA4D"/>
<stop offset="0.251" stop-color="#76C04E"/>
<stop offset="0.259" stop-color="#76C04E"/>
<stop offset="0.271" stop-color="#76C04E"/>
<stop offset="0.278" stop-color="#76C04E"/>
<stop offset="0.29" stop-color="#76C04E"/>
<stop offset="0.302" stop-color="#76C04E"/>
<stop offset="0.31" stop-color="#76C04E"/>
<stop offset="0.322" stop-color="#76C04E"/>
<stop offset="0.329" stop-color="#76C04E"/>
<stop offset="0.341" stop-color="#76C04E"/>
<stop offset="0.349" stop-color="#76C04E"/>
<stop offset="0.361" stop-color="#76C04E"/>
<stop offset="0.369" stop-color="#76C04E"/>
<stop offset="0.38" stop-color="#76C04E"/>
<stop offset="0.388" stop-color="#76C04E"/>
<stop offset="0.4" stop-color="#76C04E"/>
<stop offset="0.412" stop-color="#76C04E"/>
<stop offset="0.42" stop-color="#76C04E"/>
<stop offset="0.431" stop-color="#76C04E"/>
<stop offset="0.439" stop-color="#76C04E"/>
<stop offset="0.451" stop-color="#76C04E"/>
<stop offset="0.459" stop-color="#76C04E"/>
<stop offset="0.471" stop-color="#76C04E"/>
<stop offset="0.478" stop-color="#76C04E"/>
<stop offset="0.49" stop-color="#76C04E"/>
<stop offset="0.502" stop-color="#76C04E"/>
<stop offset="0.51" stop-color="#76C04E"/>
<stop offset="0.522" stop-color="#76C04E"/>
<stop offset="0.529" stop-color="#76C04E"/>
<stop offset="0.541" stop-color="#76C04E"/>
<stop offset="0.549" stop-color="#76C04E"/>
<stop offset="0.561" stop-color="#76C04E"/>
<stop offset="0.569" stop-color="#76C04E"/>
<stop offset="0.58" stop-color="#76C04E"/>
<stop offset="0.588" stop-color="#76C04E"/>
<stop offset="0.6" stop-color="#76C04E"/>
<stop offset="0.612" stop-color="#76C04E"/>
<stop offset="0.62" stop-color="#76C04E"/>
<stop offset="0.631" stop-color="#76C04E"/>
<stop offset="0.639" stop-color="#76C04E"/>
<stop offset="0.651" stop-color="#76C04E"/>
<stop offset="0.659" stop-color="#76C04E"/>
<stop offset="0.671" stop-color="#76C04E"/>
<stop offset="0.678" stop-color="#76C04E"/>
<stop offset="0.69" stop-color="#76C04E"/>
<stop offset="0.702" stop-color="#76C04E"/>
<stop offset="0.71" stop-color="#76C04E"/>
<stop offset="0.722" stop-color="#76C04E"/>
<stop offset="0.729" stop-color="#76C04E"/>
<stop offset="0.741" stop-color="#76C04E"/>
<stop offset="0.749" stop-color="#76C04E"/>
<stop offset="0.761" stop-color="#76C04E"/>
<stop offset="0.769" stop-color="#76C04E"/>
<stop offset="0.78" stop-color="#76C04E"/>
<stop offset="0.788" stop-color="#76C04E"/>
<stop offset="0.8" stop-color="#76C04E"/>
<stop offset="0.812" stop-color="#6CB84D"/>
<stop offset="0.82" stop-color="#64B24C"/>
<stop offset="0.831" stop-color="#5CAD4B"/>
<stop offset="0.839" stop-color="#54A74B"/>
<stop offset="0.851" stop-color="#4BA14A"/>
<stop offset="0.859" stop-color="#439C49"/>
<stop offset="0.871" stop-color="#3A9748"/>
<stop offset="0.878" stop-color="#309147"/>
<stop offset="0.89" stop-color="#258C46"/>
<stop offset="0.902" stop-color="#1D8745"/>
<stop offset="0.91" stop-color="#148344"/>
<stop offset="0.922" stop-color="#107F42"/>
<stop offset="0.929" stop-color="#0B7B41"/>
<stop offset="0.941" stop-color="#067740"/>
<stop offset="0.949" stop-color="#02723E"/>
<stop offset="0.961" stop-color="#006E3D"/>
<stop offset="0.969" stop-color="#006B3C"/>
<stop offset="0.98" stop-color="#00673B"/>
<stop offset="0.988" stop-color="#006339"/>
<stop offset="1" stop-color="#006038"/>
</linearGradient>
<linearGradient id="paint4_linear_667_131" x1="15.9564" y1="4.49774" x2="15.9564" y2="11.2" gradientUnits="userSpaceOnUse">
<stop stop-color="#A8CF45"/>
<stop offset="0.004" stop-color="#A7CF45"/>
<stop offset="0.012" stop-color="#A6CE45"/>
<stop offset="0.02" stop-color="#A5CE46"/>
<stop offset="0.031" stop-color="#A3CD46"/>
<stop offset="0.039" stop-color="#A1CD47"/>
<stop offset="0.051" stop-color="#A0CD47"/>
<stop offset="0.059" stop-color="#9FCC47"/>
<stop offset="0.071" stop-color="#9DCB47"/>
<stop offset="0.078" stop-color="#9CCB48"/>
<stop offset="0.09" stop-color="#9ACA48"/>
<stop offset="0.102" stop-color="#98CA48"/>
<stop offset="0.11" stop-color="#97CA49"/>
<stop offset="0.122" stop-color="#95C949"/>
<stop offset="0.129" stop-color="#93C849"/>
<stop offset="0.141" stop-color="#92C84A"/>
<stop offset="0.149" stop-color="#90C74A"/>
<stop offset="0.161" stop-color="#8FC74A"/>
<stop offset="0.169" stop-color="#8DC74A"/>
<stop offset="0.18" stop-color="#8BC64B"/>
<stop offset="0.188" stop-color="#8AC64B"/>
<stop offset="0.2" stop-color="#89C54B"/>
<stop offset="0.212" stop-color="#88C54C"/>
<stop offset="0.22" stop-color="#86C44C"/>
<stop offset="0.231" stop-color="#85C44C"/>
<stop offset="0.239" stop-color="#83C44C"/>
<stop offset="0.251" stop-color="#82C34C"/>
<stop offset="0.259" stop-color="#7FC34D"/>
<stop offset="0.271" stop-color="#7EC24D"/>
<stop offset="0.278" stop-color="#7CC24D"/>
<stop offset="0.29" stop-color="#7BC24D"/>
<stop offset="0.302" stop-color="#79C14E"/>
<stop offset="0.31" stop-color="#78C14E"/>
<stop offset="0.322" stop-color="#76C04E"/>
<stop offset="0.329" stop-color="#76C04E"/>
<stop offset="0.341" stop-color="#76C04E"/>
<stop offset="0.349" stop-color="#76C04E"/>
<stop offset="0.361" stop-color="#76C04E"/>
<stop offset="0.369" stop-color="#76C04E"/>
<stop offset="0.38" stop-color="#76C04E"/>
<stop offset="0.388" stop-color="#76C04E"/>
<stop offset="0.4" stop-color="#76C04E"/>
<stop offset="0.412" stop-color="#76C04E"/>
<stop offset="0.42" stop-color="#76C04E"/>
<stop offset="0.431" stop-color="#76C04E"/>
<stop offset="0.439" stop-color="#76C04E"/>
<stop offset="0.451" stop-color="#76C04E"/>
<stop offset="0.459" stop-color="#76C04E"/>
<stop offset="0.471" stop-color="#76C04E"/>
<stop offset="0.478" stop-color="#76C04E"/>
<stop offset="0.49" stop-color="#76C04E"/>
<stop offset="0.502" stop-color="#76C04E"/>
<stop offset="0.51" stop-color="#76C04E"/>
<stop offset="0.522" stop-color="#76C04E"/>
<stop offset="0.529" stop-color="#76C04E"/>
<stop offset="0.541" stop-color="#76C04E"/>
<stop offset="0.549" stop-color="#76C04E"/>
<stop offset="0.561" stop-color="#76C04E"/>
<stop offset="0.569" stop-color="#76C04E"/>
<stop offset="0.58" stop-color="#76C04E"/>
<stop offset="0.588" stop-color="#76C04E"/>
<stop offset="0.6" stop-color="#76C04E"/>
<stop offset="0.612" stop-color="#76C04E"/>
<stop offset="0.62" stop-color="#76C04E"/>
<stop offset="0.631" stop-color="#76C04E"/>
<stop offset="0.639" stop-color="#76C04E"/>
<stop offset="0.651" stop-color="#76C04E"/>
<stop offset="0.659" stop-color="#76C04E"/>
<stop offset="0.671" stop-color="#76C04E"/>
<stop offset="0.678" stop-color="#76C04E"/>
<stop offset="0.69" stop-color="#76C04E"/>
<stop offset="0.702" stop-color="#76C04E"/>
<stop offset="0.71" stop-color="#76C04E"/>
<stop offset="0.722" stop-color="#76C04E"/>
<stop offset="0.729" stop-color="#76C04E"/>
<stop offset="0.741" stop-color="#76C04E"/>
<stop offset="0.749" stop-color="#76C04E"/>
<stop offset="0.761" stop-color="#76C04E"/>
<stop offset="0.769" stop-color="#76C04E"/>
<stop offset="0.78" stop-color="#76C04E"/>
<stop offset="0.788" stop-color="#76C04E"/>
<stop offset="0.8" stop-color="#76C04E"/>
<stop offset="0.812" stop-color="#76C04E"/>
<stop offset="0.82" stop-color="#76C04E"/>
<stop offset="0.831" stop-color="#76C04E"/>
<stop offset="0.839" stop-color="#76C04E"/>
<stop offset="0.851" stop-color="#76C04E"/>
<stop offset="0.859" stop-color="#76C04E"/>
<stop offset="0.871" stop-color="#76C04E"/>
<stop offset="0.878" stop-color="#76C04E"/>
<stop offset="0.89" stop-color="#76C04E"/>
<stop offset="0.902" stop-color="#76C04E"/>
<stop offset="0.91" stop-color="#76C04E"/>
<stop offset="0.922" stop-color="#76C04E"/>
<stop offset="0.929" stop-color="#76C04E"/>
<stop offset="0.941" stop-color="#76C04E"/>
<stop offset="0.949" stop-color="#76C04E"/>
<stop offset="0.961" stop-color="#76C04E"/>
<stop offset="0.969" stop-color="#76C04E"/>
<stop offset="0.98" stop-color="#76C04E"/>
<stop offset="0.988" stop-color="#76C04E"/>
<stop offset="1" stop-color="#76C04E"/>
</linearGradient>
</defs>
</svg>
