<svg width="35" height="25" viewBox="0 0 35 25" fill="none" xmlns="http://www.w3.org/2000/svg">
<path d="M30.9447 0H3.4383C1.53938 0 0 1.53938 0 3.4383V20.6298C0 22.5287 1.53938 24.0681 3.4383 24.0681H30.9447C32.8436 24.0681 34.383 22.5287 34.383 20.6298V3.4383C34.383 1.53938 32.8436 0 30.9447 0Z" fill="#009450"/>
<path fill-rule="evenodd" clip-rule="evenodd" d="M10.612 19.7969H30.3392V9.54215C30.3392 8.00196 29.7274 6.52486 28.6383 5.43578C27.5492 4.3467 26.0721 3.73486 24.5319 3.73486H4.76172V13.9896C4.77171 15.5332 5.39194 17.0103 6.48703 18.0983C7.58212 19.1863 9.06314 19.7969 10.6068 19.7969H10.612Z" fill="url(#paint0_linear_667_163)"/>
<path fill-rule="evenodd" clip-rule="evenodd" d="M24.8584 3H4V14.3662C4.00954 16.0181 4.67288 17.599 5.84492 18.7631C7.01696 19.9273 8.60232 20.5799 10.2543 20.5783H31.0706V9.21215C31.0707 8.39633 30.9101 7.58847 30.598 6.83473C30.2858 6.08098 29.8282 5.39612 29.2513 4.81924C28.6745 4.24237 27.9896 3.78479 27.2359 3.47264C26.4821 3.16049 25.6743 2.99989 24.8584 3Z" fill="url(#paint1_linear_667_163)"/>
<path fill-rule="evenodd" clip-rule="evenodd" d="M24.5144 3.44434H4.45703V13.9896C4.4659 15.611 5.11661 17.1628 6.2668 18.3056C7.41699 19.4484 8.97301 20.089 10.5944 20.0874H30.6122V9.54216C30.6122 7.92492 29.9697 6.37392 28.8262 5.23035C27.6826 4.08679 26.1316 3.44434 24.5144 3.44434ZM5.03811 13.9896V4.02541H24.5152C25.2397 4.02541 25.9571 4.16811 26.6264 4.44535C27.2957 4.72259 27.9039 5.12895 28.4161 5.64123C28.9284 6.15351 29.3348 6.76167 29.612 7.43099C29.8893 8.10032 30.032 8.81769 30.032 9.54216V19.5064H10.5944C9.12719 19.5077 7.7191 18.9282 6.67793 17.8945C5.63676 16.8607 5.04719 15.4568 5.03811 13.9896Z" fill="url(#paint2_linear_667_163)"/>
<path fill-rule="evenodd" clip-rule="evenodd" d="M10.5955 19.7969H30.3236V9.54215C30.3236 8.00196 29.7118 6.52486 28.6227 5.43578C27.5336 4.3467 26.0565 3.73486 24.5163 3.73486H4.74609V13.9896C4.75608 15.5332 5.37631 17.0103 6.47139 18.0983C7.56648 19.1863 9.0475 19.7969 10.5912 19.7969H10.5955Z" fill="url(#paint3_linear_667_163)"/>
<path d="M12.9199 8.2684H14.6536C14.6536 7.72085 14.4112 7.27387 13.7863 7.27387C13.2233 7.27387 12.9542 7.72171 12.9199 8.2684ZM16.0582 9.19931H12.937C13.023 9.85603 13.5001 10.1122 14.2634 10.1122C14.7455 10.1107 15.2191 9.98518 15.6387 9.74772V10.9021C15.1119 11.1099 14.5494 11.2121 13.9832 11.203C13.6423 11.2318 13.2993 11.1881 12.9765 11.0749C12.6537 10.9616 12.3586 10.7814 12.1105 10.5459C11.8624 10.3105 11.6669 10.0252 11.5369 9.70878C11.4069 9.3924 11.3454 9.05209 11.3563 8.71021C11.3295 8.38287 11.3732 8.05359 11.4844 7.74454C11.5956 7.4355 11.7717 7.15387 12.0009 6.91864C12.2301 6.6834 12.5071 6.50003 12.8131 6.38085C13.1192 6.26168 13.4472 6.20947 13.7751 6.22776C15.4487 6.22776 16.0556 7.47759 16.0556 8.89245V9.19329L16.0582 9.19931ZM8.0521 11.1763L5.72266 3.87769H7.64209L9.20566 9.67036L10.8492 3.84502H12.7015L10.2827 11.1763H8.0521ZM15.2089 17.2226C15.2089 17.5999 15.545 17.8243 15.9825 17.8243C16.3077 17.8072 16.6129 17.6619 16.8312 17.4202C17.0495 17.1785 17.1632 16.8602 17.1473 16.5349C16.9057 16.5246 16.6315 16.5031 16.3504 16.5031C15.71 16.5031 15.2063 16.7025 15.2063 17.2269L15.2089 17.2226ZM19.0168 18.9538H17.2857C17.2753 18.6598 17.2435 18.377 17.2435 18.0942C17.0705 18.4038 16.8153 18.6596 16.5063 18.8335C16.1972 19.0075 15.8461 19.0928 15.4917 19.0801C15.1706 19.0999 14.8492 19.0468 14.5516 18.9249C14.2539 18.803 13.9876 18.6154 13.7726 18.3761L13.7984 18.787C13.0909 18.9829 12.3602 19.0818 11.6262 19.081C9.67497 19.081 7.41946 18.0951 7.41946 15.3255C7.41946 12.7769 9.2022 11.5073 11.6159 11.5073C12.3541 11.5271 13.0855 11.6543 13.7872 11.8846L13.6299 13.4688C13.0494 13.1333 12.3912 12.9555 11.7208 12.9531C11.4136 12.9634 11.1114 13.0341 10.8315 13.1612C10.5517 13.2883 10.2995 13.4693 10.0896 13.6939C9.8797 13.9184 9.71608 14.1821 9.60806 14.4698C9.50004 14.7576 9.44975 15.0639 9.46008 15.3711C9.47041 15.6783 9.54115 15.9804 9.66826 16.2603C9.79536 16.5402 9.97635 16.7923 10.2009 17.0022C10.4254 17.2121 10.6891 17.3758 10.9768 17.4838C11.2646 17.5918 11.5708 17.6421 11.8781 17.6317C12.414 17.6225 12.945 17.5264 13.4502 17.3472C13.4588 15.69 15.2674 15.4914 16.2722 15.4914C16.5674 15.4926 16.862 15.5173 17.1533 15.5653C17.1429 14.8209 16.5868 14.6198 15.9052 14.6198C15.2993 14.6054 14.6997 14.7462 14.1637 15.0289L14.1327 13.749C14.8272 13.4772 15.5687 13.3454 16.3143 13.3614C17.7094 13.3614 18.9163 13.9631 18.9163 15.6272V17.6627C18.9096 18.0949 18.9447 18.5267 19.0211 18.9521L19.0168 18.9538ZM20.7411 8.66638C20.7411 9.42366 21.1151 9.9437 21.7357 9.9437C22.029 9.91557 22.2994 9.7727 22.4879 9.54619C22.6764 9.31968 22.7678 9.02787 22.7422 8.73428C22.7422 8.01396 22.3408 7.49306 21.7382 7.49306C21.5938 7.49993 21.4524 7.53649 21.3228 7.60046C21.1931 7.66443 21.078 7.75444 20.9847 7.86486C20.8914 7.97527 20.8218 8.10374 20.7804 8.24223C20.7389 8.38073 20.7264 8.52628 20.7437 8.66982L20.7411 8.66638ZM24.3823 3.81494V8.11282C24.4948 7.54912 24.8104 7.04636 25.2691 6.69998C25.7278 6.35359 26.2978 6.1877 26.8708 6.23378C28.632 6.23378 29.2707 7.48361 29.2707 8.89847V9.19931H25.9854C26.0765 9.85603 26.5785 10.1122 27.3814 10.1122C27.8876 10.1118 28.3859 9.98658 28.8323 9.74772V10.9021L28.8641 18.9538H27.1132V17.9781C26.9309 18.3206 26.6565 18.6052 26.321 18.7998C25.9854 18.9944 25.6021 19.0912 25.2144 19.0793C23.5889 19.0793 22.7216 17.7366 22.7216 16.1206C22.7214 15.7173 22.7948 15.3174 22.9382 14.9404C22.8523 14.9361 22.7568 14.9361 22.6631 14.9361C21.7821 14.9361 21.2878 15.5756 21.2878 16.6458V18.9538H19.3968V13.4886H21.1159V14.4951C21.239 14.1616 21.4618 13.8739 21.7539 13.6713C22.0461 13.4686 22.3935 13.3607 22.7491 13.3622C22.9639 13.3659 23.1781 13.3868 23.3895 13.425L23.3431 14.2038C23.5425 13.9396 23.801 13.7258 24.0979 13.5795C24.3948 13.4332 24.7218 13.3585 25.0528 13.3614C25.4098 13.3342 25.7681 13.3957 26.0957 13.5402C26.4234 13.6848 26.7102 13.908 26.9309 14.19V11.1944C26.3569 11.1941 25.7983 11.0084 25.3383 10.6651C24.8783 10.3217 24.5415 9.83896 24.378 9.28871V11.0938H22.8634V10.2454C22.7053 10.5435 22.4668 10.7914 22.1749 10.9608C21.883 11.1302 21.5495 11.2144 21.2122 11.2038C19.7973 11.2038 19.04 10.0357 19.04 8.63114C19.0402 8.2801 19.1043 7.93202 19.2291 7.60394C19.1501 7.60394 19.071 7.60394 18.9893 7.60394C18.2226 7.60394 17.7937 8.16009 17.7937 9.09101V11.0981H16.151V6.34638H17.6475V7.22229C17.7548 6.93169 17.949 6.68122 18.2037 6.50496C18.4584 6.32869 18.7612 6.2352 19.071 6.23722C19.2578 6.24068 19.4441 6.25907 19.628 6.29223L19.5867 6.96958C19.7602 6.7399 19.9851 6.55404 20.2433 6.42686C20.5016 6.29969 20.786 6.23474 21.0738 6.23722C21.3843 6.21364 21.696 6.26713 21.9809 6.39294C22.2658 6.51876 22.5152 6.713 22.707 6.9584L22.725 3.82268H24.3771L24.3823 3.81494ZM24.6694 16.1627C24.6694 17.0335 25.0992 17.6317 25.8126 17.6317C26.1507 17.5997 26.4622 17.4348 26.6786 17.1732C26.8951 16.9116 26.9989 16.5747 26.967 16.2366C26.967 15.408 26.5054 14.8098 25.8126 14.8098C25.6462 14.8177 25.4832 14.86 25.3338 14.9339C25.1845 15.0078 25.052 15.1118 24.9448 15.2393C24.8375 15.3668 24.7578 15.5151 24.7105 15.6749C24.6633 15.8347 24.6496 16.0026 24.6703 16.1679L24.6694 16.1627ZM25.9674 8.2641H27.7922C27.8108 8.13626 27.8007 8.00589 27.7627 7.88245C27.7246 7.759 27.6596 7.64555 27.5723 7.55035C27.485 7.45514 27.3776 7.38055 27.2579 7.33199C27.1382 7.28343 27.0092 7.26211 26.8802 7.26957C26.288 7.27387 26.0086 7.72171 25.9682 8.2684L25.9674 8.2641Z" fill="#EDC029"/>
<path fill-rule="evenodd" clip-rule="evenodd" d="M29.0997 9.02721V8.72635C29.0997 7.31149 28.461 6.06167 26.6998 6.06167C26.1269 6.01561 25.5571 6.18154 25.0985 6.52793C24.6399 6.87433 24.3245 7.37707 24.2121 7.9407V3.64282H22.56L22.542 6.77855C22.3502 6.53315 22.1008 6.33891 21.8159 6.21309C21.5309 6.08728 21.2194 6.03379 20.9088 6.05737C20.621 6.05482 20.3365 6.11974 20.0783 6.24692C19.8201 6.3741 19.5952 6.56 19.4217 6.78973L19.4621 6.11152C19.2782 6.07865 19.092 6.06054 18.9051 6.05737C18.5954 6.05547 18.2926 6.14901 18.0379 6.32526C17.7833 6.50151 17.589 6.75192 17.4817 7.04244V6.17341H15.9852V10.9269H17.6278V8.91976C17.6278 7.98884 18.0576 7.43268 18.8235 7.43268C18.9043 7.43268 18.9842 7.43268 19.0624 7.43268C18.9377 7.7605 18.8736 8.10827 18.8733 8.45902C18.8733 9.86442 19.6306 11.0326 21.0446 11.0326C21.3821 11.0433 21.7158 10.9592 22.0078 10.7898C22.2998 10.6204 22.5385 10.3724 22.6967 10.0742V10.9226H24.2113V9.11746C24.3748 9.6677 24.7116 10.1504 25.1716 10.4938C25.6316 10.8372 26.1902 11.0228 26.7642 11.0231V14.0248C26.5436 13.7427 26.2566 13.5195 25.929 13.375C25.6014 13.2305 25.2431 13.169 24.886 13.1961C24.5551 13.1933 24.228 13.268 23.9311 13.4142C23.6342 13.5605 23.3758 13.7743 23.1764 14.0385L23.2228 13.2597C23.0116 13.2216 22.7978 13.2007 22.5833 13.197C22.2277 13.1955 21.8803 13.3033 21.5881 13.506C21.2959 13.7087 21.0732 13.9963 20.9501 14.3299V13.3225H19.2309V18.7877H21.122V16.4797C21.122 15.4095 21.6154 14.7692 22.4973 14.7692C22.5901 14.7692 22.6821 14.7692 22.7724 14.7743C22.6289 15.1515 22.5555 15.5518 22.5557 15.9554C22.5557 17.5714 23.4265 18.914 25.0485 18.914C25.4363 18.9261 25.8196 18.8293 26.1552 18.6347C26.4908 18.4401 26.7652 18.1554 26.9473 17.8129V18.7885H28.6983L28.6665 10.7369V9.57819C28.2202 9.81741 27.7218 9.94289 27.2155 9.94351C26.4127 9.94351 25.9107 9.68563 25.8195 9.03149H29.1049L29.0997 9.02721ZM26.7084 7.10175C26.8374 7.09416 26.9665 7.11538 27.0863 7.16388C27.2061 7.21239 27.3136 7.28696 27.401 7.38218C27.4884 7.4774 27.5535 7.59089 27.5916 7.7144C27.6297 7.83792 27.6398 7.96837 27.6212 8.09628H25.7964C25.8325 7.54873 26.1161 7.10175 26.7084 7.10175ZM20.5676 8.49426C20.5503 8.35068 20.5627 8.20509 20.6042 8.06655C20.6457 7.928 20.7152 7.79948 20.8085 7.68899C20.9018 7.57851 21.0169 7.48843 21.1465 7.42437C21.2762 7.36031 21.4176 7.32364 21.5621 7.31665C22.1638 7.31665 22.5661 7.83669 22.5661 8.55787C22.5929 8.85175 22.5024 9.14431 22.3143 9.3717C22.1262 9.59909 21.8558 9.74285 21.5621 9.7716C20.9415 9.7716 20.5676 9.25155 20.5676 8.49426ZM24.495 15.9915C24.475 15.8265 24.4894 15.6591 24.537 15.4999C24.5846 15.3406 24.6646 15.1929 24.7719 15.066C24.8791 14.939 25.0114 14.8355 25.1605 14.762C25.3095 14.6884 25.4722 14.6464 25.6382 14.6385C26.3301 14.6385 26.7917 15.2402 26.7917 16.0654C26.8076 16.2327 26.7904 16.4016 26.741 16.5623C26.6916 16.723 26.6111 16.8723 26.5039 17.0019C26.3968 17.1314 26.2652 17.2386 26.1167 17.3173C25.9681 17.396 25.8055 17.4446 25.6382 17.4605C24.9282 17.4631 24.4984 16.8657 24.4984 15.9941L24.495 15.9915ZM10.6773 3.68064L9.03378 9.50598L7.46935 3.71331H5.55078L7.88022 11.012H10.11L12.5288 3.68064H10.6773ZM11.187 8.54755C11.1761 8.88942 11.2377 9.22975 11.3677 9.54613C11.4976 9.86251 11.6931 10.1478 11.9412 10.3833C12.1893 10.6187 12.4845 10.799 12.8072 10.9122C13.13 11.0255 13.473 11.0691 13.8139 11.0403C14.3801 11.0495 14.9426 10.9472 15.4694 10.7395V9.58077C15.0499 9.8186 14.5763 9.94442 14.0941 9.94609C13.3308 9.94609 12.8546 9.68821 12.7678 9.03408H15.8889V8.73322C15.8889 7.31836 15.282 6.06854 13.6084 6.06854C13.2805 6.05025 12.9525 6.10245 12.6464 6.22163C12.3404 6.3408 12.0634 6.52418 11.8342 6.75942C11.605 6.99465 11.4288 7.27628 11.3177 7.58532C11.2065 7.89437 11.1628 8.22366 11.1896 8.551L11.187 8.54755ZM13.6145 7.10605C14.2394 7.10605 14.4818 7.55303 14.4818 8.10057H12.7454C12.7824 7.54873 13.0514 7.10089 13.6145 7.10089V7.10605ZM7.24501 15.1603C7.24501 17.9298 9.50052 18.9158 11.4518 18.9158C12.1855 18.9166 12.9159 18.8177 13.623 18.6218L13.5981 18.2109C13.8136 18.4508 14.0806 18.6387 14.3791 18.7606C14.6776 18.8825 14.9998 18.9353 15.3216 18.9149C15.676 18.9276 16.0271 18.8422 16.3361 18.6683C16.6452 18.4943 16.9003 18.2385 17.0734 17.929C17.0734 18.2126 17.1043 18.4954 17.1146 18.7885H18.8484C18.7719 18.3631 18.7368 17.9313 18.7435 17.4992V15.4568C18.7435 13.7884 17.5401 13.191 16.1416 13.191C15.396 13.1749 14.6545 13.3066 13.96 13.5787L13.9909 14.8586C14.527 14.5759 15.1265 14.435 15.7324 14.4494C16.4141 14.4494 16.9702 14.6488 16.9805 15.3949C16.6893 15.3471 16.3947 15.3227 16.0995 15.3219C15.0946 15.3219 13.2861 15.5204 13.2775 17.1777C12.7723 17.3569 12.2413 17.4529 11.7053 17.4622C11.3886 17.4914 11.0693 17.4529 10.7687 17.3492C10.468 17.2454 10.1929 17.0788 9.96166 16.8605C9.7304 16.6421 9.54825 16.3771 9.42739 16.0829C9.30653 15.7887 9.24973 15.4721 9.26071 15.1542C9.24034 14.8448 9.28484 14.5345 9.3914 14.2433C9.49797 13.9521 9.66422 13.6863 9.8795 13.4631C10.0948 13.2399 10.3544 13.0641 10.6415 12.9471C10.9287 12.8301 11.2372 12.7744 11.5472 12.7835C12.2177 12.7857 12.8759 12.9635 13.4563 13.2993L13.6136 11.7151C12.912 11.4847 12.1805 11.3576 11.4423 11.3377C9.02948 11.3377 7.24588 12.6073 7.24588 15.156L7.24501 15.1603ZM15.0379 17.0591C15.0379 16.5347 15.5416 16.3353 16.1811 16.3353C16.4639 16.3353 16.7373 16.3559 16.978 16.3671C16.9939 16.6924 16.8803 17.0107 16.662 17.2524C16.4437 17.4941 16.1385 17.6393 15.8132 17.6565C15.3731 17.6565 15.0396 17.4364 15.0396 17.0548L15.0379 17.0591Z" fill="url(#paint4_linear_667_163)"/>
<defs>
<linearGradient id="paint0_linear_667_163" x1="20.185" y1="22.3347" x2="18.0766" y2="0.886377" gradientUnits="userSpaceOnUse">
<stop stop-color="#005C36"/>
<stop offset="0.169" stop-color="#00663B"/>
<stop offset="0.49" stop-color="#009551"/>
<stop offset="0.71" stop-color="#00A859"/>
<stop offset="0.89" stop-color="#FEFEFE"/>
<stop offset="1" stop-color="#FEFEFE"/>
</linearGradient>
<linearGradient id="paint1_linear_667_163" x1="20.4048" y1="23.2326" x2="17.9602" y2="-0.0154667" gradientUnits="userSpaceOnUse">
<stop stop-color="#FFFAC5"/>
<stop offset="0.129" stop-color="#EDC029"/>
<stop offset="0.239" stop-color="#FFF212"/>
<stop offset="0.361" stop-color="#FFF212"/>
<stop offset="0.569" stop-color="#FFDD21"/>
<stop offset="0.729" stop-color="#FFDD21"/>
<stop offset="0.871" stop-color="#EDC029"/>
<stop offset="0.941" stop-color="#EDC029"/>
<stop offset="1" stop-color="#EDC029"/>
</linearGradient>
<linearGradient id="paint2_linear_667_163" x1="20.2547" y1="22.6671" x2="18.0192" y2="0.540866" gradientUnits="userSpaceOnUse">
<stop stop-color="#005C36"/>
<stop offset="0.169" stop-color="#00663B"/>
<stop offset="0.49" stop-color="#009551"/>
<stop offset="0.749" stop-color="#00A859"/>
<stop offset="1" stop-color="#D0E8CD"/>
</linearGradient>
<linearGradient id="paint3_linear_667_163" x1="20.1693" y1="22.3347" x2="18.061" y2="0.886377" gradientUnits="userSpaceOnUse">
<stop stop-color="#FFFAC5"/>
<stop offset="0.129" stop-color="#EDC029"/>
<stop offset="0.239" stop-color="#FFF212"/>
<stop offset="0.361" stop-color="#FFF212"/>
<stop offset="0.569" stop-color="#FFDD21"/>
<stop offset="0.729" stop-color="#FFDD21"/>
<stop offset="0.871" stop-color="#EDC029"/>
<stop offset="0.941" stop-color="#EDC029"/>
<stop offset="1" stop-color="#EDC029"/>
</linearGradient>
<linearGradient id="paint4_linear_667_163" x1="19.8481" y1="20.5232" x2="18.2883" y2="1.46852" gradientUnits="userSpaceOnUse">
<stop stop-color="#005C36"/>
<stop offset="0.059" stop-color="#005C36"/>
<stop offset="0.169" stop-color="#005C36"/>
<stop offset="0.231" stop-color="#007D47"/>
<stop offset="0.322" stop-color="#008B4D"/>
<stop offset="0.459" stop-color="#009551"/>
<stop offset="0.659" stop-color="#00A859"/>
<stop offset="0.89" stop-color="#0CAC70"/>
<stop offset="1" stop-color="#D0E8CD"/>
</linearGradient>
</defs>
</svg>
