<svg width="37" height="27" viewBox="0 0 37 27" fill="none" xmlns="http://www.w3.org/2000/svg">
<path d="M32.6638 0H3.4383C1.53938 0 0 1.53938 0 3.4383V23.2085C0 25.1074 1.53938 26.6468 3.4383 26.6468H32.6638C34.5628 26.6468 36.1021 25.1074 36.1021 23.2085V3.4383C36.1021 1.53938 34.5628 0 32.6638 0Z" fill="#0E4595"/>
<path d="M21.4809 13.237C21.4815 15.0647 20.9402 16.8516 19.9252 18.3716C18.9103 19.8917 17.4674 21.0766 15.779 21.7765C14.0906 22.4764 12.2325 22.6599 10.4398 22.3037C8.64713 21.9476 7.00032 21.0678 5.70768 19.7756C4.41504 18.4835 3.53463 16.837 3.17781 15.0444C2.82099 13.2519 3.00378 11.3937 3.70306 9.70507C4.40235 8.0164 5.58672 6.57304 7.10637 5.55753C8.62603 4.54203 10.4127 4 12.2404 4C14.6906 4 17.0404 4.97307 18.7732 6.70524C20.506 8.43742 21.48 10.7869 21.4809 13.237Z" fill="#D9222A"/>
<path d="M24.6461 4.00001C22.3524 3.99685 20.1402 4.84993 18.4425 6.39221C18.1083 6.69542 17.7963 7.02234 17.509 7.3704H19.3735C19.6289 7.68128 19.8641 8.00831 20.0774 8.34946H16.8016C16.6047 8.6645 16.427 8.99116 16.2695 9.32766H20.6095C20.7584 9.646 20.889 9.9726 21.0006 10.3058H15.8776C15.7701 10.6267 15.6806 10.9533 15.6094 11.284H21.2688C21.6187 12.9093 21.5261 14.5986 21.0006 16.1759H15.8776C15.989 16.5092 16.1196 16.8358 16.2687 17.1541H20.6095C20.4517 17.4909 20.2738 17.8178 20.0766 18.1331H16.8016C17.0153 18.474 17.2507 18.8008 17.5065 19.1113H19.3735C19.0867 19.4601 18.7747 19.7873 18.44 20.0904C19.5519 21.0972 20.8923 21.8181 22.3453 22.1909C23.7982 22.5637 25.3201 22.5772 26.7794 22.2302C28.2388 21.8832 29.5917 21.1862 30.7214 20.1993C31.851 19.2124 32.7234 17.9653 33.2632 16.5657C33.803 15.1662 33.994 13.6563 33.8197 12.1664C33.6453 10.6766 33.1109 9.25153 32.2625 8.01444C31.4142 6.77736 30.2774 5.76539 28.9504 5.06597C27.6234 4.36655 26.1461 4.00069 24.6461 4.00001Z" fill="#EE9F2D"/>
<path d="M32.6562 18.3884C32.6562 18.3294 32.6737 18.2717 32.7065 18.2227C32.7393 18.1736 32.7858 18.1354 32.8403 18.1128C32.8948 18.0902 32.9548 18.0843 33.0127 18.0958C33.0706 18.1073 33.1237 18.1357 33.1654 18.1775C33.2071 18.2192 33.2355 18.2723 33.2471 18.3302C33.2586 18.388 33.2527 18.448 33.2301 18.5025C33.2075 18.557 33.1693 18.6036 33.1202 18.6364C33.0712 18.6692 33.0135 18.6866 32.9545 18.6866C32.8754 18.6866 32.7995 18.6552 32.7436 18.5993C32.6877 18.5434 32.6563 18.4675 32.6562 18.3884ZM32.9545 18.6153C32.9994 18.6153 33.0433 18.602 33.0806 18.577C33.1179 18.5521 33.147 18.5167 33.1642 18.4752C33.1813 18.4337 33.1858 18.3881 33.1771 18.3441C33.1683 18.3001 33.1467 18.2596 33.115 18.2279C33.0833 18.1962 33.0428 18.1746 32.9988 18.1658C32.9548 18.1571 32.9091 18.1615 32.8677 18.1787C32.8262 18.1959 32.7908 18.225 32.7658 18.2623C32.7409 18.2996 32.7276 18.3435 32.7276 18.3884C32.7276 18.4485 32.7515 18.5063 32.7941 18.5488C32.8366 18.5914 32.8943 18.6153 32.9545 18.6153ZM32.9141 18.5199H32.8496V18.2577H32.9605C32.9837 18.2554 33.007 18.2598 33.0276 18.2706C33.0382 18.2781 33.0467 18.288 33.0526 18.2995C33.0584 18.3111 33.0614 18.3239 33.0611 18.3368C33.0614 18.3514 33.0571 18.3658 33.049 18.3779C33.0408 18.3901 33.0292 18.3994 33.0155 18.4047L33.0637 18.5208H32.9957L32.9553 18.4167H32.9106L32.9141 18.5199ZM32.9141 18.3712H32.9476C32.9602 18.3726 32.9729 18.3708 32.9846 18.366C32.9895 18.3627 32.9935 18.3582 32.9962 18.3529C32.9989 18.3477 33.0002 18.3419 33 18.3359C33 18.3307 32.9986 18.3255 32.9961 18.3208C32.9935 18.3162 32.9899 18.3122 32.9855 18.3093C32.9732 18.3043 32.9599 18.3026 32.9468 18.3041H32.9141V18.3712Z" fill="black"/>
<path d="M10.0832 14.2458C10.0092 14.2357 9.9345 14.2305 9.85974 14.2303C9.2907 14.2303 9.00017 14.4254 9.00017 14.8105C8.99459 14.8604 8.99981 14.9109 9.01549 14.9586C9.03116 15.0063 9.05691 15.0501 9.09099 15.0869C9.12508 15.1238 9.16669 15.1529 9.21301 15.1722C9.25934 15.1916 9.30929 15.2007 9.35947 15.1991C9.7712 15.2016 10.0652 14.8131 10.0832 14.2458ZM10.813 15.9443H9.9818L10.0007 15.5489C9.87457 15.7036 9.71345 15.826 9.53066 15.9061C9.34787 15.9862 9.14865 16.0217 8.94945 16.0096C8.81885 16.0075 8.69014 15.978 8.57158 15.9232C8.45303 15.8684 8.34722 15.7894 8.26096 15.6913C8.17469 15.5932 8.10987 15.4782 8.07064 15.3536C8.03141 15.2291 8.01864 15.0976 8.03314 14.9678C8.03314 14.0403 8.68126 13.4988 9.79441 13.4988C9.93126 13.5003 10.0679 13.51 10.2036 13.528C10.2277 13.4479 10.241 13.365 10.2431 13.2814C10.2431 13.0286 10.0712 12.9375 9.59928 12.9375C9.23844 12.9368 8.87989 12.9949 8.53771 13.1094C8.54802 13.0458 8.67696 12.2499 8.67696 12.2499C9.06541 12.1214 9.47127 12.0533 9.88037 12.0479C10.7399 12.0479 11.1981 12.4347 11.1972 13.1653C11.1898 13.4189 11.1625 13.6715 11.1156 13.9209C11.0245 14.4753 10.8379 15.6589 10.8122 15.9477L10.813 15.9443Z" fill="black"/>
<path d="M7.61265 15.9478H6.60953L7.18459 12.3444L5.90124 15.9478H5.21358L5.12762 12.3651L4.52592 15.9478H3.58984L4.37463 11.2605H5.817L5.90295 13.8839L6.78402 11.2639H8.38885L7.61523 15.9512" fill="black"/>
<path d="M25.8879 14.2458C25.8139 14.2356 25.7392 14.2305 25.6644 14.2303C25.0962 14.2303 24.8049 14.4254 24.8049 14.8105C24.7993 14.8604 24.8045 14.9109 24.8202 14.9586C24.8358 15.0063 24.8616 15.0501 24.8957 15.0869C24.9298 15.1238 24.9714 15.1529 25.0177 15.1722C25.064 15.1916 25.114 15.2007 25.1642 15.1991C25.5759 15.2016 25.8707 14.8131 25.8879 14.2458ZM26.6177 15.9443H25.7865L25.8054 15.5489C25.6793 15.7036 25.5182 15.826 25.3354 15.9061C25.1526 15.9862 24.9534 16.0217 24.7541 16.0096C24.6235 16.0075 24.4948 15.978 24.3763 15.9232C24.2577 15.8684 24.1519 15.7894 24.0657 15.6913C23.9794 15.5932 23.9146 15.4782 23.8753 15.3536C23.8361 15.2291 23.8233 15.0976 23.8378 14.9678C23.8378 14.0403 24.486 13.4988 25.5991 13.4988C25.7357 13.5003 25.872 13.51 26.0074 13.528C26.0315 13.4479 26.0448 13.365 26.0469 13.2814C26.0469 13.0286 25.875 12.9375 25.404 12.9375C25.0431 12.937 24.6846 12.995 24.3424 13.1094C24.3527 13.0458 24.4816 12.2499 24.4816 12.2499C24.8701 12.1214 25.276 12.0533 25.6851 12.0479C26.5446 12.0479 27.0028 12.4347 27.0019 13.1653C26.9945 13.4189 26.9672 13.6715 26.9203 13.9209C26.8309 14.4753 26.6435 15.6589 26.6177 15.9477V15.9443Z" fill="black"/>
<path d="M15.2706 15.8896C15.0386 15.9692 14.7954 16.011 14.5502 16.0134C14.4397 16.0234 14.3284 16.0082 14.2246 15.969C14.1208 15.9298 14.0272 15.8675 13.951 15.787C13.8747 15.7064 13.8177 15.6095 13.7842 15.5038C13.7507 15.398 13.7417 15.286 13.7577 15.1762C13.7837 14.8351 13.8296 14.4959 13.8952 14.1602C13.9528 13.8043 14.3302 11.5591 14.3302 11.5591H15.3273L15.2112 12.1359H15.813L15.6771 13.0522H15.0754C14.9594 13.7768 14.7943 14.6802 14.7926 14.7997C14.7926 14.9965 14.8975 15.0816 15.1365 15.0816C15.2281 15.085 15.3197 15.0728 15.4072 15.0455L15.274 15.8896" fill="black"/>
<path d="M18.3288 15.8586C17.9975 15.9621 17.6522 16.0142 17.3051 16.0133C17.0748 16.0432 16.8407 16.0198 16.6209 15.9449C16.4011 15.87 16.2014 15.7456 16.0373 15.5813C15.8732 15.417 15.749 15.2172 15.6743 14.9973C15.5996 14.7774 15.5764 14.5433 15.6065 14.3131C15.6065 13.01 16.3466 12.0507 17.3515 12.0507C17.5337 12.0396 17.7162 12.0678 17.8865 12.1334C18.0569 12.199 18.2112 12.3005 18.3389 12.4309C18.4666 12.5613 18.5649 12.7177 18.6269 12.8894C18.6889 13.061 18.7133 13.2441 18.6984 13.426C18.6938 13.7423 18.6526 14.057 18.5755 14.3638H16.5899C16.5229 14.9165 16.877 15.1469 17.4564 15.1469C17.8157 15.1469 18.1702 15.0649 18.493 14.9071L18.3288 15.8586ZM17.7684 13.5988C17.7744 13.5197 17.8741 12.918 17.3042 12.918C16.9862 12.918 16.7592 13.1604 16.6673 13.5988H17.7684Z" fill="black"/>
<path d="M11.4142 13.3408C11.4126 13.5762 11.4857 13.8061 11.623 13.9973C11.7603 14.1885 11.9548 14.3312 12.1784 14.4049C12.585 14.5957 12.6477 14.6525 12.6477 14.8253C12.6477 15.0625 12.4689 15.1691 12.0718 15.1691C11.7659 15.168 11.4623 15.1172 11.1727 15.0187C11.1727 15.0187 11.0412 15.8585 11.0352 15.8989C11.3779 15.976 11.7283 16.0138 12.0795 16.0115C13.1377 16.0115 13.6268 15.6083 13.6268 14.7376C13.6431 14.5072 13.5825 14.2779 13.4544 14.0856C13.3264 13.8933 13.1382 13.749 12.9193 13.6751C12.499 13.4817 12.4509 13.4388 12.4509 13.2608C12.4509 13.0545 12.6176 12.9497 12.9417 12.9497C13.1828 12.9531 13.4234 12.9723 13.662 13.0073L13.8047 12.1228C13.5124 12.0789 13.2175 12.0543 12.9219 12.0488C11.7993 12.0488 11.4108 12.6351 11.4142 13.3382" fill="black"/>
<path d="M23.2098 12.1502C23.525 12.1596 23.8329 12.2467 24.1063 12.4037L24.2705 11.386C23.9332 11.1813 23.5581 11.0466 23.1677 10.9897C22.8434 10.9929 22.5248 11.0749 22.2394 11.2287C21.954 11.3825 21.7103 11.6035 21.5293 11.8725C20.9474 11.68 20.7076 12.0694 20.4119 12.4579L20.154 12.5189C20.1774 12.3925 20.1881 12.2641 20.1858 12.1356H19.2643C19.1388 13.3149 18.9153 14.5106 18.7409 15.6916L18.6953 15.9495H19.6993C19.8669 14.8613 19.9571 14.1642 20.0147 13.6922L20.393 13.4816C20.4497 13.2719 20.6259 13.2006 20.9809 13.2092C20.9332 13.4669 20.9093 13.7284 20.9096 13.9905C20.9096 15.2378 21.5826 16.014 22.6622 16.014C22.9627 16.011 23.2611 15.9649 23.5485 15.8773L23.7247 14.8088C23.4627 14.9534 23.1709 15.0358 22.872 15.0495C22.2883 15.0495 21.9359 14.6197 21.9359 13.9071C21.9359 12.8757 22.4611 12.151 23.2098 12.151" fill="black"/>
<path d="M7.90258 15.6686H6.89859L7.47365 12.0661L6.19031 15.6686H5.50264L5.41669 12.0859L4.81499 15.6686H3.87891L4.6637 10.9822H6.10607L6.14647 13.8841L7.11951 10.9822H8.67791L7.9043 15.6686" fill="white"/>
<path d="M31.7023 11.2641L31.4797 12.6187C31.3806 12.4466 31.242 12.3004 31.0754 12.1922C30.9088 12.084 30.7188 12.0169 30.5212 11.9964C30.2445 12.026 29.9807 12.1293 29.7576 12.2956C29.5344 12.462 29.36 12.6852 29.2525 12.942C28.9638 12.879 28.6785 12.8006 28.3981 12.7073C28.4227 12.5168 28.4376 12.3251 28.4428 12.1331H27.5213C27.3958 13.3124 27.1732 14.5081 26.9987 15.6892L26.9531 15.947H27.9563C28.0915 15.0668 28.1967 14.3368 28.2718 13.7568C28.6156 13.4474 28.7875 13.1766 29.1313 13.1947C28.9708 13.587 28.8882 14.0068 28.8881 14.4307C28.8881 15.384 29.3703 16.0123 30.0992 16.0123C30.2749 16.0155 30.4491 15.9793 30.6091 15.9066C30.7691 15.8339 30.9109 15.7264 31.0241 15.592L30.9768 15.9462H31.9223L32.6865 11.2598L31.7023 11.2641ZM30.4482 15.0703C30.1044 15.0703 29.9324 14.8176 29.9324 14.319C29.9324 13.5694 30.2556 13.0382 30.7104 13.0382C31.0542 13.0382 31.2416 13.3013 31.2416 13.7852C31.2433 14.5373 30.9149 15.0668 30.4473 15.0668L30.4482 15.0703Z" fill="black"/>
<path d="M10.3723 13.9686C10.2982 13.9584 10.2236 13.9532 10.1488 13.9531C9.57976 13.9531 9.28923 14.1482 9.28923 14.5333C9.28365 14.5832 9.28888 14.6337 9.30455 14.6814C9.32022 14.7291 9.34597 14.7728 9.38006 14.8097C9.41414 14.8466 9.45575 14.8756 9.50208 14.895C9.5484 14.9143 9.59836 14.9235 9.64853 14.9218C10.0603 14.9253 10.3551 14.5359 10.3723 13.9686ZM11.1021 15.6662H10.2709L10.2898 15.2717C10.1635 15.4262 10.0024 15.5486 9.81964 15.6287C9.63688 15.7088 9.4377 15.7443 9.23851 15.7324C9.10791 15.7302 8.97921 15.7008 8.86065 15.646C8.74209 15.5912 8.63628 15.5122 8.55002 15.4141C8.46376 15.316 8.39894 15.201 8.35971 15.0764C8.32047 14.9518 8.3077 14.8204 8.32221 14.6906C8.32221 13.7623 8.97032 13.2216 10.0835 13.2216C10.22 13.2231 10.3564 13.2328 10.4918 13.2508C10.516 13.1704 10.5293 13.0872 10.5313 13.0033C10.5313 12.7505 10.3594 12.6594 9.88834 12.6594C9.52754 12.6592 9.16907 12.7173 8.82677 12.8313C8.83708 12.7686 8.96602 11.9718 8.96602 11.9718C9.3544 11.843 9.76031 11.7749 10.1694 11.7698C11.029 11.7698 11.4872 12.1566 11.4863 12.8872C11.4787 13.1408 11.4514 13.3934 11.4046 13.6428C11.3144 14.1981 11.127 15.3817 11.1012 15.6697L11.1021 15.6662Z" fill="white"/>
<path d="M24.5567 11.1051L24.3925 12.1228C24.1191 11.9658 23.8112 11.8787 23.496 11.8692C22.7473 11.8692 22.2221 12.593 22.2221 13.6253C22.2221 14.3371 22.5754 14.7669 23.1582 14.7669C23.4571 14.7532 23.7489 14.6709 24.0109 14.5262L23.839 15.5946C23.5514 15.6829 23.2527 15.7292 22.9519 15.7322C21.8723 15.7322 21.1992 14.9585 21.1992 13.7087C21.1992 12.0334 22.1293 10.8618 23.4582 10.8618C23.8366 10.8823 24.2091 10.9644 24.561 11.1051" fill="white"/>
<path d="M26.177 13.9686C26.1029 13.9584 26.0283 13.9532 25.9535 13.9531C25.3853 13.9531 25.0939 14.1482 25.0939 14.5333C25.0885 14.5832 25.0938 14.6336 25.1095 14.6812C25.1253 14.7289 25.151 14.7726 25.1851 14.8094C25.2191 14.8462 25.2607 14.8753 25.3069 14.8947C25.3532 14.9141 25.4031 14.9234 25.4532 14.9218C25.865 14.9253 26.1598 14.5359 26.177 13.9686ZM26.9067 15.6662H26.0756L26.0945 15.2717C25.9682 15.4262 25.8071 15.5486 25.6243 15.6287C25.4416 15.7088 25.2424 15.7443 25.0432 15.7324C24.9126 15.7302 24.7839 15.7008 24.6653 15.646C24.5468 15.5912 24.441 15.5122 24.3547 15.4141C24.2684 15.316 24.2036 15.201 24.1644 15.0764C24.1252 14.9518 24.1124 14.8204 24.1269 14.6906C24.1269 13.7623 24.775 13.2216 25.8881 13.2216C26.025 13.2231 26.1616 13.2328 26.2973 13.2508C26.3214 13.1704 26.3347 13.0872 26.3368 13.0033C26.3368 12.7505 26.1649 12.6594 25.6939 12.6594C25.3331 12.6592 24.9746 12.7173 24.6323 12.8313C24.6426 12.7686 24.7716 11.9718 24.7716 11.9718C25.16 11.843 25.5658 11.7749 25.975 11.7698C26.8346 11.7698 27.2927 12.1566 27.2919 12.8872C27.2844 13.1408 27.2571 13.3934 27.2102 13.6428C27.1191 14.1981 26.9317 15.3817 26.9093 15.6697L26.9067 15.6662Z" fill="white"/>
<path d="M15.5596 15.6113C15.3277 15.6908 15.0845 15.7325 14.8393 15.7351C14.7288 15.7451 14.6175 15.7299 14.5137 15.6907C14.4099 15.6515 14.3163 15.5892 14.24 15.5086C14.1637 15.4281 14.1067 15.3312 14.0733 15.2254C14.0398 15.1196 14.0307 15.0076 14.0468 14.8978C14.0729 14.5568 14.1188 14.2176 14.1843 13.8818C14.2419 13.5251 14.6193 11.2808 14.6193 11.2808H15.6164L15.5003 11.8584H16.0161L15.8802 12.7738H15.3645C15.2485 13.4993 15.0834 14.4019 15.0817 14.5213C15.0817 14.7182 15.1866 14.8033 15.4255 14.8033C15.5171 14.8069 15.6087 14.795 15.6963 14.768L15.5639 15.6113" fill="white"/>
<path d="M18.6179 15.5815C18.2865 15.6849 17.9413 15.7371 17.5941 15.7362C17.3638 15.7661 17.1298 15.7427 16.91 15.6678C16.6902 15.5929 16.4905 15.4685 16.3264 15.3042C16.1623 15.1399 16.0381 14.9401 15.9634 14.7202C15.8887 14.5004 15.8655 14.2663 15.8956 14.036C15.8956 12.7329 16.6357 11.7736 17.6405 11.7736C17.8231 11.7625 18.006 11.7908 18.1767 11.8566C18.3474 11.9225 18.5019 12.0243 18.6297 12.1552C18.7575 12.2861 18.8556 12.443 18.9174 12.6152C18.9791 12.7874 19.003 12.9709 18.9875 13.1532C18.9828 13.4695 18.9416 13.7842 18.8646 14.091H16.879C16.8119 14.6437 17.1661 14.875 17.7454 14.875C18.1048 14.8749 18.4594 14.7925 18.7821 14.6343L18.6179 15.5815ZM18.0574 13.3208C18.0635 13.2418 18.1632 12.6401 17.5933 12.6401C17.2761 12.6401 17.0483 12.8825 16.9563 13.3208H18.0574Z" fill="white"/>
<path d="M11.7033 13.0633C11.7024 13.2985 11.7759 13.528 11.9131 13.7191C12.0503 13.9102 12.2443 14.0531 12.4675 14.1275C12.874 14.3183 12.9368 14.375 12.9368 14.5478C12.9368 14.785 12.7571 14.8916 12.3609 14.8916C12.055 14.8905 11.7513 14.8397 11.4617 14.7412C11.4617 14.7412 11.3302 15.581 11.3242 15.6214C11.6667 15.6981 12.0168 15.7359 12.3677 15.734C13.4267 15.734 13.915 15.3309 13.915 14.4601C13.9313 14.2297 13.8707 14.0004 13.7426 13.8081C13.6146 13.6159 13.4264 13.4715 13.2075 13.3977C12.7872 13.2043 12.7382 13.1622 12.7382 12.9834C12.7382 12.7771 12.905 12.6713 13.229 12.6713C13.4704 12.6748 13.7113 12.694 13.9502 12.7289L14.0929 11.8444C13.8006 11.8006 13.5057 11.7759 13.2101 11.7705C12.0875 11.7705 11.699 12.3567 11.7024 13.0599" fill="white"/>
<path d="M32.214 15.6688H31.2685L31.3158 15.3138C31.2027 15.4485 31.0609 15.5561 30.9009 15.629C30.7409 15.7019 30.5667 15.7381 30.3909 15.735C29.662 15.735 29.1797 15.1067 29.1797 14.1534C29.1797 12.8856 29.9275 11.8162 30.8129 11.8162C31.003 11.8149 31.1903 11.8614 31.3577 11.9516C31.525 12.0417 31.667 12.1725 31.7705 12.332L31.9931 10.9773H32.9825L32.214 15.6688ZM30.7347 14.7878C31.2014 14.7878 31.5298 14.2583 31.5298 13.5036C31.5298 13.0196 31.3424 12.7566 30.9986 12.7566C30.5439 12.7566 30.2206 13.2878 30.2206 14.0374C30.2198 14.5359 30.3926 14.7887 30.7304 14.7887L30.7347 14.7878Z" fill="white"/>
<path d="M27.8112 11.8581C27.6857 13.0374 27.4622 14.2331 27.2877 15.4133L27.2422 15.6712H28.2453C28.6037 13.3409 28.6905 12.8853 29.2536 12.942C29.3218 12.5559 29.4504 12.1828 29.6344 11.8366C29.2141 11.7506 28.9794 11.9862 28.6725 12.4383C28.7088 12.2478 28.7289 12.0546 28.7327 11.8607H27.8112" fill="white"/>
<path d="M19.5495 11.8581C19.424 13.0374 19.2005 14.2331 19.026 15.4133L18.9805 15.6712H19.9845C20.3429 13.3409 20.4297 12.8853 20.9919 12.942C21.0605 12.556 21.189 12.183 21.3727 11.8366C20.9532 11.7506 20.7176 11.9862 20.4108 12.4383C20.4468 12.2478 20.467 12.0545 20.471 11.8607H19.5495" fill="white"/>
<path d="M32.6562 15.3703C32.6562 15.3113 32.6737 15.2536 32.7065 15.2046C32.7393 15.1555 32.7858 15.1173 32.8403 15.0947C32.8948 15.0721 32.9548 15.0662 33.0127 15.0778C33.0706 15.0893 33.1237 15.1176 33.1654 15.1594C33.2071 15.2011 33.2355 15.2542 33.2471 15.3121C33.2586 15.3699 33.2526 15.4299 33.2301 15.4844C33.2075 15.5389 33.1693 15.5855 33.1202 15.6183C33.0712 15.6511 33.0135 15.6686 32.9545 15.6686C32.8754 15.6686 32.7995 15.6371 32.7436 15.5812C32.6877 15.5253 32.6563 15.4494 32.6562 15.3703ZM32.9545 15.5972C32.9994 15.5972 33.0433 15.5839 33.0806 15.559C33.1179 15.534 33.147 15.4986 33.1642 15.4571C33.1813 15.4157 33.1858 15.37 33.1771 15.326C33.1683 15.282 33.1467 15.2416 33.1149 15.2098C33.0832 15.1781 33.0428 15.1565 32.9988 15.1477C32.9548 15.139 32.9091 15.1434 32.8677 15.1606C32.8262 15.1778 32.7908 15.2069 32.7658 15.2442C32.7409 15.2815 32.7276 15.3254 32.7276 15.3703C32.7276 15.4305 32.7515 15.4882 32.794 15.5308C32.8366 15.5733 32.8943 15.5972 32.9545 15.5972ZM32.9141 15.5009H32.8565V15.2431H32.9674C32.9905 15.2408 33.0138 15.2453 33.0345 15.2559C33.0449 15.2633 33.0534 15.2731 33.0592 15.2845C33.0651 15.2959 33.0681 15.3085 33.068 15.3213C33.0683 15.3359 33.064 15.3503 33.0559 15.3624C33.0477 15.3746 33.036 15.3839 33.0224 15.3892L33.0706 15.5044H33.0026L32.9622 15.4012H32.9175L32.9141 15.5009ZM32.9141 15.3531H32.9476C32.9602 15.3544 32.9728 15.3526 32.9846 15.3479C32.9894 15.3446 32.9934 15.3401 32.9961 15.3348C32.9988 15.3296 33.0001 15.3238 33 15.3179C32.9998 15.3126 32.9984 15.3074 32.9959 15.3028C32.9933 15.2982 32.9898 15.2942 32.9855 15.2912C32.9728 15.2867 32.9592 15.2852 32.9459 15.2869H32.9133L32.9141 15.3531Z" fill="white"/>
</svg>
