<svg width="37" height="23" viewBox="0 0 37 23" fill="none" xmlns="http://www.w3.org/2000/svg">
<path d="M31.8043 0H4.29787C1.92422 0 0 1.92422 0 4.29787V18.0511C0 20.4247 1.92422 22.3489 4.29787 22.3489H31.8043C34.1779 22.3489 36.1021 20.4247 36.1021 18.0511V4.29787C36.1021 1.92422 34.1779 0 31.8043 0Z" fill="url(#paint0_linear_672_176)"/>
<path d="M18.0695 18.1995C21.9803 18.1995 25.1506 15.0291 25.1506 11.1183C25.1506 7.20746 21.9803 4.03711 18.0695 4.03711C14.1586 4.03711 10.9883 7.20746 10.9883 11.1183C10.9883 15.0291 14.1586 18.1995 18.0695 18.1995Z" fill="#D3EA77"/>
<path d="M4.17961 6.36997C5.3014 6.36997 6.21079 5.46058 6.21079 4.33879C6.21079 3.21701 5.3014 2.30762 4.17961 2.30762C3.05783 2.30762 2.14844 3.21701 2.14844 4.33879C2.14844 5.46058 3.05783 6.36997 4.17961 6.36997Z" fill="#D3EA77"/>
<path d="M31.7812 20.2289C32.903 20.2289 33.8124 19.3195 33.8124 18.1977C33.8124 17.0759 32.903 16.1665 31.7812 16.1665C30.6594 16.1665 29.75 17.0759 29.75 18.1977C29.75 19.3195 30.6594 20.2289 31.7812 20.2289Z" fill="#D3EA77"/>
<path d="M31.7812 6.36997C32.903 6.36997 33.8124 5.46058 33.8124 4.33879C33.8124 3.21701 32.903 2.30762 31.7812 2.30762C30.6594 2.30762 29.75 3.21701 29.75 4.33879C29.75 5.46058 30.6594 6.36997 31.7812 6.36997Z" fill="#D3EA77"/>
<path d="M4.17961 20.2289C5.3014 20.2289 6.21079 19.3195 6.21079 18.1977C6.21079 17.0759 5.3014 16.1665 4.17961 16.1665C3.05783 16.1665 2.14844 17.0759 2.14844 18.1977C2.14844 19.3195 3.05783 20.2289 4.17961 20.2289Z" fill="#D3EA77"/>
<path d="M18.3909 6.56485V7.11154C18.7257 7.13767 19.0547 7.21328 19.3674 7.33589C19.6263 7.45408 19.8563 7.62747 20.0413 7.8439C20.1807 8.00738 20.2989 8.1879 20.3928 8.38113C20.4692 8.53643 20.5126 8.70591 20.5201 8.87882C20.5137 9.03771 20.4487 9.18862 20.3378 9.30256C20.2269 9.41649 20.0778 9.48542 19.9191 9.49608C19.7605 9.50674 19.6035 9.45839 19.4783 9.36032C19.3531 9.26225 19.2686 9.12138 19.241 8.96478C19.1947 8.76599 19.0959 8.58325 18.955 8.43556C18.8142 8.28787 18.6363 8.18062 18.4399 8.12498V10.2249C18.7714 10.3131 19.0975 10.4208 19.4164 10.5473C19.664 10.6361 19.8904 10.7757 20.0808 10.9573C20.2918 11.1389 20.4588 11.3661 20.5691 11.6217C20.6988 11.9345 20.7565 12.2724 20.7379 12.6105C20.7193 12.9485 20.6249 13.2781 20.4616 13.5747C20.281 13.9201 20.007 14.2078 19.6708 14.405C19.2874 14.6211 18.8602 14.748 18.421 14.7764V15.997C18.4289 16.1426 18.409 16.2885 18.3625 16.4268C18.3625 16.5247 18.2353 16.5634 18.0986 16.5634C18.0501 16.5684 18.0011 16.5612 17.9561 16.5424C17.911 16.5236 17.8714 16.4939 17.8408 16.456C17.7872 16.3469 17.7635 16.2256 17.772 16.1044V14.7703C17.4154 14.7307 17.0673 14.635 16.7405 14.4867C16.4629 14.3566 16.2113 14.1772 15.9978 13.9572C15.814 13.7629 15.6653 13.538 15.5586 13.2927C15.4675 13.0831 15.421 12.8568 15.4219 12.6283C15.4209 12.5462 15.4369 12.4649 15.4689 12.3893C15.5008 12.3137 15.5481 12.2455 15.6076 12.189C15.6685 12.1237 15.7428 12.0725 15.8255 12.0388C15.9082 12.0051 15.9972 11.9898 16.0864 11.9939C16.2107 11.9909 16.3331 12.025 16.4379 12.0919C16.5433 12.1598 16.6198 12.2642 16.6528 12.385C16.7508 12.6687 16.8247 12.8733 16.8969 13.0203C16.9665 13.1775 17.0698 13.3174 17.1995 13.4303C17.3588 13.5615 17.5457 13.6549 17.7462 13.7036V11.3613C17.3552 11.2602 16.9756 11.1193 16.6133 10.9409C16.3091 10.7972 16.0517 10.5704 15.8706 10.2868C15.6565 9.95275 15.5539 9.55941 15.5775 9.16334C15.5695 8.90038 15.6147 8.63852 15.7104 8.39347C15.8062 8.14842 15.9504 7.92523 16.1345 7.73731C16.5733 7.33456 17.1415 7.10168 17.7368 7.08059V6.55625C17.7368 6.26314 17.8442 6.12646 18.0496 6.12646C18.2551 6.12646 18.3909 6.29236 18.3909 6.56485ZM17.7462 10.0418V8.08973C17.5029 8.14969 17.2759 8.26303 17.0818 8.42153C16.9955 8.49969 16.9285 8.59682 16.8862 8.70526C16.8438 8.8137 16.8272 8.93049 16.8376 9.04644C16.8309 9.15685 16.8473 9.26745 16.886 9.37109C16.9246 9.47473 16.9846 9.56912 17.062 9.64814C17.2582 9.82213 17.4873 9.95485 17.7359 10.0384L17.7462 10.0418ZM18.3909 11.5461V13.7629C18.6886 13.7136 18.9625 13.5699 19.1722 13.3529C19.3554 13.161 19.4571 12.9056 19.4559 12.6403C19.4651 12.5125 19.4453 12.3843 19.398 12.2652C19.3506 12.1461 19.277 12.0393 19.1826 11.9527C18.9484 11.7654 18.6797 11.6261 18.3918 11.5426L18.3909 11.5461Z" fill="#87A532"/>
<defs>
<linearGradient id="paint0_linear_672_176" x1="18.0511" y1="-0.0446979" x2="18.0511" y2="23.1982" gradientUnits="userSpaceOnUse">
<stop stop-color="#A9DB3B"/>
<stop offset="1" stop-color="#92B93B"/>
</linearGradient>
</defs>
</svg>
