<svg width="83" height="28" viewBox="0 0 83 28" fill="none" xmlns="http://www.w3.org/2000/svg">
<path d="M33.8086 27.1997V10.4999C33.8086 9.02397 34.3949 7.60846 35.4386 6.56479C36.4822 5.52113 37.8978 4.93481 39.3737 4.93481H44.304C45.7757 4.93771 47.1862 5.52439 48.2258 6.5661C49.2655 7.6078 49.8494 9.01943 49.8494 10.4912V14.0465C49.8494 15.5225 49.263 16.938 48.2194 17.9817C47.1757 19.0253 45.7602 19.6117 44.2842 19.6117H37.318M51.2286 4.93262H53.3675C53.9731 4.93262 54.5539 5.1732 54.9821 5.60142C55.4104 6.02964 55.6509 6.61043 55.6509 7.21603V19.6949" stroke="#939598" stroke-width="1.02896" stroke-linecap="round" stroke-linejoin="round"/>
<path d="M55.192 2.99846L54.2221 2.02861C54.1641 1.97138 54.1181 1.90321 54.0867 1.82804C54.0552 1.75288 54.0391 1.67222 54.0391 1.59075C54.0391 1.50929 54.0552 1.42863 54.0867 1.35347C54.1181 1.2783 54.1641 1.21013 54.2221 1.1529L55.192 0.183056C55.2492 0.125071 55.3174 0.0790303 55.3925 0.0476063C55.4677 0.0161823 55.5483 0 55.6298 0C55.7113 0 55.7919 0.0161823 55.8671 0.0476063C55.9423 0.0790303 56.0104 0.125071 56.0677 0.183056L57.0375 1.1529C57.0955 1.21013 57.1415 1.2783 57.173 1.35347C57.2044 1.42863 57.2206 1.50929 57.2206 1.59075C57.2206 1.67222 57.2044 1.75288 57.173 1.82804C57.1415 1.90321 57.0955 1.97138 57.0375 2.02861L56.0677 2.99846C56.0104 3.05644 55.9423 3.10248 55.8671 3.13391C55.7919 3.16533 55.7113 3.18151 55.6298 3.18151C55.5483 3.18151 55.4677 3.16533 55.3925 3.13391C55.3174 3.10248 55.2492 3.05644 55.192 2.99846Z" fill="#32BCAD"/>
<path d="M59.7539 4.9209H61.8753C62.9663 4.92146 64.0125 5.35445 64.7848 6.125L69.7457 11.0881C70.0547 11.396 70.4731 11.5688 70.9093 11.5688C71.3455 11.5688 71.7639 11.396 72.0729 11.0881L77.0163 6.1447C77.7878 5.37274 78.8344 4.93883 79.9258 4.93841H81.6597M59.767 19.5824H61.8884C62.9799 19.582 64.0264 19.1481 64.798 18.3761L69.7589 13.4153C69.9116 13.2623 70.0929 13.1409 70.2926 13.0581C70.4923 12.9753 70.7063 12.9327 70.9225 12.9327C71.1386 12.9327 71.3526 12.9753 71.5523 13.0581C71.752 13.1409 71.9334 13.2623 72.0861 13.4153L77.0294 18.3586C77.4116 18.7406 77.8652 19.0435 78.3644 19.2501C78.8637 19.4567 79.3987 19.5629 79.939 19.5627H81.6597" stroke="#939598" stroke-width="1.02896" stroke-linecap="round" stroke-linejoin="round"/>
<path d="M21.1603 21.2207C20.6369 21.2217 20.1185 21.1191 19.6349 20.9188C19.1513 20.7186 18.7122 20.4246 18.3427 20.0538L14.2729 15.9818C14.1284 15.8446 13.9368 15.7681 13.7376 15.7681C13.5384 15.7681 13.3468 15.8446 13.2023 15.9818L9.11715 20.067C8.74799 20.4381 8.30889 20.7324 7.82525 20.9327C7.3416 21.1329 6.82303 21.2353 6.29956 21.2338H5.49609L10.6518 26.3896C11.4252 27.1622 12.4737 27.5961 13.5668 27.5961C14.66 27.5961 15.7085 27.1622 16.4819 26.3896L21.6507 21.2207H21.1603Z" fill="#32BCAD"/>
<path d="M6.30127 6.8242C6.82475 6.82272 7.34332 6.92509 7.82696 7.12539C8.3106 7.32568 8.74971 7.61992 9.11886 7.99107L13.204 12.0763C13.3463 12.2176 13.5388 12.2969 13.7393 12.2969C13.9399 12.2969 14.1323 12.2176 14.2746 12.0763L18.3444 8.00421C18.7139 7.63345 19.1531 7.33947 19.6366 7.1392C20.1202 6.93893 20.6386 6.83634 21.162 6.83733H21.6524L16.4836 1.66847C15.7102 0.895881 14.6617 0.461914 13.5686 0.461914C12.4754 0.461914 11.4269 0.895881 10.6535 1.66847L5.5 6.8242H6.30127Z" fill="#32BCAD"/>
<path d="M25.9296 11.1131L22.8055 7.98898C22.7357 8.01643 22.6616 8.03126 22.5866 8.03276H21.1679C20.4293 8.03508 19.7213 8.32849 19.1976 8.84936L15.1277 12.9192C14.7609 13.2847 14.2642 13.4899 13.7463 13.4899C13.2285 13.4899 12.7317 13.2847 12.3649 12.9192L8.27314 8.83622C7.74914 8.31575 7.04135 8.02241 6.3028 8.01962H4.55138C4.47647 8.01935 4.40225 8.00525 4.33246 7.97803L1.20837 11.1131C0.825298 11.4957 0.521403 11.9501 0.314063 12.4503C0.106722 12.9505 0 13.4866 0 14.0281C0 14.5695 0.106722 15.1057 0.314063 15.6058C0.521403 16.106 0.825298 16.5604 1.20837 16.9431L4.3434 20.0891C4.4132 20.0618 4.48742 20.0477 4.56233 20.0475H6.31374C7.0523 20.0447 7.76008 19.7513 8.28409 19.2309L12.3693 15.1457C12.7415 14.7905 13.2362 14.5923 13.7507 14.5923C14.2652 14.5923 14.7599 14.7905 15.1321 15.1457L19.191 19.2134C19.7148 19.7342 20.4227 20.0276 21.1614 20.03H22.58C22.655 20.0315 22.7291 20.0463 22.7989 20.0737L25.923 16.9518C26.6956 16.1785 27.1296 15.13 27.1296 14.0368C27.1296 12.9437 26.6956 11.8952 25.923 11.1218L25.9296 11.1131Z" fill="#32BCAD"/>
</svg>
