<svg width="58" height="39" viewBox="0 0 58 39" fill="none" xmlns="http://www.w3.org/2000/svg">
<path d="M52.666 0.733398H4.64307C2.23194 0.733398 0.277344 2.688 0.277344 5.09912V34.2039C0.277344 36.6151 2.23194 38.5697 4.64307 38.5697H52.666C55.0771 38.5697 57.0317 36.6151 57.0317 34.2039V5.09912C57.0317 2.688 55.0771 0.733398 52.666 0.733398Z" fill="#E7E7E7"/>
<path d="M27.9281 25.4724H7.55469V31.2934H27.9281V25.4724Z" fill="#E7E7E7"/>
<path d="M57.0317 8.00952H0.277344V15.2857H57.0317V8.00952Z" fill="#E7E7E7"/>
<path d="M47.0345 11.9724C47.3498 11.3252 47.6503 10.6714 47.974 10.0242C48.0581 10.6862 48.1506 11.3409 48.243 12.003C48.882 11.7875 49.5061 11.5332 50.1525 11.3483C49.6985 11.9031 49.2593 12.4727 48.821 13.0423C49.2981 13.4195 49.7752 13.782 50.2449 14.1593C49.606 14.2286 48.9671 14.2591 48.3281 14.3128C48.305 14.9905 48.2588 15.6757 48.2199 16.3609C47.8501 15.8681 47.5116 15.3604 47.1575 14.8592C46.6267 15.3447 46.0877 15.8301 45.5717 16.3304C45.7714 15.6369 45.9721 14.9434 46.1644 14.2517C45.5486 14.1741 44.9244 14.0899 44.3086 14.0049C44.9096 13.6664 45.5171 13.3197 46.1182 12.9729C45.8722 12.3802 45.6179 11.7949 45.3784 11.2022C45.9249 11.4722 46.488 11.7024 47.0336 11.9724H47.0345Z" fill="#273896" stroke="#273896" stroke-width="0.00832199" stroke-miterlimit="10"/>
<path d="M41.0952 20.8877C42.7198 19.5007 44.1826 17.9287 45.5604 16.3069C44.9321 18.4669 43.7356 20.4186 42.0957 21.9584C41.711 22.2664 41.3559 22.6279 40.926 22.8896C39.5168 23.8448 37.8533 24.4615 36.1445 24.4763L36.1824 24.4458C37.5324 23.6678 38.8198 22.7857 40.0327 21.8077C40.3869 21.5081 40.7642 21.2224 41.0952 20.8914V20.8877Z" fill="#EC1C25" stroke="#EC1C25" stroke-width="0.00832199" stroke-miterlimit="10"/>
<path d="M9.1058 18.7174C9.81687 18.5308 10.5502 18.4427 11.2852 18.4557C12.0952 18.4441 12.9045 18.506 13.7032 18.6407C13.5877 18.9486 13.4721 19.2491 13.3722 19.557C12.2247 19.4719 11.0384 19.3952 9.89916 19.6569C9.55241 19.7493 9.1058 19.888 9.01333 20.2958C8.99854 20.6037 9.28334 20.7813 9.54502 20.858C10.3615 21.0818 11.239 21.0503 12.0092 21.4128C12.3708 21.5746 12.6787 21.8899 12.7407 22.2903C12.7928 22.6064 12.7736 22.9302 12.6843 23.2379C12.595 23.5456 12.438 23.8294 12.2247 24.0685C11.7245 24.6075 10.9847 24.847 10.2829 24.9774C8.8284 25.2086 7.32397 25.0856 5.91016 24.7231C5.9869 24.4004 6.07937 24.0759 6.15612 23.7531C7.38037 23.9076 8.63514 24.0999 9.8594 23.8456C10.3217 23.7457 10.8451 23.4989 10.9302 22.9829C11.0226 22.6445 10.7221 22.3745 10.4299 22.2903C9.65228 22.0518 8.82008 22.1054 8.05815 21.8206C7.72712 21.6976 7.40349 21.4738 7.28051 21.1354C7.04934 20.5427 7.26479 19.8409 7.72712 19.4257C8.12813 19.0903 8.59876 18.8484 9.10488 18.7174H9.1058Z" fill="#273896" stroke="#273896" stroke-width="0.00832199" stroke-miterlimit="10"/>
<path d="M37.6602 18.4558C38.1604 18.4558 38.668 18.4632 39.1692 18.4558C39.785 19.288 40.4471 20.0878 41.1397 20.8507L41.1018 20.8886C40.7707 21.2196 40.3935 21.5054 40.0393 21.8049C39.1771 20.7394 38.3825 19.6208 37.6602 18.4558Z" fill="#273896" stroke="#273896" stroke-width="0.00832199" stroke-miterlimit="10"/>
<path fill-rule="evenodd" clip-rule="evenodd" d="M29.9621 15.7387C29.6198 15.7616 29.2753 15.7848 28.9308 15.8143C28.8587 16.1885 28.7851 16.5642 28.7114 16.9407C28.6196 17.4089 28.5277 17.8784 28.438 18.3479C28.3409 18.345 28.2435 18.3419 28.1457 18.3388C26.9104 18.299 25.6295 18.2578 24.4804 18.7788C23.9582 18.9939 23.4916 19.3246 23.1156 19.7459C22.7395 20.1673 22.4639 20.6684 22.3093 21.2116C22.0319 22.1048 22.0633 23.1599 22.656 23.9218C23.233 24.6458 24.1725 24.9463 25.0657 24.9925C26.0745 25.0388 27.1601 24.8844 27.984 24.2611C28.7616 23.6906 29.1925 22.7521 29.3774 21.8274C29.7676 19.7895 30.1551 17.7466 30.5397 15.6987C30.3481 15.7128 30.1554 15.7257 29.9621 15.7387ZM28.1762 19.4482C27.1989 19.3409 26.1595 19.3326 25.2663 19.7949V19.794C24.595 20.1315 24.1484 20.8028 23.9718 21.5185C23.8405 22.028 23.7563 22.605 24.0097 23.0904C24.2168 23.5139 24.6949 23.7294 25.1415 23.7682C25.7814 23.8449 26.498 23.7451 26.9908 23.2901C27.3912 22.936 27.5835 22.4052 27.676 21.8893C27.7481 21.5451 27.8175 21.1993 27.887 20.8528C27.9808 20.3856 28.0749 19.9169 28.1762 19.4482Z" fill="#273896"/>
<path d="M28.9308 15.8143L28.9295 15.7991L28.9267 15.8135L28.9308 15.8143ZM29.9621 15.7387L29.9618 15.7345L29.9621 15.7387ZM28.7114 16.9407L28.7073 16.9399L28.7114 16.9407ZM28.438 18.3479L28.4372 18.3741L28.4421 18.3487L28.438 18.3479ZM28.1457 18.3388L28.1459 18.3346L28.1457 18.3388ZM24.4804 18.7788L24.482 18.7826L24.4821 18.7826L24.4804 18.7788ZM23.1156 19.7459L23.1125 19.7432L23.1156 19.7459ZM22.3093 21.2116L22.3133 21.2128L22.3133 21.2127L22.3093 21.2116ZM22.656 23.9218L22.6528 23.9243L22.6528 23.9244L22.656 23.9218ZM25.0657 24.9925L25.0655 24.9967L25.0655 24.9967L25.0657 24.9925ZM27.984 24.2611L27.9815 24.2578L27.9815 24.2578L27.984 24.2611ZM29.3774 21.8274L29.3815 21.8282L29.3815 21.8282L29.3774 21.8274ZM30.5397 15.6987L30.5238 15.6957L30.5394 15.6946L30.5397 15.6987ZM25.2663 19.7949H25.2754L25.2682 19.7986L25.2663 19.7949ZM28.1762 19.4482L28.137 19.4397L28.1767 19.444L28.1762 19.4482ZM25.2663 19.794H25.2571L25.2645 19.7903L25.2663 19.794ZM23.9718 21.5185L23.9758 21.5195L23.9758 21.5195L23.9718 21.5185ZM24.0097 23.0904L24.0134 23.0886L24.0134 23.0885L24.0097 23.0904ZM25.1415 23.7682L25.142 23.7641L25.1419 23.764L25.1415 23.7682ZM26.9908 23.2901L26.9881 23.287L26.988 23.2871L26.9908 23.2901ZM27.676 21.8893L27.6719 21.8884L27.6719 21.8885L27.676 21.8893ZM27.887 20.8528L27.8829 20.8519L27.887 20.8528ZM28.9312 15.8185C29.2756 15.7889 29.62 15.7658 29.9623 15.7428L29.9618 15.7345C29.6195 15.7575 29.275 15.7806 28.9305 15.8102L28.9312 15.8185ZM28.7154 16.9415C28.7892 16.565 28.8628 16.1893 28.9349 15.8151L28.9267 15.8135C28.8546 16.1877 28.781 16.5634 28.7073 16.9399L28.7154 16.9415ZM28.4421 18.3487C28.5318 17.8792 28.6237 17.4097 28.7154 16.9415L28.7073 16.9399C28.6156 17.4081 28.5236 17.8776 28.4339 18.3471L28.4421 18.3487ZM28.1456 18.3429C28.2433 18.3461 28.3408 18.3492 28.4379 18.3521L28.4381 18.3437C28.341 18.3409 28.2436 18.3378 28.1459 18.3346L28.1456 18.3429ZM24.4821 18.7826C25.6302 18.2621 26.91 18.3032 28.1456 18.3429L28.1459 18.3346C26.9107 18.2949 25.6288 18.2536 24.4787 18.775L24.4821 18.7826ZM23.1187 19.7487C23.4943 19.3278 23.9604 18.9975 24.482 18.7826L24.4788 18.7749C23.9561 18.9903 23.4889 19.3213 23.1125 19.7432L23.1187 19.7487ZM22.3133 21.2127C22.4677 20.6701 22.743 20.1696 23.1187 19.7487L23.1125 19.7432C22.736 20.165 22.46 20.6667 22.3053 21.2104L22.3133 21.2127ZM22.6593 23.9192C22.0677 23.1587 22.0361 22.1053 22.3133 21.2128L22.3053 21.2104C22.0277 22.1044 22.0589 23.161 22.6528 23.9243L22.6593 23.9192ZM25.0659 24.9884C24.1733 24.9422 23.2352 24.6419 22.6593 23.9192L22.6528 23.9244C23.2308 24.6497 24.1717 24.9504 25.0655 24.9967L25.0659 24.9884ZM27.9815 24.2578C27.1587 24.8802 26.0743 25.0346 25.0659 24.9884L25.0655 24.9967C26.0748 25.043 27.1615 24.8885 27.9865 24.2645L27.9815 24.2578ZM29.3734 21.8266C29.1885 22.7507 28.758 23.6881 27.9815 24.2578L27.9864 24.2645C28.7652 23.6931 29.1965 22.7535 29.3815 21.8282L29.3734 21.8266ZM30.5356 15.698C30.151 17.7458 29.7636 19.7887 29.3733 21.8266L29.3815 21.8282C29.7717 19.7902 30.1592 17.7473 30.5438 15.6995L30.5356 15.698ZM29.9623 15.7428C30.1557 15.7298 30.3484 15.7169 30.54 15.7029L30.5394 15.6946C30.3478 15.7086 30.1552 15.7215 29.9618 15.7345L29.9623 15.7428ZM25.2682 19.7986C26.1603 19.3369 27.1986 19.345 28.1758 19.4523L28.1767 19.444C27.1992 19.3367 26.1588 19.3283 25.2644 19.7912L25.2682 19.7986ZM25.2622 19.794V19.7949H25.2705V19.794H25.2622ZM23.9758 21.5195C24.1522 20.8047 24.5982 20.1345 25.2682 19.7977L25.2645 19.7903C24.5918 20.1284 24.1446 20.8009 23.9678 21.5175L23.9758 21.5195ZM24.0134 23.0885C23.7608 22.6045 23.8445 22.0289 23.9758 21.5195L23.9678 21.5174C23.8364 22.027 23.7519 22.6054 24.006 23.0923L24.0134 23.0885ZM25.1419 23.764C24.696 23.7253 24.2197 23.5103 24.0134 23.0886L24.006 23.0922C24.214 23.5175 24.6937 23.7334 25.1411 23.7723L25.1419 23.764ZM26.988 23.2871C26.4964 23.7408 25.7813 23.8407 25.142 23.7641L25.141 23.7723C25.7815 23.8491 26.4995 23.7493 26.9936 23.2932L26.988 23.2871ZM27.6719 21.8885C27.5795 22.4041 27.3874 22.9338 26.9881 23.287L26.9936 23.2933C27.395 22.9382 27.5876 22.4063 27.6801 21.89L27.6719 21.8885ZM27.8829 20.8519C27.8134 21.1985 27.744 21.5442 27.6719 21.8884L27.6801 21.8901C27.7521 21.5459 27.8215 21.2002 27.8911 20.8536L27.8829 20.8519ZM28.1722 19.4473C28.0708 19.916 27.9767 20.3848 27.8829 20.8519L27.8911 20.8536C27.9849 20.3864 28.0789 19.9177 28.1803 19.449L28.1722 19.4473Z" fill="white"/>
<path fill-rule="evenodd" clip-rule="evenodd" d="M34.9236 18.3794C33.6374 18.3489 32.2902 18.7261 31.3507 19.6342V19.6323C30.6112 20.3238 30.1717 21.2774 30.1264 22.2889C30.0607 22.9182 30.2428 23.5484 30.6341 24.0457C31.1195 24.6856 31.9046 25.0398 32.6831 25.1627C33.8686 25.3625 35.1464 25.1627 36.1479 24.4776L36.1858 24.447C35.0327 24.57 33.7761 24.6005 32.7211 24.0383C32.0516 23.6694 31.728 22.876 31.8047 22.1363C33.1372 22.3749 34.5537 22.4294 35.8399 21.944C36.3781 21.7285 36.9098 21.3818 37.1789 20.851C37.472 20.2426 37.4017 19.4104 36.871 18.9564C36.3402 18.5024 35.6005 18.3951 34.9236 18.3794ZM35.2164 19.4579C34.6237 19.3035 33.9848 19.4033 33.4383 19.6502H33.4364C32.7966 19.9424 32.3121 20.512 32.0347 21.1519C33.0065 21.3127 34.0384 21.3904 34.9936 21.0742C35.4088 20.9281 35.8323 20.5508 35.7629 20.0654C35.7481 19.7575 35.4938 19.5272 35.2164 19.4579Z" fill="#273896"/>
<path d="M31.3507 19.6342H31.3567L31.3536 19.6372L31.3507 19.6342ZM34.9236 18.3794L34.9235 18.3836L34.9235 18.3836L34.9236 18.3794ZM31.3507 19.6323H31.3446L31.3479 19.6293L31.3507 19.6323ZM30.1264 22.2889L30.1306 22.2893L30.1306 22.2891L30.1264 22.2889ZM30.6341 24.0457L30.6374 24.0432L30.6374 24.0432L30.6341 24.0457ZM32.6831 25.1627L32.6838 25.1586L32.6838 25.1586L32.6831 25.1627ZM36.1479 24.4776L36.1502 24.481L36.1505 24.4808L36.1479 24.4776ZM36.1858 24.447L36.1827 24.4432L36.1853 24.4429L36.1858 24.447ZM32.7211 24.0383L32.719 24.042L32.7191 24.042L32.7211 24.0383ZM31.8047 22.1363L31.7948 22.1919L31.8006 22.1359L31.8047 22.1363ZM35.8399 21.944L35.8414 21.9479L35.8415 21.9478L35.8399 21.944ZM37.1789 20.851L37.1826 20.8529L37.1826 20.8528L37.1789 20.851ZM36.871 18.9564L36.8737 18.9532L36.871 18.9564ZM33.4383 19.6502V19.6548L33.44 19.654L33.4383 19.6502ZM35.2164 19.4579L35.2154 19.4619L35.2154 19.4619L35.2164 19.4579ZM33.4364 19.6502V19.6456L33.4347 19.6464L33.4364 19.6502ZM32.0347 21.1519L32.0504 21.1587L32.034 21.156L32.0347 21.1519ZM34.9936 21.0742L34.9949 21.0781L34.995 21.0781L34.9936 21.0742ZM35.7629 20.0654L35.7587 20.0656L35.7588 20.066L35.7629 20.0654ZM31.3536 19.6372C32.292 18.7301 33.6381 18.3531 34.9235 18.3836L34.9237 18.3752C33.6367 18.3447 32.2883 18.7222 31.3478 19.6312L31.3536 19.6372ZM31.3465 19.6323V19.6342H31.3549V19.6323H31.3465ZM30.1306 22.2891C30.1758 21.2787 30.6148 20.3261 31.3535 19.6354L31.3479 19.6293C30.6075 20.3216 30.1676 21.2761 30.1223 22.2887L30.1306 22.2891ZM30.6374 24.0432C30.2468 23.5467 30.065 22.9176 30.1306 22.2893L30.1223 22.2884C30.0565 22.9189 30.2389 23.5501 30.6308 24.0483L30.6374 24.0432ZM32.6838 25.1586C31.9059 25.0358 31.122 24.682 30.6374 24.0432L30.6308 24.0483C31.1171 24.6892 31.9032 25.0438 32.6825 25.1668L32.6838 25.1586ZM36.1455 24.4741C35.1451 25.1586 33.8684 25.3582 32.6838 25.1586L32.6824 25.1668C33.8687 25.3667 35.1478 25.1669 36.1502 24.481L36.1455 24.4741ZM36.1832 24.4438L36.1453 24.4743L36.1505 24.4808L36.1884 24.4503L36.1832 24.4438ZM32.7191 24.042C33.7753 24.6049 35.0331 24.5742 36.1862 24.4512L36.1853 24.4429C35.0323 24.5659 33.7768 24.5962 32.723 24.0347L32.7191 24.042ZM31.8006 22.1359C31.7237 22.8769 32.0478 23.6721 32.719 24.042L32.7231 24.0347C32.0553 23.6667 31.7322 22.8752 31.8088 22.1367L31.8006 22.1359ZM35.8385 21.9401C34.5533 22.4251 33.1376 22.3707 31.8054 22.1322L31.804 22.1404C33.1367 22.379 34.5542 22.4337 35.8414 21.9479L35.8385 21.9401ZM37.1752 20.8491C36.9067 21.3786 36.3761 21.7248 35.8384 21.9401L35.8415 21.9478C36.3801 21.7322 36.9128 21.385 37.1826 20.8529L37.1752 20.8491ZM36.8682 18.9595C37.3972 19.412 37.4676 20.242 37.1751 20.8492L37.1826 20.8528C37.4763 20.2432 37.4062 19.4088 36.8737 18.9532L36.8682 18.9595ZM34.9235 18.3836C35.6002 18.3993 36.3386 18.5065 36.8682 18.9595L36.8737 18.9532C36.3417 18.4982 35.6007 18.391 34.9237 18.3752L34.9235 18.3836ZM33.44 19.654C33.9858 19.4074 34.6238 19.3078 35.2154 19.4619L35.2175 19.4538C34.6237 19.2991 33.9837 19.3992 33.4366 19.6464L33.44 19.654ZM33.4364 19.6544H33.4383V19.646H33.4364V19.6544ZM32.0385 21.1535C32.3156 20.5144 32.7994 19.9457 33.4382 19.654L33.4347 19.6464C32.7937 19.9391 32.3086 20.5096 32.0308 21.1502L32.0385 21.1535ZM34.9923 21.0702C34.0381 21.3861 33.007 21.3086 32.0353 21.1478L32.034 21.156C33.006 21.3169 34.0387 21.3947 34.9949 21.0781L34.9923 21.0702ZM35.7588 20.066C35.7933 20.3072 35.7053 20.5217 35.5568 20.6943C35.4082 20.8669 35.1992 20.9974 34.9922 21.0703L34.995 21.0781C35.2031 21.0049 35.4134 20.8736 35.5631 20.6998C35.7128 20.5258 35.8019 20.309 35.767 20.0648L35.7588 20.066ZM35.2154 19.4619C35.4916 19.5309 35.7441 19.76 35.7587 20.0656L35.7671 20.0652C35.7522 19.7549 35.4961 19.5235 35.2174 19.4538L35.2154 19.4619Z" fill="white"/>
<path fill-rule="evenodd" clip-rule="evenodd" d="M20.3235 18.8713C19.5209 18.4016 18.5426 18.3323 17.642 18.4247L17.6411 18.4275C16.4242 18.5505 15.2314 19.1127 14.4454 20.0669C13.7991 20.8516 13.4843 21.8574 13.5679 22.8705C13.6066 23.2222 13.7271 23.5599 13.9198 23.8567C14.1125 24.1534 14.372 24.4009 14.6775 24.5793C15.4626 25.049 16.4103 25.1184 17.2952 25.049C18.6425 24.9334 19.9823 24.2714 20.76 23.1396C21.2759 22.3851 21.5607 21.4299 21.4377 20.5135C21.3886 20.1733 21.2628 19.8486 21.0698 19.5641C20.8767 19.2796 20.6216 19.0427 20.3235 18.8713ZM19.2175 19.88C18.7403 19.487 18.0626 19.4334 17.4773 19.5721C16.1374 19.88 15.2599 21.2652 15.3135 22.5902C15.3211 22.91 15.4443 23.2161 15.6603 23.452C15.9756 23.783 16.4536 23.8912 16.9003 23.8912C17.3109 23.9014 17.7182 23.8155 18.0897 23.6404C18.4612 23.4652 18.7866 23.2057 19.0399 22.8824C19.3956 22.4199 19.6169 21.8683 19.6798 21.2883C19.7408 20.788 19.6105 20.2259 19.2175 19.88Z" fill="#273896"/>
<path d="M17.642 18.4247L17.641 18.4147L17.638 18.4234L17.642 18.4247ZM20.3235 18.8713L20.3214 18.8749L20.3214 18.8749L20.3235 18.8713ZM17.6411 18.4275L17.6421 18.4376L17.645 18.4288L17.6411 18.4275ZM14.4454 20.0669L14.4422 20.0643H14.4422L14.4454 20.0669ZM13.5679 22.8705L13.5638 22.8709L13.5638 22.871L13.5679 22.8705ZM14.6775 24.5793L14.6797 24.5757L14.6796 24.5757L14.6775 24.5793ZM17.2952 25.049L17.2956 25.0532L17.2956 25.0532L17.2952 25.049ZM20.76 23.1396L20.7634 23.1419L20.7634 23.1419L20.76 23.1396ZM21.4377 20.5135L21.4419 20.513L21.4419 20.5129L21.4377 20.5135ZM21.0698 19.5641L21.0732 19.5618L21.0698 19.5641ZM17.4773 19.5721L17.4782 19.5762L17.4782 19.5762L17.4773 19.5721ZM19.2175 19.88L19.2202 19.8769L19.2201 19.8768L19.2175 19.88ZM15.3135 22.5902L15.3177 22.5901L15.3177 22.5901L15.3135 22.5902ZM15.6603 23.452L15.6572 23.4548L15.6573 23.4549L15.6603 23.452ZM16.9003 23.8912L16.9004 23.8871H16.9003V23.8912ZM18.0897 23.6404L18.0914 23.6442L18.0897 23.6404ZM19.0399 22.8824L19.0432 22.885L19.0432 22.885L19.0399 22.8824ZM19.6798 21.2883L19.6757 21.2878L19.6757 21.2878L19.6798 21.2883ZM17.6424 18.4289C18.5426 18.3364 19.5199 18.4058 20.3214 18.8749L20.3256 18.8677C19.5219 18.3974 18.5426 18.3281 17.6416 18.4206L17.6424 18.4289ZM17.645 18.4288L17.6459 18.426L17.638 18.4234L17.6371 18.4262L17.645 18.4288ZM14.4486 20.0696C15.2338 19.1163 16.4256 18.5545 17.6415 18.4316L17.6407 18.4234C16.4229 18.5464 15.229 19.1091 14.4422 20.0643L14.4486 20.0696ZM13.5721 22.8702C13.4886 21.8581 13.803 20.8534 14.4486 20.0696L14.4422 20.0643C13.7952 20.8498 13.4801 21.8567 13.5638 22.8709L13.5721 22.8702ZM13.9233 23.8544C13.7309 23.5582 13.6107 23.2211 13.5721 22.8701L13.5638 22.871C13.6025 23.2233 13.7232 23.5617 13.9163 23.859L13.9233 23.8544ZM14.6796 24.5757C14.3746 24.3976 14.1156 24.1506 13.9233 23.8544L13.9163 23.859C14.1093 24.1562 14.3693 24.4042 14.6754 24.5829L14.6796 24.5757ZM17.2949 25.0449C16.4103 25.1142 15.4636 25.0448 14.6797 24.5757L14.6754 24.5829C15.4615 25.0533 16.4103 25.1226 17.2956 25.0532L17.2949 25.0449ZM20.7565 23.1372C19.9797 24.2678 18.6411 24.9294 17.2949 25.0449L17.2956 25.0532C18.6439 24.9375 19.9849 24.2749 20.7634 23.1419L20.7565 23.1372ZM21.4336 20.5141C21.5564 21.4293 21.272 22.3834 20.7565 23.1372L20.7634 23.1419C21.2798 22.3867 21.565 21.4305 21.4419 20.513L21.4336 20.5141ZM21.0663 19.5665C21.259 19.8504 21.3846 20.1745 21.4336 20.5141L21.4419 20.5129C21.3927 20.1721 21.2666 19.8468 21.0732 19.5618L21.0663 19.5665ZM20.3214 18.8749C20.6189 19.046 20.8736 19.2825 21.0663 19.5665L21.0732 19.5618C20.8798 19.2768 20.6242 19.0394 20.3256 18.8677L20.3214 18.8749ZM17.4782 19.5762C18.0628 19.4376 18.7391 19.4914 19.2148 19.8832L19.2201 19.8768C18.7416 19.4827 18.0624 19.4292 17.4763 19.5681L17.4782 19.5762ZM15.3177 22.5901C15.2641 21.2667 16.1406 19.8836 17.4782 19.5762L17.4763 19.5681C16.1342 19.8765 15.2557 21.2637 15.3094 22.5904L15.3177 22.5901ZM15.6634 23.4492C15.448 23.2141 15.3252 22.9089 15.3177 22.5901L15.3094 22.5903C15.317 22.9111 15.4405 23.2182 15.6572 23.4548L15.6634 23.4492ZM16.9003 23.8871C16.4541 23.8871 15.9775 23.779 15.6633 23.4491L15.6573 23.4549C15.9737 23.7871 16.4532 23.8954 16.9003 23.8954V23.8871ZM18.0879 23.6366C17.717 23.8115 17.3103 23.8973 16.9004 23.8871L16.9002 23.8954C17.3114 23.9056 17.7193 23.8196 18.0914 23.6442L18.0879 23.6366ZM19.0367 22.8798C18.7837 23.2026 18.4588 23.4618 18.0879 23.6366L18.0914 23.6442C18.4635 23.4687 18.7894 23.2088 19.0432 22.885L19.0367 22.8798ZM19.6757 21.2878C19.6129 21.8671 19.3918 22.4179 19.0366 22.8799L19.0432 22.885C19.3993 22.4218 19.621 21.8695 19.6839 21.2887L19.6757 21.2878ZM19.2147 19.8832C19.6064 20.2278 19.7366 20.7884 19.6757 21.2878L19.6839 21.2888C19.7451 20.7877 19.6146 20.2239 19.2202 19.8769L19.2147 19.8832Z" fill="white"/>
<path fill-rule="evenodd" clip-rule="evenodd" d="M51.4487 18.7258C50.5851 18.3171 49.5994 18.294 48.6747 18.4253H48.6765C47.3219 18.625 46.0283 19.4017 45.3357 20.6038C44.9039 21.3667 44.6811 22.2747 44.8577 23.1448C44.9964 23.8531 45.5123 24.4541 46.167 24.762C47.014 25.1624 47.984 25.2086 48.9003 25.0857C50.2013 24.9007 51.4718 24.1998 52.1884 23.0838C52.6887 22.3061 52.9577 21.3435 52.7959 20.4272C52.7259 20.0557 52.5667 19.7068 52.332 19.4105C52.0973 19.1141 51.7942 18.8792 51.4487 18.7258ZM50.4768 19.8117C50.0061 19.465 49.3672 19.4345 48.8124 19.5574C47.405 19.8672 46.4804 21.3513 46.6043 22.7448C46.623 22.9714 46.7041 23.1885 46.8386 23.3719C46.9731 23.5554 47.1557 23.698 47.3662 23.7841C47.9917 24.0184 48.683 24.0048 49.2988 23.7462C50.3843 23.307 51.0547 22.1289 51.039 20.9814C51.0316 20.5348 50.8467 20.0808 50.4768 19.8117Z" fill="#273896"/>
<path d="M48.6747 18.4253L48.6753 18.4295H48.6747V18.4253ZM51.4487 18.7258L51.4469 18.7296L51.447 18.7296L51.4487 18.7258ZM48.6765 18.4253L48.6759 18.4211H48.6765V18.4253ZM45.3357 20.6038L45.3321 20.6017L45.3321 20.6018L45.3357 20.6038ZM44.8577 23.1448L44.8618 23.144L44.8618 23.144L44.8577 23.1448ZM46.167 24.762L46.1688 24.7583L46.1688 24.7583L46.167 24.762ZM48.9003 25.0857L48.9009 25.0898L48.9009 25.0898L48.9003 25.0857ZM52.1884 23.0838L52.1849 23.0815L52.1849 23.0815L52.1884 23.0838ZM52.7959 20.4272L52.8 20.4265L52.8 20.4264L52.7959 20.4272ZM52.332 19.4105L52.3353 19.4079L52.332 19.4105ZM48.8124 19.5574L48.8133 19.5615L48.8133 19.5615L48.8124 19.5574ZM50.4768 19.8117L50.4743 19.8151L50.4743 19.8151L50.4768 19.8117ZM46.6043 22.7448L46.6084 22.7444L46.6084 22.7444L46.6043 22.7448ZM47.3662 23.7841L47.3646 23.7879L47.3648 23.788L47.3662 23.7841ZM49.2988 23.7462L49.2972 23.7423L49.2972 23.7423L49.2988 23.7462ZM51.039 20.9814L51.0431 20.9814V20.9813L51.039 20.9814ZM48.6753 18.4294C49.5995 18.2982 50.5843 18.3214 51.4469 18.7296L51.4505 18.722C50.5858 18.3129 49.5992 18.2898 48.6741 18.4212L48.6753 18.4294ZM48.6765 18.4211H48.6747V18.4295H48.6765V18.4211ZM45.3393 20.6059C46.0312 19.4051 47.3236 18.629 48.6772 18.4294L48.6759 18.4212C47.3202 18.6211 46.0254 19.3984 45.3321 20.6017L45.3393 20.6059ZM44.8618 23.144C44.6854 22.2751 44.9079 21.3681 45.3394 20.6059L45.3321 20.6018C44.8999 21.3652 44.6767 22.2743 44.8536 23.1456L44.8618 23.144ZM46.1688 24.7583C45.5152 24.4508 45.0002 23.8508 44.8618 23.144L44.8536 23.1456C44.9926 23.8553 45.5095 24.4574 46.1652 24.7658L46.1688 24.7583ZM48.8998 25.0815C47.9839 25.2045 47.0148 25.1582 46.1688 24.7583L46.1652 24.7658C47.0132 25.1666 47.9841 25.2128 48.9009 25.0898L48.8998 25.0815ZM52.1849 23.0815C51.4691 24.1964 50.1998 24.8967 48.8997 25.0815L48.9009 25.0898C50.2029 24.9047 51.4745 24.2033 52.1919 23.086L52.1849 23.0815ZM52.7918 20.4279C52.9534 21.343 52.6847 22.3045 52.1849 23.0815L52.1919 23.086C52.6926 22.3077 52.9621 21.3441 52.8 20.4265L52.7918 20.4279ZM52.3287 19.413C52.563 19.7089 52.7219 20.0572 52.7918 20.428L52.8 20.4264C52.7298 20.0543 52.5704 19.7048 52.3353 19.4079L52.3287 19.413ZM51.447 18.7296C51.7919 18.8827 52.0945 19.1172 52.3287 19.413L52.3353 19.4079C52.1002 19.111 51.7965 18.8756 51.4504 18.722L51.447 18.7296ZM48.8133 19.5615C49.3675 19.4387 50.005 19.4693 50.4743 19.8151L50.4793 19.8084C50.0073 19.4606 49.3669 19.4303 48.8115 19.5534L48.8133 19.5615ZM46.6084 22.7444C46.4847 21.3527 47.4083 19.8707 48.8133 19.5615L48.8115 19.5534C47.4018 19.8636 46.4761 21.3499 46.6001 22.7451L46.6084 22.7444ZM46.842 23.3695C46.7079 23.1867 46.6271 22.9703 46.6084 22.7444L46.6001 22.7451C46.6189 22.9725 46.7003 23.1903 46.8352 23.3744L46.842 23.3695ZM47.3678 23.7802C47.158 23.6944 46.976 23.5523 46.842 23.3695L46.8352 23.3744C46.9702 23.5584 47.1534 23.7016 47.3646 23.7879L47.3678 23.7802ZM49.2972 23.7423C48.6824 24.0005 47.9921 24.0141 47.3677 23.7802L47.3648 23.788C47.9912 24.0226 48.6836 24.009 49.3004 23.75L49.2972 23.7423ZM51.0348 20.9815C51.0505 22.1275 50.3809 23.3038 49.2972 23.7423L49.3003 23.75C50.3877 23.3101 51.0589 22.1303 51.0431 20.9814L51.0348 20.9815ZM50.4743 19.8151C50.8429 20.0832 51.0274 20.5359 51.0348 20.9815L51.0431 20.9813C51.0357 20.5337 50.8504 20.0784 50.4792 19.8084L50.4743 19.8151Z" fill="white"/>
<path d="M40.9295 22.8904C41.3604 22.6287 41.7145 22.2671 42.0992 21.9592C43.0433 22.9986 44.0049 24.0277 44.9675 25.0448C44.298 25.0291 43.6203 25.0522 42.9508 25.0374C42.7733 24.9293 42.6577 24.7674 42.5116 24.6287C41.9568 24.0665 41.4186 23.4969 40.9258 22.8885L40.9295 22.8904Z" fill="#273896" stroke="#273896" stroke-width="0.00832199" stroke-miterlimit="10"/>
</svg>
