<svg width="57" height="39" viewBox="0 0 57 39" fill="none" xmlns="http://www.w3.org/2000/svg">
<path d="M52.4512 0.949219H4.42822C2.0171 0.949219 0.0625 2.90382 0.0625 5.31494V34.4198C0.0625 36.8309 2.0171 38.7855 4.42822 38.7855H52.4512C54.8623 38.7855 56.8169 36.8309 56.8169 34.4198V5.31494C56.8169 2.90382 54.8623 0.949219 52.4512 0.949219Z" fill="#F3F3F3"/>
<path d="M27.7132 25.6882H7.33984V31.5092H27.7132V25.6882Z" fill="#F3F3F3"/>
<path d="M56.8169 8.22534H0.0625V15.5015H56.8169V8.22534Z" fill="#F3F3F3"/>
<path fill-rule="evenodd" clip-rule="evenodd" d="M38.8466 20.9038H34.4058C34.5741 21.8681 35.4935 22.2382 36.2898 22.2382C36.7944 22.2382 37.2429 22.126 37.6804 21.9243L37.5571 23.2474C37.0636 23.4492 36.4693 23.5278 35.875 23.5278C33.9013 23.5278 32.5108 22.3728 32.5108 20.4104C32.5108 18.7058 33.7554 17.4275 35.6618 17.4275C37.8149 17.4275 38.8914 18.7956 38.8466 20.9038ZM30.8173 23.4157C30.7275 23.2025 30.5929 22.855 30.4809 22.5073L30.2229 21.6438C30.0883 21.1842 29.9089 20.9935 29.4715 20.9935H28.7314V23.4157H27.0157V15.4987H28.7314V19.8609H28.9222L30.548 17.5397H32.4544L30.5368 19.9617H30.6378C31.4003 19.9617 31.6246 20.3879 31.8153 21.0159L32.1405 22.1037C32.2526 22.5073 32.4882 23.0792 32.6674 23.4157H30.8173ZM25.3223 22.1037C25.7708 22.1037 26.141 21.9803 26.4213 21.8458L26.2644 23.27C25.9055 23.4492 25.4007 23.539 24.9634 23.539C23.1131 23.539 21.8348 22.3392 21.8348 20.4665C21.8348 18.6162 23.0907 17.4275 24.9522 17.4275C25.6362 17.4275 26.1634 17.562 26.7015 17.8087L26.2081 19.1319C25.9502 18.9749 25.5915 18.8517 25.2101 18.8517C24.2682 18.8517 23.6514 19.4683 23.6514 20.4665C23.6514 21.4532 24.3018 22.1148 25.3223 22.1037ZM19.5582 16.7882H21.3075V15.4987H19.5582V16.7882ZM19.5582 23.4157H21.3075V17.5397H19.5582V23.4157ZM39.217 20.2422V16.25L40.9663 15.5435V17.6517H42.1437L41.9082 18.9637H40.9439V20.3094C40.9439 21.6165 41.4393 22.5371 41.9645 23.2763C42.2254 22.1823 42.3641 21.0412 42.3641 19.8674C42.364 11.7761 35.8046 5.2168 27.7133 5.2168C21.1435 5.2168 15.5839 9.54107 13.7251 15.4987H19.1768L18.9637 17.0686H16.6873V23.4157H14.8257V17.0686H13.3306C13.1554 17.9747 13.0625 18.9102 13.0625 19.8674C13.0626 27.9589 19.6219 34.5182 27.7134 34.5182C34.5811 34.5182 40.3442 29.7926 41.9306 23.4157H40.2038C39.901 22.8886 39.2058 21.9354 39.217 20.2422ZM35.7179 18.6385C34.9778 18.6385 34.5068 19.1207 34.361 19.7599H36.9963C36.9066 19.0535 36.4132 18.6385 35.7179 18.6385Z" fill="#FF1200"/>
</svg>
