<svg width="59" height="42" viewBox="0 0 59 42" fill="none" xmlns="http://www.w3.org/2000/svg">
<path d="M52.9395 0.520996H6.37175C3.15692 0.520996 0.550781 3.12713 0.550781 6.34196V35.4468C0.550781 38.6616 3.15692 41.2677 6.37175 41.2677H52.9395C56.1543 41.2677 58.7604 38.6616 58.7604 35.4468V6.34196C58.7604 3.12713 56.1543 0.520996 52.9395 0.520996Z" fill="#B7D343"/>
<path d="M37.9955 4.79943C34.8719 4.78763 31.8168 5.7144 29.2262 7.45961L27.771 8.49283C27.0832 9.15246 26.2354 9.62159 25.3112 9.85405C24.387 10.0865 23.4181 10.0743 22.5001 9.81856L21.6823 9.54643C20.3688 9.04689 18.9749 8.79238 17.5697 8.79552C15.8601 8.7684 14.1653 9.11656 12.6048 9.81548C11.0443 10.5144 9.65606 11.547 8.53794 12.8407C7.41981 14.1343 6.59898 15.6574 6.13333 17.3026C5.66769 18.9479 5.56856 20.6752 5.84289 22.3629C6.11722 24.0506 6.75833 25.6577 7.72109 27.0707C8.68386 28.4838 9.94483 29.6685 11.4151 30.5414C12.8854 31.4143 14.5292 31.9541 16.2308 32.1227C17.9323 32.2914 19.6501 32.0849 21.2632 31.5177C24.05 30.6896 25.5692 30.9137 27.3038 32.1507C27.6545 32.4039 28.503 32.9394 28.6776 33.066C30.6705 34.5385 32.9845 35.5171 35.4292 35.9211C37.874 36.3252 40.3797 36.1433 42.7405 35.3904C45.1012 34.6375 47.2496 33.3351 49.0089 31.5902C50.7683 29.8453 52.0885 27.7078 52.8609 25.3533C53.6333 22.9989 53.8359 20.4947 53.452 18.0467C53.0682 15.5987 52.1089 13.2768 50.6529 11.2717C49.1969 9.2667 47.2859 7.63583 45.0768 6.51319C42.8678 5.39055 40.4239 4.80819 37.946 4.81398L37.9955 4.79943Z" fill="#007858"/>
<path d="M32.3467 22.8735C32.0908 23.1288 31.7868 23.3308 31.4524 23.4679C31.1179 23.605 30.7596 23.6745 30.3982 23.6725C29.8872 23.6643 29.3883 23.5158 28.956 23.2432L27.9141 24.8905C28.8168 25.4585 29.8847 25.7058 30.9453 25.5926C32.0058 25.4793 32.9973 25.0121 33.7598 24.2662L32.3467 22.8735Z" fill="white"/>
<path d="M30.4743 16.1604C29.8537 16.1514 29.2375 16.2647 28.6608 16.4938C28.084 16.7229 27.558 17.0634 27.1129 17.4959C26.6677 17.9283 26.3122 18.4442 26.0664 19.0141C25.8207 19.5839 25.6896 20.1967 25.6807 20.8172C25.6613 21.7569 25.926 22.6805 26.4403 23.4672L35.0146 19.8043C34.7705 18.7792 34.1914 17.8647 33.3691 17.2058C32.5467 16.5468 31.528 16.181 30.4743 16.1662V16.1604ZM27.638 21.181V20.8463C27.6515 20.2864 27.8341 19.7437 28.1616 19.2894C28.4892 18.8351 28.9465 18.4905 29.4735 18.3008C30.0005 18.1112 30.5725 18.0853 31.1144 18.2266C31.6564 18.368 32.1429 18.6699 32.5102 19.0927L27.638 21.181Z" fill="white"/>
<path d="M37.6924 14.0256V23.1558L39.2801 23.818L38.5292 25.6108L36.9604 24.9676C36.6459 24.829 36.3784 24.602 36.1906 24.3142C35.9796 23.9757 35.8742 23.5821 35.8879 23.1835V14.0256H37.6924Z" fill="white"/>
<path d="M23.9057 14.0256V23.1558L25.4934 23.818L24.7425 25.6108L23.1635 24.9676C22.8491 24.829 22.5816 24.602 22.3937 24.3142C22.1827 23.9757 22.0773 23.5821 22.091 23.1835V14.0256H23.9057Z" fill="white"/>
<path d="M45.4858 18.3727C46.1518 18.694 46.6635 19.266 46.909 19.9636C47.1544 20.6612 47.1136 21.4276 46.7955 22.0952L48.5491 22.9334C49.028 21.9443 49.1472 20.8192 48.8861 19.7517C48.6251 18.6842 48.0002 17.7411 47.1189 17.0846C46.2375 16.4282 45.155 16.0994 44.0574 16.155C42.9599 16.2105 41.916 16.6468 41.1055 17.3889L42.4152 18.8311C42.8246 18.4569 43.3363 18.2134 43.8849 18.1318C44.4334 18.0501 44.9938 18.134 45.4945 18.3727H45.4858Z" fill="#C7D540"/>
<path d="M43.0825 23.4003C42.4246 23.081 41.9186 22.5159 41.6736 21.8269C41.4285 21.1379 41.4642 20.3801 41.7728 19.7171L40.0192 18.8789C39.5403 19.868 39.4211 20.9931 39.6821 22.0606C39.9431 23.1281 40.5681 24.0712 41.4494 24.7277C42.3307 25.3841 43.4133 25.7129 44.5109 25.6573C45.6084 25.6018 46.6523 25.1655 47.4628 24.4234L46.1531 22.9812C45.7394 23.349 45.2257 23.5852 44.6773 23.6599C44.1289 23.7345 43.5706 23.6442 43.0738 23.4003H43.0825Z" fill="white"/>
<path d="M20.3197 23.5254V20.8944C20.3206 19.8914 20.0019 18.9143 19.4097 18.1049C18.8174 17.2955 17.9826 16.6959 17.0265 16.3933C16.5627 16.2487 16.0802 16.1732 15.5945 16.1692C14.349 16.1692 13.1546 16.664 12.2739 17.5446C11.3932 18.4253 10.8984 19.6198 10.8984 20.8653C10.8984 22.1107 11.3932 23.3052 12.2739 24.1859C13.1546 25.0666 14.349 25.5613 15.5945 25.5613C16.3224 25.5637 17.0405 25.3937 17.69 25.0651L16.9304 23.2911C16.5053 23.5219 16.0275 23.6385 15.5439 23.6295C15.0602 23.6205 14.5872 23.4862 14.1709 23.2398C13.7547 22.9933 13.4094 22.6431 13.169 22.2233C12.9285 21.8036 12.801 21.3286 12.799 20.8449C12.7959 20.3871 12.9101 19.9362 13.1308 19.5352C13.3171 19.1822 13.5772 18.8733 13.8933 18.6295C14.2094 18.3857 14.5741 18.2127 14.9629 18.1221C15.1676 18.0748 15.3772 18.0518 15.5872 18.0537C15.9894 18.05 16.3872 18.1366 16.7514 18.3069C17.2365 18.5305 17.648 18.8874 17.9378 19.336C18.2277 19.7846 18.3841 20.3064 18.3886 20.8405V23.4599C18.3749 23.8585 18.4803 24.2522 18.6913 24.5907C18.8792 24.8784 19.1466 25.1054 19.4611 25.2441L20.3473 25.5948L21.0982 23.7917L20.3197 23.5254Z" fill="white"/>
</svg>
